Bungee_Vertical-Regular.ufo
<glyph name="dollar" format="1">
  <advance width="1000"/>
  <unicode hex="0024"/>
  <outline>
    <contour>
      <point x="399" y="83" type="line"/>
      <point x="399" y="-54" type="line" smooth="yes"/>
      <point x="399" y="-79"/>
      <point x="410" y="-90"/>
      <point x="435" y="-90" type="curve" smooth="yes"/>
      <point x="580" y="-90" type="line" smooth="yes"/>
      <point x="605" y="-90"/>
      <point x="616" y="-79"/>
      <point x="616" y="-54" type="curve" smooth="yes"/>
      <point x="616" y="83" type="line"/>
    </contour>
    <contour>
      <point x="616" y="622" type="line"/>
      <point x="616" y="774" type="line" smooth="yes"/>
      <point x="616" y="799"/>
      <point x="605" y="810"/>
      <point x="580" y="810" type="curve" smooth="yes"/>
      <point x="435" y="810" type="line" smooth="yes"/>
      <point x="410" y="810"/>
      <point x="399" y="799"/>
      <point x="399" y="774" type="curve" smooth="yes"/>
      <point x="399" y="622" type="line"/>
    </contour>
    <contour>
      <point x="578" y="0" type="line" smooth="yes"/>
      <point x="707" y="0"/>
      <point x="785" y="62"/>
      <point x="785" y="176" type="curve" smooth="yes"/>
      <point x="785" y="281" type="line" smooth="yes"/>
      <point x="785" y="393"/>
      <point x="723" y="433"/>
      <point x="629" y="447" type="curve" smooth="yes"/>
      <point x="480" y="467" type="line" smooth="yes"/>
      <point x="463" y="469"/>
      <point x="453" y="481"/>
      <point x="453" y="499" type="curve" smooth="yes"/>
      <point x="453" y="517"/>
      <point x="463" y="529"/>
      <point x="480" y="529" type="curve" smooth="yes"/>
      <point x="713" y="529" type="line" smooth="yes"/>
      <point x="738" y="529"/>
      <point x="749" y="540"/>
      <point x="749" y="565" type="curve" smooth="yes"/>
      <point x="749" y="684" type="line" smooth="yes"/>
      <point x="749" y="709"/>
      <point x="738" y="720"/>
      <point x="713" y="720" type="curve" smooth="yes"/>
      <point x="433" y="720" type="line" smooth="yes"/>
      <point x="303" y="720"/>
      <point x="226" y="658"/>
      <point x="226" y="544" type="curve" smooth="yes"/>
      <point x="226" y="439" type="line" smooth="yes"/>
      <point x="226" y="327"/>
      <point x="287" y="287"/>
      <point x="381" y="273" type="curve" smooth="yes"/>
      <point x="531" y="252" type="line" smooth="yes"/>
      <point x="548" y="250"/>
      <point x="557" y="241"/>
      <point x="557" y="218" type="curve" smooth="yes"/>
      <point x="557" y="202"/>
      <point x="548" y="189"/>
      <point x="531" y="189" type="curve" smooth="yes"/>
      <point x="262" y="189" type="line" smooth="yes"/>
      <point x="237" y="189"/>
      <point x="226" y="178"/>
      <point x="226" y="153" type="curve" smooth="yes"/>
      <point x="226" y="36" type="line" smooth="yes"/>
      <point x="226" y="11"/>
      <point x="237" y="0"/>
      <point x="262" y="0" type="curve" smooth="yes"/>
    </contour>
  </outline>
</glyph>
<glyph name="period" format="1">
  <advance width="1000"/>
  <unicode hex="002E"/>
  <outline>
    <contour>
      <point x="601.0" y="222.0" type="line" smooth="yes"/>
      <point x="626.0" y="222.0"/>
      <point x="637.0" y="233.0"/>
      <point x="637.0" y="258.0" type="curve" smooth="yes"/>
      <point x="637.0" y="461.0" type="line" smooth="yes"/>
      <point x="637.0" y="487.0"/>
      <point x="626.0" y="497.0"/>
      <point x="601.0" y="497.0" type="curve" smooth="yes"/>
      <point x="399.0" y="497.0" type="line" smooth="yes"/>
      <point x="374.0" y="497.0"/>
      <point x="363.0" y="487.0"/>
      <point x="363.0" y="461.0" type="curve"/>
      <point x="363.0" y="258.0" type="line"/>
      <point x="363.0" y="233.0"/>
      <point x="374.0" y="222.0"/>
      <point x="399.0" y="222.0" type="curve" smooth="yes"/>
    </contour>
  </outline>
</glyph>
<glyph name="slash" format="1">
  <advance width="1000"/>
  <unicode hex="002F"/>
  <outline>
    <contour>
      <point x="331" y="-54" type="line"/>
      <point x="328" y="-79"/>
      <point x="342" y="-90"/>
      <point x="367" y="-90" type="curve" smooth="yes"/>
      <point x="512" y="-90" type="line" smooth="yes"/>
      <point x="537" y="-90"/>
      <point x="545" y="-79"/>
      <point x="548" y="-54" type="curve" smooth="yes"/>
      <point x="668" y="774" type="line" smooth="yes"/>
      <point x="671" y="799"/>
      <point x="657" y="810"/>
      <point x="632" y="810" type="curve" smooth="yes"/>
      <point x="487" y="810" type="line" smooth="yes"/>
      <point x="462" y="810"/>
      <point x="454" y="799"/>
      <point x="451" y="774" type="curve" smooth="yes"/>
    </contour>
  </outline>
</glyph>
<glyph name="greater" format="1">
  <advance width="1000"/>
  <unicode hex="003E"/>
  <outline>
    <contour>
      <point x="650.0" y="168.0" type="line"/>
      <point x="733.0" y="192.0"/>
      <point x="777.0" y="224.0"/>
      <point x="777.0" y="323.0" type="curve" smooth="yes"/>
      <point x="777.0" y="395.0" type="line" smooth="yes"/>
      <point x="777.0" y="494.0"/>
      <point x="733.0" y="526.0"/>
      <point x="650.0" y="550.0" type="curve" smooth="yes"/>
      <point x="269.0" y="659.0" type="line" smooth="yes"/>
      <point x="244.0" y="664.0"/>
      <point x="233.0" y="654.0"/>
      <point x="233.0" y="628.0" type="curve" smooth="yes"/>
      <point x="233.0" y="496.0" type="line" smooth="yes"/>
      <point x="233.0" y="470.0"/>
      <point x="244.0" y="459.0"/>
      <point x="269.0" y="455.0" type="curve" smooth="yes"/>
      <point x="556.0" y="378.0" type="line" smooth="yes"/>
      <point x="570.0" y="375.0"/>
      <point x="573.0" y="371.0"/>
      <point x="573.0" y="359.0" type="curve" smooth="yes"/>
      <point x="573.0" y="347.0"/>
      <point x="570.0" y="343.0"/>
      <point x="556.0" y="340.0" type="curve" smooth="yes"/>
      <point x="269.0" y="263.0" type="line" smooth="yes"/>
      <point x="244.0" y="259.0"/>
      <point x="233.0" y="248.0"/>
      <point x="233.0" y="222.0" type="curve" smooth="yes"/>
      <point x="233.0" y="90.0" type="line" smooth="yes"/>
      <point x="233.0" y="64.0"/>
      <point x="244.0" y="54.0"/>
      <point x="269.0" y="59.0" type="curve" smooth="yes"/>
    </contour>
  </outline>
</glyph>
<glyph name="bracketleft" format="1">
  <advance width="1000"/>
  <unicode hex="005B"/>
  <outline>
    <contour>
      <point x="750" y="300" type="line"/>
      <point x="750" y="228" type="line" smooth="yes"/>
      <point x="750" y="203"/>
      <point x="761" y="192"/>
      <point x="786" y="192" type="curve" smooth="yes"/>
      <point x="905" y="192" type="line" smooth="yes"/>
      <point x="930" y="192"/>
      <point x="941" y="203"/>
      <point x="941" y="228" type="curve" smooth="yes"/>
      <point x="941" y="492" type="line" smooth="yes"/>
      <point x="941" y="517"/>
      <point x="930" y="528"/>
      <point x="905" y="528" type="curve" smooth="yes"/>
      <point x="96" y="528" type="line" smooth="yes"/>
      <point x="71" y="528"/>
      <point x="60" y="517"/>
      <point x="60" y="492" type="curve" smooth="yes"/>
      <point x="60" y="228" type="line" smooth="yes"/>
      <point x="60" y="203"/>
      <point x="71" y="192"/>
      <point x="96" y="192" type="curve" smooth="yes"/>
      <point x="218" y="192" type="line" smooth="yes"/>
      <point x="243" y="192"/>
      <point x="254" y="203"/>
      <point x="254" y="228" type="curve" smooth="yes"/>
      <point x="254" y="300" type="line"/>
    </contour>
  </outline>
</glyph>
<glyph name="backslash" format="1">
  <advance width="1000"/>
  <unicode hex="005C"/>
  <outline>
    <contour>
      <point x="548" y="774" type="line" smooth="yes"/>
      <point x="545" y="799"/>
      <point x="537" y="810"/>
      <point x="512" y="810" type="curve" smooth="yes"/>
      <point x="367" y="810" type="line" smooth="yes"/>
      <point x="342" y="810"/>
      <point x="328" y="799"/>
      <point x="331" y="774" type="curve" smooth="yes"/>
      <point x="451" y="-54" type="line" smooth="yes"/>
      <point x="454" y="-79"/>
      <point x="462" y="-90"/>
      <point x="487" y="-90" type="curve" smooth="yes"/>
      <point x="632" y="-90" type="line" smooth="yes"/>
      <point x="657" y="-90"/>
      <point x="671" y="-79"/>
      <point x="668" y="-54" type="curve" smooth="yes"/>
    </contour>
  </outline>
</glyph>
<glyph name="braceright" format="1">
  <advance width="1000"/>
  <unicode hex="007D"/>
  <outline>
    <contour>
      <point x="700" y="457" type="curve"/>
      <point x="585" y="457" type="line"/>
      <point x="545" y="457"/>
      <point x="529" y="447"/>
      <point x="523" y="412" type="curve" smooth="yes"/>
      <point x="517" y="379" type="line" smooth="yes"/>
      <point x="515" y="369"/>
      <point x="512" y="366"/>
      <point x="503" y="366" type="curve" smooth="yes"/>
      <point x="494" y="366"/>
      <point x="490" y="369"/>
      <point x="489" y="379" type="curve"/>
      <point x="483" y="412" type="line" smooth="yes"/>
      <point x="477" y="447"/>
      <point x="461" y="457"/>
      <point x="421" y="457" type="curve" smooth="yes"/>
      <point x="304" y="457" type="line" smooth="yes"/>
      <point x="269" y="457"/>
      <point x="254" y="466"/>
      <point x="254" y="498" type="curve" smooth="yes"/>
      <point x="254" y="519" type="line" smooth="yes"/>
      <point x="254" y="544"/>
      <point x="243" y="555"/>
      <point x="218" y="555" type="curve" smooth="yes"/>
      <point x="96" y="555" type="line" smooth="yes"/>
      <point x="71" y="555"/>
      <point x="60" y="544"/>
      <point x="60" y="519" type="curve" smooth="yes"/>
      <point x="60" y="475" type="line" smooth="yes"/>
      <point x="60" y="286"/>
      <point x="144" y="229"/>
      <point x="266" y="229" type="curve" smooth="yes"/>
      <point x="399" y="229" type="line"/>
      <point x="412" y="186"/>
      <point x="437" y="165"/>
      <point x="485" y="165" type="curve" smooth="yes"/>
      <point x="520" y="165" type="line" smooth="yes"/>
      <point x="568" y="165"/>
      <point x="594" y="186"/>
      <point x="607" y="229" type="curve"/>
      <point x="737" y="229" type="line" smooth="yes"/>
      <point x="858" y="229"/>
      <point x="941" y="286"/>
      <point x="941" y="475" type="curve" smooth="yes"/>
      <point x="941" y="519" type="line" smooth="yes"/>
      <point x="941" y="544"/>
      <point x="930" y="555"/>
      <point x="905" y="555" type="curve" smooth="yes"/>
      <point x="786" y="555" type="line" smooth="yes"/>
      <point x="761" y="555"/>
      <point x="750" y="544"/>
      <point x="750" y="519" type="curve" smooth="yes"/>
      <point x="750" y="498" type="line" smooth="yes"/>
      <point x="750" y="466"/>
      <point x="735" y="457"/>
    </contour>
  </outline>
</glyph>
<glyph name="asciitilde" format="1">
  <advance width="1000"/>
  <unicode hex="007E"/>
  <outline>
    <contour>
      <point x="500" y="277" type="line"/>
      <point x="523" y="274" type="line" smooth="yes"/>
      <point x="636" y="257"/>
      <point x="657" y="250"/>
      <point x="760" y="286" type="curve" smooth="yes"/>
      <point x="778" y="293"/>
      <point x="797" y="304"/>
      <point x="797" y="339" type="curve" smooth="yes"/>
      <point x="797" y="438" type="line" smooth="yes"/>
      <point x="797" y="468"/>
      <point x="780" y="479"/>
      <point x="745" y="469" type="curve" smooth="yes"/>
      <point x="662" y="444"/>
      <point x="656" y="440"/>
      <point x="531" y="458" type="curve" smooth="yes"/>
      <point x="500" y="462" type="line"/>
      <point x="476" y="465" type="line" smooth="yes"/>
      <point x="362" y="482"/>
      <point x="343" y="489"/>
      <point x="240" y="453" type="curve" smooth="yes"/>
      <point x="220" y="446"/>
      <point x="203" y="435"/>
      <point x="203" y="400" type="curve" smooth="yes"/>
      <point x="203" y="294" type="line" smooth="yes"/>
      <point x="203" y="271"/>
      <point x="220" y="260"/>
      <point x="254" y="269" type="curve"/>
      <point x="329" y="292"/>
      <point x="352" y="298"/>
      <point x="460" y="282" type="curve"/>
    </contour>
  </outline>
</glyph>
<glyph name="exclamdown" format="1">
  <advance width="1000"/>
  <unicode hex="00A1"/>
  <outline>
    <contour>
      <point x="593" y="720" type="line" smooth="yes"/>
      <point x="618" y="720"/>
      <point x="629" y="709"/>
      <point x="629" y="684" type="curve" smooth="yes"/>
      <point x="629" y="553" type="line" smooth="yes"/>
      <point x="629" y="527"/>
      <point x="618" y="517"/>
      <point x="593" y="517" type="curve" smooth="yes"/>
      <point x="409" y="517" type="line" smooth="yes"/>
      <point x="384" y="517"/>
      <point x="373" y="527"/>
      <point x="373" y="553" type="curve"/>
      <point x="373" y="684" type="line"/>
      <point x="373" y="709"/>
      <point x="384" y="720"/>
      <point x="409" y="720" type="curve" smooth="yes"/>
    </contour>
    <contour>
      <point x="578" y="458" type="line" smooth="yes"/>
      <point x="603" y="458"/>
      <point x="615" y="447"/>
      <point x="616" y="422" type="curve" smooth="yes"/>
      <point x="630" y="36" type="line" smooth="yes"/>
      <point x="631" y="11"/>
      <point x="621" y="0"/>
      <point x="596" y="0" type="curve" smooth="yes"/>
      <point x="405" y="0" type="line" smooth="yes"/>
      <point x="380" y="0"/>
      <point x="370" y="11"/>
      <point x="371" y="36" type="curve" smooth="yes"/>
      <point x="386" y="422" type="line" smooth="yes"/>
      <point x="387" y="447"/>
      <point x="398" y="458"/>
      <point x="423" y="458" type="curve" smooth="yes"/>
    </contour>
  </outline>
</glyph>
<glyph name="cent" format="1">
  <advance width="1000"/>
  <unicode hex="00A2"/>
  <outline>
    <contour>
      <point x="734" y="40" type="line" smooth="yes"/>
      <point x="759" y="40"/>
      <point x="770" y="51"/>
      <point x="770" y="76" type="curve" smooth="yes"/>
      <point x="770" y="195" type="line" smooth="yes"/>
      <point x="770" y="220"/>
      <point x="759" y="231"/>
      <point x="734" y="231" type="curve" smooth="yes"/>
      <point x="533" y="231" type="line" smooth="yes"/>
      <point x="481" y="231"/>
      <point x="472" y="251"/>
      <point x="472" y="279" type="curve" smooth="yes"/>
      <point x="472" y="437" type="line" smooth="yes"/>
      <point x="472" y="463"/>
      <point x="481" y="487"/>
      <point x="533" y="487" type="curve" smooth="yes"/>
      <point x="734" y="487" type="line" smooth="yes"/>
      <point x="759" y="487"/>
      <point x="770" y="498"/>
      <point x="770" y="523" type="curve" smooth="yes"/>
      <point x="770" y="644" type="line" smooth="yes"/>
      <point x="770" y="669"/>
      <point x="759" y="680"/>
      <point x="734" y="680" type="curve" smooth="yes"/>
      <point x="490" y="680" type="line" smooth="yes"/>
      <point x="301" y="680"/>
      <point x="244" y="597"/>
      <point x="244" y="475" type="curve" smooth="yes"/>
      <point x="244" y="244" type="line" smooth="yes"/>
      <point x="244" y="123"/>
      <point x="301" y="40"/>
      <point x="490" y="40" type="curve" smooth="yes"/>
    </contour>
    <contour>
      <point x="440" y="123" type="line"/>
      <point x="440" y="-14" type="line" smooth="yes"/>
      <point x="440" y="-39"/>
      <point x="451" y="-50"/>
      <point x="476" y="-50" type="curve" smooth="yes"/>
      <point x="621" y="-50" type="line" smooth="yes"/>
      <point x="646" y="-50"/>
      <point x="657" y="-39"/>
      <point x="657" y="-14" type="curve" smooth="yes"/>
      <point x="657" y="123" type="line"/>
    </contour>
    <contour>
      <point x="657" y="582" type="line"/>
      <point x="657" y="734" type="line" smooth="yes"/>
      <point x="657" y="759"/>
      <point x="646" y="770"/>
      <point x="621" y="770" type="curve" smooth="yes"/>
      <point x="476" y="770" type="line" smooth="yes"/>
      <point x="451" y="770"/>
      <point x="440" y="759"/>
      <point x="440" y="734" type="curve" smooth="yes"/>
      <point x="440" y="582" type="line"/>
    </contour>
  </outline>
</glyph>
<glyph name="section" format="1">
  <advance width="1000"/>
  <unicode hex="00A7"/>
  <outline>
    <contour>
      <point x="657" y="205" type="line" smooth="yes"/>
      <point x="682" y="205"/>
      <point x="693" y="216"/>
      <point x="693" y="241" type="curve" smooth="yes"/>
      <point x="693" y="290" type="line" smooth="yes"/>
      <point x="693" y="315"/>
      <point x="682" y="326"/>
      <point x="657" y="326" type="curve" smooth="yes"/>
      <point x="506" y="326" type="line" smooth="yes"/>
      <point x="454" y="326"/>
      <point x="445" y="346"/>
      <point x="445" y="374" type="curve" smooth="yes"/>
      <point x="445" y="517" type="line" smooth="yes"/>
      <point x="445" y="543"/>
      <point x="454" y="567"/>
      <point x="506" y="567" type="curve" smooth="yes"/>
      <point x="713" y="567" type="line" smooth="yes"/>
      <point x="738" y="567"/>
      <point x="749" y="578"/>
      <point x="749" y="603" type="curve" smooth="yes"/>
      <point x="749" y="684" type="line" smooth="yes"/>
      <point x="749" y="709"/>
      <point x="738" y="720"/>
      <point x="713" y="720" type="curve" smooth="yes"/>
      <point x="473" y="720" type="line" smooth="yes"/>
      <point x="284" y="720"/>
      <point x="227" y="637"/>
      <point x="227" y="515" type="curve" smooth="yes"/>
      <point x="227" y="409" type="line" smooth="yes"/>
      <point x="227" y="288"/>
      <point x="284" y="205"/>
      <point x="473" y="205" type="curve" smooth="yes"/>
    </contour>
    <contour>
      <point x="355" y="515" type="line" smooth="yes"/>
      <point x="330" y="515"/>
      <point x="319" y="504"/>
      <point x="319" y="479" type="curve" smooth="yes"/>
      <point x="319" y="430" type="line" smooth="yes"/>
      <point x="319" y="405"/>
      <point x="330" y="394"/>
      <point x="355" y="394" type="curve" smooth="yes"/>
      <point x="506" y="394" type="line" smooth="yes"/>
      <point x="558" y="394"/>
      <point x="567" y="374"/>
      <point x="567" y="346" type="curve" smooth="yes"/>
      <point x="567" y="203" type="line" smooth="yes"/>
      <point x="567" y="177"/>
      <point x="558" y="153"/>
      <point x="506" y="153" type="curve" smooth="yes"/>
      <point x="273" y="153" type="line" smooth="yes"/>
      <point x="248" y="153"/>
      <point x="237" y="142"/>
      <point x="237" y="117" type="curve" smooth="yes"/>
      <point x="237" y="36" type="line" smooth="yes"/>
      <point x="237" y="11"/>
      <point x="248" y="0"/>
      <point x="273" y="0" type="curve" smooth="yes"/>
      <point x="539" y="0" type="line" smooth="yes"/>
      <point x="728" y="0"/>
      <point x="785" y="83"/>
      <point x="785" y="205" type="curve" smooth="yes"/>
      <point x="785" y="311" type="line" smooth="yes"/>
      <point x="785" y="432"/>
      <point x="728" y="515"/>
      <point x="539" y="515" type="curve" smooth="yes"/>
    </contour>
  </outline>
</glyph>
<glyph name="dieresis" format="1">
  <advance width="500"/>
  <unicode hex="00A8"/>
  <outline>
    <contour>
      <point x="188" y="760" type="line" smooth="yes"/>
      <point x="211" y="760"/>
      <point x="221" y="770"/>
      <point x="221" y="793" type="curve" smooth="yes"/>
      <point x="221" y="914" type="line" smooth="yes"/>
      <point x="221" y="937"/>
      <point x="211" y="947"/>
      <point x="188" y="947" type="curve" smooth="yes"/>
      <point x="50" y="947" type="line" smooth="yes"/>
      <point x="27" y="947"/>
      <point x="16" y="937"/>
      <point x="16" y="914" type="curve" smooth="yes"/>
      <point x="16" y="793" type="line" smooth="yes"/>
      <point x="16" y="770"/>
      <point x="27" y="760"/>
      <point x="50" y="760" type="curve" smooth="yes"/>
    </contour>
    <contour>
      <point x="446" y="760" type="line" smooth="yes"/>
      <point x="469" y="760"/>
      <point x="479" y="770"/>
      <point x="479" y="793" type="curve" smooth="yes"/>
      <point x="479" y="914" type="line" smooth="yes"/>
      <point x="479" y="937"/>
      <point x="469" y="947"/>
      <point x="446" y="947" type="curve" smooth="yes"/>
      <point x="308" y="947" type="line" smooth="yes"/>
      <point x="285" y="947"/>
      <point x="275" y="937"/>
      <point x="275" y="914" type="curve" smooth="yes"/>
      <point x="275" y="793" type="line" smooth="yes"/>
      <point x="275" y="770"/>
      <point x="285" y="760"/>
      <point x="308" y="760" type="curve" smooth="yes"/>
    </contour>
    <contour>
      <point x="250.0" y="747.0" type="move" name="_top"/>
    </contour>
    <contour>
      <point x="250.0" y="0.0" type="move" name="_bottom"/>
    </contour>
  </outline>
</glyph>
<glyph name="logicalnot" format="1">
  <advance width="1000"/>
  <unicode hex="00AC"/>
  <outline>
    <contour>
      <point x="761" y="63" type="line" smooth="yes"/>
      <point x="787" y="63"/>
      <point x="797" y="74"/>
      <point x="797" y="99" type="curve" smooth="yes"/>
      <point x="797" y="457" type="line" smooth="yes"/>
      <point x="797" y="483"/>
      <point x="786" y="493"/>
      <point x="761" y="493" type="curve" smooth="yes"/>
      <point x="239" y="493" type="line" smooth="yes"/>
      <point x="214" y="493"/>
      <point x="203" y="482"/>
      <point x="203" y="457" type="curve" smooth="yes"/>
      <point x="203" y="343" type="line" smooth="yes"/>
      <point x="203" y="317"/>
      <point x="214" y="307"/>
      <point x="239" y="307" type="curve"/>
      <point x="601" y="307" type="line"/>
      <point x="601" y="99" type="line" smooth="yes"/>
      <point x="601" y="74"/>
      <point x="611" y="63"/>
      <point x="637" y="63" type="curve" smooth="yes"/>
    </contour>
  </outline>
</glyph>
<glyph name="registered" format="1">
  <advance width="1000"/>
  <unicode hex="00AE"/>
  <outline>
    <contour>
      <point x="454.0" y="326.0" type="line" smooth="yes"/>
      <point x="464.0" y="326.0"/>
      <point x="468.0" y="331.0"/>
      <point x="468.0" y="341.0" type="curve" smooth="yes"/>
      <point x="468.0" y="424.0" type="line"/>
      <point x="526.0" y="424.0" type="line" smooth="yes"/>
      <point x="537.0" y="424.0"/>
      <point x="541.0" y="419.0"/>
      <point x="541.0" y="407.0" type="curve" smooth="yes"/>
      <point x="541.0" y="341.0" type="line" smooth="yes"/>
      <point x="541.0" y="331.0"/>
      <point x="546.0" y="326.0"/>
      <point x="556.0" y="326.0" type="curve" smooth="yes"/>
      <point x="620.0" y="326.0" type="line" smooth="yes"/>
      <point x="630.0" y="326.0"/>
      <point x="634.0" y="331.0"/>
      <point x="634.0" y="341.0" type="curve" smooth="yes"/>
      <point x="634.0" y="428.0" type="line" smooth="yes"/>
      <point x="634.0" y="462.0"/>
      <point x="614.0" y="484.0"/>
      <point x="584.0" y="488.0" type="curve"/>
      <point x="602.0" y="495.0"/>
      <point x="608.0" y="511.0"/>
      <point x="608.0" y="534.0" type="curve" smooth="yes"/>
      <point x="608.0" y="553.0" type="line" smooth="yes"/>
      <point x="608.0" y="594.0"/>
      <point x="589.0" y="621.0"/>
      <point x="527.0" y="621.0" type="curve" smooth="yes"/>
      <point x="391.0" y="621.0" type="line" smooth="yes"/>
      <point x="380.0" y="621.0"/>
      <point x="376.0" y="617.0"/>
      <point x="376.0" y="606.0" type="curve"/>
      <point x="376.0" y="341.0" type="line"/>
      <point x="376.0" y="331.0"/>
      <point x="380.0" y="326.0"/>
      <point x="391.0" y="326.0" type="curve" smooth="yes"/>
    </contour>
    <contour>
      <point x="468.0" y="548.0" type="line"/>
      <point x="499.0" y="548.0" type="line" smooth="yes"/>
      <point x="514.0" y="548.0"/>
      <point x="517.0" y="539.0"/>
      <point x="517.0" y="528.0" type="curve" smooth="yes"/>
      <point x="517.0" y="515.0" type="line" smooth="yes"/>
      <point x="517.0" y="503.0"/>
      <point x="514.0" y="495.0"/>
      <point x="499.0" y="495.0" type="curve" smooth="yes"/>
      <point x="468.0" y="495.0" type="line"/>
    </contour>
    <contour>
      <point x="724.0" y="345.0" type="curve" smooth="yes"/>
      <point x="724.0" y="591.0" type="line" smooth="yes"/>
      <point x="724.0" y="680.0"/>
      <point x="681.0" y="740.0"/>
      <point x="500.0" y="740.0" type="curve" smooth="yes"/>
      <point x="320.0" y="740.0"/>
      <point x="276.0" y="680.0"/>
      <point x="276.0" y="591.0" type="curve" smooth="yes"/>
      <point x="276.0" y="345.0" type="line" smooth="yes"/>
      <point x="276.0" y="258.0"/>
      <point x="320.0" y="198.0"/>
      <point x="500.0" y="198.0" type="curve" smooth="yes"/>
      <point x="681.0" y="198.0"/>
      <point x="724.0" y="258.0"/>
    </contour>
    <contour>
      <point x="664.0" y="343.0" type="line"/>
      <point x="664.0" y="291.0"/>
      <point x="632.0" y="256.0"/>
      <point x="500.0" y="256.0" type="curve" smooth="yes"/>
      <point x="368.0" y="256.0"/>
      <point x="336.0" y="291.0"/>
      <point x="336.0" y="343.0" type="curve"/>
      <point x="336.0" y="594.0" type="line"/>
      <point x="336.0" y="646.0"/>
      <point x="368.0" y="682.0"/>
      <point x="500.0" y="682.0" type="curve" smooth="yes"/>
      <point x="632.0" y="682.0"/>
      <point x="664.0" y="646.0"/>
      <point x="664.0" y="594.0" type="curve"/>
    </contour>
  </outline>
</glyph>
<glyph name="degree" format="1">
  <advance width="1000"/>
  <unicode hex="00B0"/>
  <outline>
    <contour>
      <point x="696" y="425" type="curve"/>
      <point x="696" y="609" type="line" smooth="yes"/>
      <point x="696" y="678"/>
      <point x="658" y="725"/>
      <point x="500" y="725" type="curve" smooth="yes"/>
      <point x="342" y="725"/>
      <point x="303" y="678"/>
      <point x="303" y="609" type="curve" smooth="yes"/>
      <point x="303" y="425" type="line" smooth="yes"/>
      <point x="303" y="356"/>
      <point x="342" y="309"/>
      <point x="500" y="309" type="curve" smooth="yes"/>
      <point x="658" y="309"/>
      <point x="696" y="356"/>
    </contour>
    <contour>
      <point x="450" y="474" type="curve"/>
      <point x="450" y="559" type="line" smooth="yes"/>
      <point x="450" y="574"/>
      <point x="458" y="587"/>
      <point x="500" y="587" type="curve" smooth="yes"/>
      <point x="544" y="587"/>
      <point x="550" y="574"/>
      <point x="550" y="559" type="curve" smooth="yes"/>
      <point x="550" y="474" type="line" smooth="yes"/>
      <point x="550" y="458"/>
      <point x="542" y="447"/>
      <point x="500" y="447" type="curve" smooth="yes"/>
      <point x="458" y="447"/>
      <point x="450" y="458"/>
    </contour>
  </outline>
</glyph>
<glyph name="mu" format="1">
  <advance width="1000"/>
  <unicode hex="00B5"/>
  <unicode hex="03BC"/>
  <outline>
    <contour>
      <point x="800" y="189" type="curve" smooth="yes"/>
      <point x="800" y="534" type="line" smooth="yes"/>
      <point x="800" y="559"/>
      <point x="789" y="570"/>
      <point x="764" y="570" type="curve" smooth="yes"/>
      <point x="612" y="570" type="line" smooth="yes"/>
      <point x="586" y="570"/>
      <point x="576" y="559"/>
      <point x="576" y="534" type="curve" smooth="yes"/>
      <point x="576" y="218" type="line" smooth="yes"/>
      <point x="576" y="191"/>
      <point x="565" y="171"/>
      <point x="503" y="171" type="curve" smooth="yes"/>
      <point x="442" y="171"/>
      <point x="431" y="191"/>
      <point x="431" y="218" type="curve" smooth="yes"/>
      <point x="431" y="534" type="line"/>
      <point x="282" y="534" type="line"/>
      <point x="282" y="189" type="line" smooth="yes"/>
      <point x="282" y="67"/>
      <point x="329" y="-15"/>
      <point x="521" y="-15" type="curve" smooth="yes"/>
      <point x="745" y="-15"/>
      <point x="800" y="67"/>
    </contour>
    <contour>
      <point x="395" y="-90" type="line" smooth="yes"/>
      <point x="420" y="-90"/>
      <point x="431" y="-79"/>
      <point x="431" y="-54" type="curve" smooth="yes"/>
      <point x="431" y="534" type="line" smooth="yes"/>
      <point x="431" y="559"/>
      <point x="420" y="570"/>
      <point x="395" y="570" type="curve" smooth="yes"/>
      <point x="240" y="570" type="line" smooth="yes"/>
      <point x="215" y="570"/>
      <point x="204" y="559"/>
      <point x="204" y="534" type="curve" smooth="yes"/>
      <point x="204" y="-54" type="line" smooth="yes"/>
      <point x="204" y="-79"/>
      <point x="215" y="-90"/>
      <point x="240" y="-90" type="curve" smooth="yes"/>
    </contour>
  </outline>
</glyph>
<glyph name="paragraph" format="1">
  <advance width="1000"/>
  <unicode hex="00B6"/>
  <outline>
    <contour>
      <point x="621" y="0" type="line" smooth="yes"/>
      <point x="596" y="0"/>
      <point x="585" y="11"/>
      <point x="585" y="36" type="curve" smooth="yes"/>
      <point x="585" y="202" type="line"/>
      <point x="430" y="202" type="line" smooth="yes"/>
      <point x="248" y="202"/>
      <point x="194" y="281"/>
      <point x="194" y="397" type="curve" smooth="yes"/>
      <point x="194" y="525" type="line" smooth="yes"/>
      <point x="194" y="641"/>
      <point x="248" y="720"/>
      <point x="430" y="720" type="curve" smooth="yes"/>
      <point x="736" y="720" type="line" smooth="yes"/>
      <point x="761" y="720"/>
      <point x="772" y="709"/>
      <point x="772" y="684" type="curve" smooth="yes"/>
      <point x="772" y="36" type="line" smooth="yes"/>
      <point x="772" y="11"/>
      <point x="761" y="0"/>
      <point x="736" y="0" type="curve" smooth="yes"/>
    </contour>
    <contour>
      <point x="534" y="282" type="line"/>
      <point x="534" y="36" type="line" smooth="yes"/>
      <point x="534" y="11"/>
      <point x="523" y="0"/>
      <point x="498" y="0" type="curve" smooth="yes"/>
      <point x="383" y="0" type="line" smooth="yes"/>
      <point x="358" y="0"/>
      <point x="347" y="11"/>
      <point x="347" y="36" type="curve" smooth="yes"/>
      <point x="347" y="282" type="line"/>
    </contour>
  </outline>
</glyph>
<glyph name="periodcentered" format="1">
  <advance width="1000"/>
  <unicode hex="00B7"/>
  <unicode hex="2219"/>
  <outline>
    <contour>
      <point x="601.0" y="220.0" type="line" smooth="yes"/>
      <point x="626.0" y="220.0"/>
      <point x="637.0" y="231.0"/>
      <point x="637.0" y="256.0" type="curve" smooth="yes"/>
      <point x="637.0" y="459.0" type="line" smooth="yes"/>
      <point x="637.0" y="485.0"/>
      <point x="626.0" y="495.0"/>
      <point x="601.0" y="495.0" type="curve" smooth="yes"/>
      <point x="399.0" y="495.0" type="line" smooth="yes"/>
      <point x="374.0" y="495.0"/>
      <point x="363.0" y="485.0"/>
      <point x="363.0" y="459.0" type="curve"/>
      <point x="363.0" y="256.0" type="line"/>
      <point x="363.0" y="231.0"/>
      <point x="374.0" y="220.0"/>
      <point x="399.0" y="220.0" type="curve" smooth="yes"/>
    </contour>
  </outline>
</glyph>
<glyph name="ordmasculine" format="1">
  <advance width="1000"/>
  <unicode hex="00BA"/>
  <outline>
    <contour>
      <point x="723" y="340" type="curve"/>
      <point x="723" y="581" type="line"/>
      <point x="723" y="670"/>
      <point x="680" y="730"/>
      <point x="500" y="730" type="curve" smooth="yes"/>
      <point x="320" y="730"/>
      <point x="276" y="670"/>
      <point x="276" y="581" type="curve"/>
      <point x="276" y="340" type="line"/>
      <point x="276" y="252"/>
      <point x="320" y="192"/>
      <point x="500" y="192" type="curve" smooth="yes"/>
      <point x="680" y="192"/>
      <point x="723" y="252"/>
    </contour>
    <contour>
      <point x="445" y="365" type="curve"/>
      <point x="445" y="555" type="line"/>
      <point x="445" y="571"/>
      <point x="453" y="584"/>
      <point x="500" y="584" type="curve" smooth="yes"/>
      <point x="548" y="584"/>
      <point x="555" y="571"/>
      <point x="555" y="555" type="curve"/>
      <point x="555" y="365" type="line"/>
      <point x="555" y="349"/>
      <point x="548" y="337"/>
      <point x="500" y="337" type="curve" smooth="yes"/>
      <point x="453" y="337"/>
      <point x="445" y="349"/>
    </contour>
    <contour>
      <point x="312" y="0" type="curve"/>
      <point x="687" y="0" type="line" smooth="yes"/>
      <point x="712" y="0"/>
      <point x="723" y="10"/>
      <point x="723" y="36" type="curve" smooth="yes"/>
      <point x="723" y="103" type="line" smooth="yes"/>
      <point x="723" y="129"/>
      <point x="712" y="139"/>
      <point x="687" y="139" type="curve" smooth="yes"/>
      <point x="312" y="139" type="line" smooth="yes"/>
      <point x="287" y="139"/>
      <point x="276" y="128"/>
      <point x="276" y="103" type="curve" smooth="yes"/>
      <point x="276" y="36" type="line" smooth="yes"/>
      <point x="276" y="10"/>
      <point x="287" y="0"/>
    </contour>
    <contour>
      <point x="265.0" y="745.0" type="move" name="top"/>
    </contour>
    <contour>
      <point x="265.0" y="207.0" type="move" name="bottom"/>
    </contour>
  </outline>
</glyph>
<glyph name="questiondown" format="1">
  <advance width="1000"/>
  <unicode hex="00BF"/>
  <outline>
    <contour>
      <point x="372.0" y="447.0" type="line" smooth="yes"/>
      <point x="277.0" y="434.0"/>
      <point x="217.0" y="393.0"/>
      <point x="217.0" y="281.0" type="curve" smooth="yes"/>
      <point x="217.0" y="176.0" type="line" smooth="yes"/>
      <point x="217.0" y="62.0"/>
      <point x="294.0" y="0.0"/>
      <point x="424.0" y="0.0" type="curve" smooth="yes"/>
      <point x="747.0" y="0.0" type="line" smooth="yes"/>
      <point x="772.0" y="0.0"/>
      <point x="783.0" y="11.0"/>
      <point x="783.0" y="36.0" type="curve"/>
      <point x="783.0" y="157.0" type="line" smooth="yes"/>
      <point x="783.0" y="183.0"/>
      <point x="772.0" y="193.0"/>
      <point x="747.0" y="193.0" type="curve" smooth="yes"/>
      <point x="471.0" y="193.0" type="line" smooth="yes"/>
      <point x="454.0" y="193.0"/>
      <point x="444.0" y="202.0"/>
      <point x="444.0" y="221.0" type="curve" smooth="yes"/>
      <point x="444.0" y="241.0"/>
      <point x="451.0" y="249.0"/>
      <point x="471.0" y="252.0" type="curve" smooth="yes"/>
      <point x="670.0" y="280.0" type="line" smooth="yes"/>
      <point x="695.0" y="283.0"/>
      <point x="707.0" y="295.0"/>
      <point x="703.0" y="321.0" type="curve" smooth="yes"/>
      <point x="682.0" y="453.0" type="line" smooth="yes"/>
      <point x="678.0" y="478.0"/>
      <point x="668.0" y="487.0"/>
      <point x="643.0" y="484.0" type="curve" smooth="yes"/>
    </contour>
    <contour>
      <point x="484.0" y="720.0" type="line" smooth="yes"/>
      <point x="459.0" y="720.0"/>
      <point x="448.0" y="709.0"/>
      <point x="448.0" y="684.0" type="curve" smooth="yes"/>
      <point x="448.0" y="553.0" type="line" smooth="yes"/>
      <point x="448.0" y="527.0"/>
      <point x="459.0" y="517.0"/>
      <point x="484.0" y="517.0" type="curve" smooth="yes"/>
      <point x="667.0" y="517.0" type="line" smooth="yes"/>
      <point x="693.0" y="517.0"/>
      <point x="703.0" y="527.0"/>
      <point x="703.0" y="553.0" type="curve" smooth="yes"/>
      <point x="703.0" y="684.0" type="line" smooth="yes"/>
      <point x="703.0" y="709.0"/>
      <point x="693.0" y="720.0"/>
      <point x="667.0" y="720.0" type="curve" smooth="yes"/>
    </contour>
  </outline>
</glyph>
<glyph name="Acircumflex" format="1">
  <advance width="1000"/>
  <unicode hex="00C2"/>
  <outline>
    <contour>
      <point x="469" y="757" type="line"/>
      <point x="492" y="763"/>
      <point x="508" y="763"/>
      <point x="531" y="757" type="curve"/>
      <point x="668" y="717" type="line" smooth="yes"/>
      <point x="703" y="706"/>
      <point x="710" y="712"/>
      <point x="710" y="748" type="curve" smooth="yes"/>
      <point x="710" y="829" type="line" smooth="yes"/>
      <point x="710" y="865"/>
      <point x="702" y="869"/>
      <point x="668" y="882" type="curve" smooth="yes"/>
      <point x="531" y="932" type="line" smooth="yes"/>
      <point x="521" y="936"/>
      <point x="511" y="937"/>
      <point x="499" y="937" type="curve" smooth="yes"/>
      <point x="487" y="936"/>
      <point x="472" y="933"/>
      <point x="460" y="928" type="curve" smooth="yes"/>
      <point x="332" y="882" type="line" smooth="yes"/>
      <point x="300" y="869"/>
      <point x="291" y="865"/>
      <point x="291" y="829" type="curve" smooth="yes"/>
      <point x="291" y="748" type="line" smooth="yes"/>
      <point x="291" y="712"/>
      <point x="298" y="706"/>
      <point x="332" y="717" type="curve" smooth="yes"/>
    </contour>
    <contour>
      <point x="368" y="680" type="line" smooth="yes"/>
      <point x="342" y="680"/>
      <point x="326" y="672"/>
      <point x="317" y="647" type="curve" smooth="yes"/>
      <point x="240" y="440" type="line" smooth="yes"/>
      <point x="211" y="364"/>
      <point x="201" y="349"/>
      <point x="201" y="280" type="curve" smooth="yes"/>
      <point x="201" y="36" type="line" smooth="yes"/>
      <point x="201" y="11"/>
      <point x="211" y="0"/>
      <point x="237" y="0" type="curve" smooth="yes"/>
      <point x="384" y="0" type="line" smooth="yes"/>
      <point x="409" y="0"/>
      <point x="420" y="11"/>
      <point x="420" y="36" type="curve" smooth="yes"/>
      <point x="420" y="291" type="line" smooth="yes"/>
      <point x="420" y="305"/>
      <point x="422" y="317"/>
      <point x="428" y="332" type="curve"/>
      <point x="477" y="470" type="line"/>
      <point x="483" y="483"/>
      <point x="485" y="487"/>
      <point x="496" y="487" type="curve" smooth="yes"/>
      <point x="501" y="487" type="line" smooth="yes"/>
      <point x="512" y="487"/>
      <point x="514" y="483"/>
      <point x="520" y="470" type="curve"/>
      <point x="569" y="333" type="line"/>
      <point x="575" y="318"/>
      <point x="577" y="306"/>
      <point x="577" y="292" type="curve" smooth="yes"/>
      <point x="577" y="36" type="line" smooth="yes"/>
      <point x="577" y="11"/>
      <point x="591" y="0"/>
      <point x="616" y="0" type="curve" smooth="yes"/>
      <point x="767" y="0" type="line" smooth="yes"/>
      <point x="792" y="0"/>
      <point x="803" y="11"/>
      <point x="803" y="36" type="curve" smooth="yes"/>
      <point x="803" y="280" type="line" smooth="yes"/>
      <point x="803" y="349"/>
      <point x="793" y="364"/>
      <point x="764" y="440" type="curve" smooth="yes"/>
      <point x="677" y="647" type="line" smooth="yes"/>
      <point x="668" y="672"/>
      <point x="653" y="680"/>
      <point x="627" y="680" type="curve" smooth="yes"/>
    </contour>
    <contour>
      <point x="618" y="156" type="line"/>
      <point x="618" y="338" type="line"/>
      <point x="379" y="338" type="line"/>
      <point x="379" y="156" type="line"/>
    </contour>
  </outline>
</glyph>
<glyph name="Atilde" format="1">
  <advance width="1000"/>
  <unicode hex="00C3"/>
  <outline>
    <contour>
      <point x="368" y="680" type="line" smooth="yes"/>
      <point x="342" y="680"/>
      <point x="326" y="672"/>
      <point x="317" y="647" type="curve" smooth="yes"/>
      <point x="240" y="440" type="line" smooth="yes"/>
      <point x="211" y="364"/>
      <point x="201" y="349"/>
      <point x="201" y="280" type="curve" smooth="yes"/>
      <point x="201" y="36" type="line" smooth="yes"/>
      <point x="201" y="11"/>
      <point x="211" y="0"/>
      <point x="237" y="0" type="curve" smooth="yes"/>
      <point x="384" y="0" type="line" smooth="yes"/>
      <point x="409" y="0"/>
      <point x="420" y="11"/>
      <point x="420" y="36" type="curve" smooth="yes"/>
      <point x="420" y="291" type="line" smooth="yes"/>
      <point x="420" y="305"/>
      <point x="422" y="317"/>
      <point x="428" y="332" type="curve"/>
      <point x="477" y="470" type="line"/>
      <point x="483" y="483"/>
      <point x="485" y="487"/>
      <point x="496" y="487" type="curve" smooth="yes"/>
      <point x="501" y="487" type="line" smooth="yes"/>
      <point x="512" y="487"/>
      <point x="514" y="483"/>
      <point x="520" y="470" type="curve"/>
      <point x="569" y="333" type="line"/>
      <point x="575" y="318"/>
      <point x="577" y="306"/>
      <point x="577" y="292" type="curve" smooth="yes"/>
      <point x="577" y="36" type="line" smooth="yes"/>
      <point x="577" y="11"/>
      <point x="591" y="0"/>
      <point x="616" y="0" type="curve" smooth="yes"/>
      <point x="767" y="0" type="line" smooth="yes"/>
      <point x="792" y="0"/>
      <point x="803" y="11"/>
      <point x="803" y="36" type="curve" smooth="yes"/>
      <point x="803" y="280" type="line" smooth="yes"/>
      <point x="803" y="349"/>
      <point x="793" y="364"/>
      <point x="764" y="440" type="curve" smooth="yes"/>
      <point x="677" y="647" type="line" smooth="yes"/>
      <point x="668" y="672"/>
      <point x="653" y="680"/>
      <point x="627" y="680" type="curve" smooth="yes"/>
    </contour>
    <contour>
      <point x="618" y="156" type="line"/>
      <point x="618" y="338" type="line"/>
      <point x="379" y="338" type="line"/>
      <point x="379" y="156" type="line"/>
    </contour>
    <contour>
      <point x="500" y="724" type="line"/>
      <point x="516" y="722" type="line" smooth="yes"/>
      <point x="596" y="710"/>
      <point x="610" y="708"/>
      <point x="673" y="727" type="curve"/>
      <point x="696" y="736"/>
      <point x="709" y="743"/>
      <point x="709" y="768" type="curve" smooth="yes"/>
      <point x="709" y="869" type="line" smooth="yes"/>
      <point x="709" y="894"/>
      <point x="697" y="902"/>
      <point x="673" y="895" type="curve" smooth="yes"/>
      <point x="614" y="877"/>
      <point x="610" y="874"/>
      <point x="522" y="887" type="curve" smooth="yes"/>
      <point x="500" y="890" type="line"/>
      <point x="483" y="892" type="line" smooth="yes"/>
      <point x="403" y="904"/>
      <point x="390" y="906"/>
      <point x="327" y="887" type="curve"/>
      <point x="304" y="878"/>
      <point x="291" y="871"/>
      <point x="291" y="846" type="curve" smooth="yes"/>
      <point x="291" y="745" type="line" smooth="yes"/>
      <point x="291" y="720"/>
      <point x="303" y="712"/>
      <point x="327" y="719" type="curve" smooth="yes"/>
      <point x="380" y="735"/>
      <point x="396" y="739"/>
      <point x="472" y="728" type="curve" smooth="yes"/>
    </contour>
  </outline>
</glyph>
<glyph name="Adieresis" format="1">
  <advance width="1000"/>
  <unicode hex="00C4"/>
  <outline>
    <contour>
      <point x="439" y="720" type="line" smooth="yes"/>
      <point x="462" y="720"/>
      <point x="472" y="730"/>
      <point x="472" y="753" type="curve" smooth="yes"/>
      <point x="472" y="874" type="line" smooth="yes"/>
      <point x="472" y="897"/>
      <point x="462" y="907"/>
      <point x="439" y="907" type="curve" smooth="yes"/>
      <point x="301" y="907" type="line" smooth="yes"/>
      <point x="278" y="907"/>
      <point x="267" y="897"/>
      <point x="267" y="874" type="curve" smooth="yes"/>
      <point x="267" y="753" type="line" smooth="yes"/>
      <point x="267" y="730"/>
      <point x="278" y="720"/>
      <point x="301" y="720" type="curve" smooth="yes"/>
    </contour>
    <contour>
      <point x="697" y="720" type="line" smooth="yes"/>
      <point x="720" y="720"/>
      <point x="730" y="730"/>
      <point x="730" y="753" type="curve" smooth="yes"/>
      <point x="730" y="874" type="line" smooth="yes"/>
      <point x="730" y="897"/>
      <point x="720" y="907"/>
      <point x="697" y="907" type="curve" smooth="yes"/>
      <point x="559" y="907" type="line" smooth="yes"/>
      <point x="536" y="907"/>
      <point x="526" y="897"/>
      <point x="526" y="874" type="curve" smooth="yes"/>
      <point x="526" y="753" type="line" smooth="yes"/>
      <point x="526" y="730"/>
      <point x="536" y="720"/>
      <point x="559" y="720" type="curve" smooth="yes"/>
    </contour>
    <contour>
      <point x="368" y="680" type="line" smooth="yes"/>
      <point x="342" y="680"/>
      <point x="326" y="672"/>
      <point x="317" y="647" type="curve" smooth="yes"/>
      <point x="240" y="440" type="line" smooth="yes"/>
      <point x="211" y="364"/>
      <point x="201" y="349"/>
      <point x="201" y="280" type="curve" smooth="yes"/>
      <point x="201" y="36" type="line" smooth="yes"/>
      <point x="201" y="11"/>
      <point x="211" y="0"/>
      <point x="237" y="0" type="curve" smooth="yes"/>
      <point x="384" y="0" type="line" smooth="yes"/>
      <point x="409" y="0"/>
      <point x="420" y="11"/>
      <point x="420" y="36" type="curve" smooth="yes"/>
      <point x="420" y="291" type="line" smooth="yes"/>
      <point x="420" y="305"/>
      <point x="422" y="317"/>
      <point x="428" y="332" type="curve"/>
      <point x="477" y="470" type="line"/>
      <point x="483" y="483"/>
      <point x="485" y="487"/>
      <point x="496" y="487" type="curve" smooth="yes"/>
      <point x="501" y="487" type="line" smooth="yes"/>
      <point x="512" y="487"/>
      <point x="514" y="483"/>
      <point x="520" y="470" type="curve"/>
      <point x="569" y="333" type="line"/>
      <point x="575" y="318"/>
      <point x="577" y="306"/>
      <point x="577" y="292" type="curve" smooth="yes"/>
      <point x="577" y="36" type="line" smooth="yes"/>
      <point x="577" y="11"/>
      <point x="591" y="0"/>
      <point x="616" y="0" type="curve" smooth="yes"/>
      <point x="767" y="0" type="line" smooth="yes"/>
      <point x="792" y="0"/>
      <point x="803" y="11"/>
      <point x="803" y="36" type="curve" smooth="yes"/>
      <point x="803" y="280" type="line" smooth="yes"/>
      <point x="803" y="349"/>
      <point x="793" y="364"/>
      <point x="764" y="440" type="curve" smooth="yes"/>
      <point x="677" y="647" type="line" smooth="yes"/>
      <point x="668" y="672"/>
      <point x="653" y="680"/>
      <point x="627" y="680" type="curve" smooth="yes"/>
    </contour>
    <contour>
      <point x="618" y="156" type="line"/>
      <point x="618" y="338" type="line"/>
      <point x="379" y="338" type="line"/>
      <point x="379" y="156" type="line"/>
    </contour>
  </outline>
</glyph>
<glyph name="Egrave" format="1">
  <advance width="1000"/>
  <unicode hex="00C8"/>
  <outline>
    <contour>
      <point x="754" y="0" type="line" smooth="yes"/>
      <point x="779" y="0"/>
      <point x="790" y="11"/>
      <point x="790" y="36" type="curve" smooth="yes"/>
      <point x="790" y="149" type="line" smooth="yes"/>
      <point x="790" y="174"/>
      <point x="779" y="185"/>
      <point x="754" y="185" type="curve" smooth="yes"/>
      <point x="424" y="185" type="line"/>
      <point x="424" y="261" type="line"/>
      <point x="673" y="261" type="line" smooth="yes"/>
      <point x="698" y="261"/>
      <point x="709" y="272"/>
      <point x="709" y="297" type="curve" smooth="yes"/>
      <point x="709" y="392" type="line" smooth="yes"/>
      <point x="709" y="418"/>
      <point x="698" y="428"/>
      <point x="673" y="428" type="curve" smooth="yes"/>
      <point x="424" y="428" type="line"/>
      <point x="424" y="495" type="line"/>
      <point x="754" y="495" type="line" smooth="yes"/>
      <point x="779" y="495"/>
      <point x="790" y="506"/>
      <point x="790" y="531" type="curve" smooth="yes"/>
      <point x="790" y="644" type="line" smooth="yes"/>
      <point x="790" y="669"/>
      <point x="779" y="680"/>
      <point x="754" y="680" type="curve" smooth="yes"/>
      <point x="236" y="680" type="line" smooth="yes"/>
      <point x="211" y="680"/>
      <point x="200" y="669"/>
      <point x="200" y="644" type="curve" smooth="yes"/>
      <point x="200" y="36" type="line" smooth="yes"/>
      <point x="200" y="11"/>
      <point x="211" y="0"/>
      <point x="236" y="0" type="curve" smooth="yes"/>
    </contour>
    <contour>
      <point x="675" y="713" type="line" smooth="yes"/>
      <point x="698" y="710"/>
      <point x="709" y="723"/>
      <point x="709" y="746" type="curve" smooth="yes"/>
      <point x="709" y="842" type="line" smooth="yes"/>
      <point x="709" y="867"/>
      <point x="698" y="875"/>
      <point x="673" y="878" type="curve" smooth="yes"/>
      <point x="324" y="921" type="line" smooth="yes"/>
      <point x="301" y="924"/>
      <point x="290" y="911"/>
      <point x="290" y="888" type="curve" smooth="yes"/>
      <point x="290" y="792" type="line" smooth="yes"/>
      <point x="290" y="767"/>
      <point x="301" y="759"/>
      <point x="326" y="756" type="curve" smooth="yes"/>
    </contour>
  </outline>
</glyph>
<glyph name="Ecircumflex" format="1">
  <advance width="1000"/>
  <unicode hex="00CA"/>
  <outline>
    <contour>
      <point x="468" y="757" type="line"/>
      <point x="491" y="763"/>
      <point x="507" y="763"/>
      <point x="530" y="757" type="curve"/>
      <point x="667" y="717" type="line" smooth="yes"/>
      <point x="702" y="706"/>
      <point x="709" y="712"/>
      <point x="709" y="748" type="curve" smooth="yes"/>
      <point x="709" y="829" type="line" smooth="yes"/>
      <point x="709" y="865"/>
      <point x="701" y="869"/>
      <point x="667" y="882" type="curve" smooth="yes"/>
      <point x="530" y="932" type="line" smooth="yes"/>
      <point x="520" y="936"/>
      <point x="510" y="937"/>
      <point x="498" y="937" type="curve" smooth="yes"/>
      <point x="486" y="936"/>
      <point x="471" y="933"/>
      <point x="459" y="928" type="curve" smooth="yes"/>
      <point x="331" y="882" type="line" smooth="yes"/>
      <point x="299" y="869"/>
      <point x="290" y="865"/>
      <point x="290" y="829" type="curve" smooth="yes"/>
      <point x="290" y="748" type="line" smooth="yes"/>
      <point x="290" y="712"/>
      <point x="297" y="706"/>
      <point x="331" y="717" type="curve" smooth="yes"/>
    </contour>
    <contour>
      <point x="754" y="0" type="line" smooth="yes"/>
      <point x="779" y="0"/>
      <point x="790" y="11"/>
      <point x="790" y="36" type="curve" smooth="yes"/>
      <point x="790" y="149" type="line" smooth="yes"/>
      <point x="790" y="174"/>
      <point x="779" y="185"/>
      <point x="754" y="185" type="curve" smooth="yes"/>
      <point x="424" y="185" type="line"/>
      <point x="424" y="261" type="line"/>
      <point x="673" y="261" type="line" smooth="yes"/>
      <point x="698" y="261"/>
      <point x="709" y="272"/>
      <point x="709" y="297" type="curve" smooth="yes"/>
      <point x="709" y="392" type="line" smooth="yes"/>
      <point x="709" y="418"/>
      <point x="698" y="428"/>
      <point x="673" y="428" type="curve" smooth="yes"/>
      <point x="424" y="428" type="line"/>
      <point x="424" y="495" type="line"/>
      <point x="754" y="495" type="line" smooth="yes"/>
      <point x="779" y="495"/>
      <point x="790" y="506"/>
      <point x="790" y="531" type="curve" smooth="yes"/>
      <point x="790" y="644" type="line" smooth="yes"/>
      <point x="790" y="669"/>
      <point x="779" y="680"/>
      <point x="754" y="680" type="curve" smooth="yes"/>
      <point x="236" y="680" type="line" smooth="yes"/>
      <point x="211" y="680"/>
      <point x="200" y="669"/>
      <point x="200" y="644" type="curve" smooth="yes"/>
      <point x="200" y="36" type="line" smooth="yes"/>
      <point x="200" y="11"/>
      <point x="211" y="0"/>
      <point x="236" y="0" type="curve" smooth="yes"/>
    </contour>
  </outline>
</glyph>
<glyph name="Edieresis" format="1">
  <advance width="1000"/>
  <unicode hex="00CB"/>
  <outline>
    <contour>
      <point x="754" y="0" type="line" smooth="yes"/>
      <point x="779" y="0"/>
      <point x="790" y="11"/>
      <point x="790" y="36" type="curve" smooth="yes"/>
      <point x="790" y="149" type="line" smooth="yes"/>
      <point x="790" y="174"/>
      <point x="779" y="185"/>
      <point x="754" y="185" type="curve" smooth="yes"/>
      <point x="424" y="185" type="line"/>
      <point x="424" y="261" type="line"/>
      <point x="673" y="261" type="line" smooth="yes"/>
      <point x="698" y="261"/>
      <point x="709" y="272"/>
      <point x="709" y="297" type="curve" smooth="yes"/>
      <point x="709" y="392" type="line" smooth="yes"/>
      <point x="709" y="418"/>
      <point x="698" y="428"/>
      <point x="673" y="428" type="curve" smooth="yes"/>
      <point x="424" y="428" type="line"/>
      <point x="424" y="495" type="line"/>
      <point x="754" y="495" type="line" smooth="yes"/>
      <point x="779" y="495"/>
      <point x="790" y="506"/>
      <point x="790" y="531" type="curve" smooth="yes"/>
      <point x="790" y="644" type="line" smooth="yes"/>
      <point x="790" y="669"/>
      <point x="779" y="680"/>
      <point x="754" y="680" type="curve" smooth="yes"/>
      <point x="236" y="680" type="line" smooth="yes"/>
      <point x="211" y="680"/>
      <point x="200" y="669"/>
      <point x="200" y="644" type="curve" smooth="yes"/>
      <point x="200" y="36" type="line" smooth="yes"/>
      <point x="200" y="11"/>
      <point x="211" y="0"/>
      <point x="236" y="0" type="curve" smooth="yes"/>
    </contour>
    <contour>
      <point x="438" y="720" type="line" smooth="yes"/>
      <point x="461" y="720"/>
      <point x="471" y="730"/>
      <point x="471" y="753" type="curve" smooth="yes"/>
      <point x="471" y="874" type="line" smooth="yes"/>
      <point x="471" y="897"/>
      <point x="461" y="907"/>
      <point x="438" y="907" type="curve" smooth="yes"/>
      <point x="300" y="907" type="line" smooth="yes"/>
      <point x="277" y="907"/>
      <point x="266" y="897"/>
      <point x="266" y="874" type="curve" smooth="yes"/>
      <point x="266" y="753" type="line" smooth="yes"/>
      <point x="266" y="730"/>
      <point x="277" y="720"/>
      <point x="300" y="720" type="curve" smooth="yes"/>
    </contour>
    <contour>
      <point x="696" y="720" type="line" smooth="yes"/>
      <point x="719" y="720"/>
      <point x="729" y="730"/>
      <point x="729" y="753" type="curve" smooth="yes"/>
      <point x="729" y="874" type="line" smooth="yes"/>
      <point x="729" y="897"/>
      <point x="719" y="907"/>
      <point x="696" y="907" type="curve" smooth="yes"/>
      <point x="558" y="907" type="line" smooth="yes"/>
      <point x="535" y="907"/>
      <point x="525" y="897"/>
      <point x="525" y="874" type="curve" smooth="yes"/>
      <point x="525" y="753" type="line" smooth="yes"/>
      <point x="525" y="730"/>
      <point x="535" y="720"/>
      <point x="558" y="720" type="curve" smooth="yes"/>
    </contour>
  </outline>
</glyph>
<glyph name="Igrave" format="1">
  <advance width="1000"/>
  <unicode hex="00CC"/>
  <outline>
    <contour>
      <point x="245" y="0" type="curve" smooth="yes"/>
      <point x="755" y="0" type="line" smooth="yes"/>
      <point x="780" y="0"/>
      <point x="791" y="11"/>
      <point x="791" y="36" type="curve" smooth="yes"/>
      <point x="791" y="155" type="line" smooth="yes"/>
      <point x="791" y="180"/>
      <point x="780" y="191"/>
      <point x="755" y="191" type="curve" smooth="yes"/>
      <point x="621" y="191" type="line"/>
      <point x="621" y="487" type="line"/>
      <point x="755" y="487" type="line" smooth="yes"/>
      <point x="780" y="487"/>
      <point x="791" y="498"/>
      <point x="791" y="523" type="curve" smooth="yes"/>
      <point x="791" y="644" type="line" smooth="yes"/>
      <point x="791" y="669"/>
      <point x="780" y="680"/>
      <point x="755" y="680" type="curve" smooth="yes"/>
      <point x="245" y="680" type="line" smooth="yes"/>
      <point x="220" y="680"/>
      <point x="209" y="669"/>
      <point x="209" y="644" type="curve" smooth="yes"/>
      <point x="209" y="523" type="line" smooth="yes"/>
      <point x="209" y="498"/>
      <point x="220" y="487"/>
      <point x="245" y="487" type="curve" smooth="yes"/>
      <point x="379" y="487" type="line"/>
      <point x="379" y="191" type="line"/>
      <point x="245" y="191" type="line" smooth="yes"/>
      <point x="220" y="191"/>
      <point x="209" y="180"/>
      <point x="209" y="155" type="curve" smooth="yes"/>
      <point x="209" y="36" type="line" smooth="yes"/>
      <point x="209" y="11"/>
      <point x="220" y="0"/>
    </contour>
    <contour>
      <point x="675" y="713" type="line" smooth="yes"/>
      <point x="698" y="710"/>
      <point x="709" y="723"/>
      <point x="709" y="746" type="curve" smooth="yes"/>
      <point x="709" y="842" type="line" smooth="yes"/>
      <point x="709" y="867"/>
      <point x="698" y="875"/>
      <point x="673" y="878" type="curve" smooth="yes"/>
      <point x="324" y="921" type="line" smooth="yes"/>
      <point x="301" y="924"/>
      <point x="290" y="911"/>
      <point x="290" y="888" type="curve" smooth="yes"/>
      <point x="290" y="792" type="line" smooth="yes"/>
      <point x="290" y="767"/>
      <point x="301" y="759"/>
      <point x="326" y="756" type="curve" smooth="yes"/>
    </contour>
  </outline>
</glyph>
<glyph name="Icircumflex" format="1">
  <advance width="1000"/>
  <unicode hex="00CE"/>
  <outline>
    <contour>
      <point x="245" y="0" type="curve" smooth="yes"/>
      <point x="755" y="0" type="line" smooth="yes"/>
      <point x="780" y="0"/>
      <point x="791" y="11"/>
      <point x="791" y="36" type="curve" smooth="yes"/>
      <point x="791" y="155" type="line" smooth="yes"/>
      <point x="791" y="180"/>
      <point x="780" y="191"/>
      <point x="755" y="191" type="curve" smooth="yes"/>
      <point x="621" y="191" type="line"/>
      <point x="621" y="487" type="line"/>
      <point x="755" y="487" type="line" smooth="yes"/>
      <point x="780" y="487"/>
      <point x="791" y="498"/>
      <point x="791" y="523" type="curve" smooth="yes"/>
      <point x="791" y="644" type="line" smooth="yes"/>
      <point x="791" y="669"/>
      <point x="780" y="680"/>
      <point x="755" y="680" type="curve" smooth="yes"/>
      <point x="245" y="680" type="line" smooth="yes"/>
      <point x="220" y="680"/>
      <point x="209" y="669"/>
      <point x="209" y="644" type="curve" smooth="yes"/>
      <point x="209" y="523" type="line" smooth="yes"/>
      <point x="209" y="498"/>
      <point x="220" y="487"/>
      <point x="245" y="487" type="curve" smooth="yes"/>
      <point x="379" y="487" type="line"/>
      <point x="379" y="191" type="line"/>
      <point x="245" y="191" type="line" smooth="yes"/>
      <point x="220" y="191"/>
      <point x="209" y="180"/>
      <point x="209" y="155" type="curve" smooth="yes"/>
      <point x="209" y="36" type="line" smooth="yes"/>
      <point x="209" y="11"/>
      <point x="220" y="0"/>
    </contour>
    <contour>
      <point x="468" y="757" type="line"/>
      <point x="491" y="763"/>
      <point x="507" y="763"/>
      <point x="530" y="757" type="curve"/>
      <point x="667" y="717" type="line" smooth="yes"/>
      <point x="702" y="706"/>
      <point x="709" y="712"/>
      <point x="709" y="748" type="curve" smooth="yes"/>
      <point x="709" y="829" type="line" smooth="yes"/>
      <point x="709" y="865"/>
      <point x="701" y="869"/>
      <point x="667" y="882" type="curve" smooth="yes"/>
      <point x="530" y="932" type="line" smooth="yes"/>
      <point x="520" y="936"/>
      <point x="510" y="937"/>
      <point x="498" y="937" type="curve" smooth="yes"/>
      <point x="486" y="936"/>
      <point x="471" y="933"/>
      <point x="459" y="928" type="curve" smooth="yes"/>
      <point x="331" y="882" type="line" smooth="yes"/>
      <point x="299" y="869"/>
      <point x="290" y="865"/>
      <point x="290" y="829" type="curve" smooth="yes"/>
      <point x="290" y="748" type="line" smooth="yes"/>
      <point x="290" y="712"/>
      <point x="297" y="706"/>
      <point x="331" y="717" type="curve" smooth="yes"/>
    </contour>
  </outline>
</glyph>
<glyph name="Idieresis" format="1">
  <advance width="1000"/>
  <unicode hex="00CF"/>
  <outline>
    <contour>
      <point x="245" y="0" type="curve" smooth="yes"/>
      <point x="755" y="0" type="line" smooth="yes"/>
      <point x="780" y="0"/>
      <point x="791" y="11"/>
      <point x="791" y="36" type="curve" smooth="yes"/>
      <point x="791" y="155" type="line" smooth="yes"/>
      <point x="791" y="180"/>
      <point x="780" y="191"/>
      <point x="755" y="191" type="curve" smooth="yes"/>
      <point x="621" y="191" type="line"/>
      <point x="621" y="487" type="line"/>
      <point x="755" y="487" type="line" smooth="yes"/>
      <point x="780" y="487"/>
      <point x="791" y="498"/>
      <point x="791" y="523" type="curve" smooth="yes"/>
      <point x="791" y="644" type="line" smooth="yes"/>
      <point x="791" y="669"/>
      <point x="780" y="680"/>
      <point x="755" y="680" type="curve" smooth="yes"/>
      <point x="245" y="680" type="line" smooth="yes"/>
      <point x="220" y="680"/>
      <point x="209" y="669"/>
      <point x="209" y="644" type="curve" smooth="yes"/>
      <point x="209" y="523" type="line" smooth="yes"/>
      <point x="209" y="498"/>
      <point x="220" y="487"/>
      <point x="245" y="487" type="curve" smooth="yes"/>
      <point x="379" y="487" type="line"/>
      <point x="379" y="191" type="line"/>
      <point x="245" y="191" type="line" smooth="yes"/>
      <point x="220" y="191"/>
      <point x="209" y="180"/>
      <point x="209" y="155" type="curve" smooth="yes"/>
      <point x="209" y="36" type="line" smooth="yes"/>
      <point x="209" y="11"/>
      <point x="220" y="0"/>
    </contour>
    <contour>
      <point x="438" y="720" type="line" smooth="yes"/>
      <point x="461" y="720"/>
      <point x="471" y="730"/>
      <point x="471" y="753" type="curve" smooth="yes"/>
      <point x="471" y="874" type="line" smooth="yes"/>
      <point x="471" y="897"/>
      <point x="461" y="907"/>
      <point x="438" y="907" type="curve" smooth="yes"/>
      <point x="300" y="907" type="line" smooth="yes"/>
      <point x="277" y="907"/>
      <point x="266" y="897"/>
      <point x="266" y="874" type="curve" smooth="yes"/>
      <point x="266" y="753" type="line" smooth="yes"/>
      <point x="266" y="730"/>
      <point x="277" y="720"/>
      <point x="300" y="720" type="curve" smooth="yes"/>
    </contour>
    <contour>
      <point x="696" y="720" type="line" smooth="yes"/>
      <point x="719" y="720"/>
      <point x="729" y="730"/>
      <point x="729" y="753" type="curve" smooth="yes"/>
      <point x="729" y="874" type="line" smooth="yes"/>
      <point x="729" y="897"/>
      <point x="719" y="907"/>
      <point x="696" y="907" type="curve" smooth="yes"/>
      <point x="558" y="907" type="line" smooth="yes"/>
      <point x="535" y="907"/>
      <point x="525" y="897"/>
      <point x="525" y="874" type="curve" smooth="yes"/>
      <point x="525" y="753" type="line" smooth="yes"/>
      <point x="525" y="730"/>
      <point x="535" y="720"/>
      <point x="558" y="720" type="curve" smooth="yes"/>
    </contour>
  </outline>
</glyph>
<glyph name="Ntilde" format="1">
  <advance width="1000"/>
  <unicode hex="00D1"/>
  <outline>
    <contour>
      <point x="386" y="0" type="line" smooth="yes"/>
      <point x="411" y="0"/>
      <point x="422" y="11"/>
      <point x="422" y="36" type="curve" smooth="yes"/>
      <point x="422" y="326" type="line"/>
      <point x="579" y="139" type="line"/>
      <point x="579" y="36" type="line" smooth="yes"/>
      <point x="579" y="11"/>
      <point x="590" y="0"/>
      <point x="615" y="0" type="curve" smooth="yes"/>
      <point x="765" y="0" type="line" smooth="yes"/>
      <point x="790" y="0"/>
      <point x="801" y="11"/>
      <point x="801" y="36" type="curve" smooth="yes"/>
      <point x="801" y="644" type="line" smooth="yes"/>
      <point x="801" y="669"/>
      <point x="790" y="680"/>
      <point x="765" y="680" type="curve" smooth="yes"/>
      <point x="615" y="680" type="line" smooth="yes"/>
      <point x="590" y="680"/>
      <point x="579" y="669"/>
      <point x="579" y="644" type="curve" smooth="yes"/>
      <point x="579" y="451" type="line"/>
      <point x="399" y="653" type="line" smooth="yes"/>
      <point x="382" y="673"/>
      <point x="366" y="680"/>
      <point x="340" y="680" type="curve" smooth="yes"/>
      <point x="236" y="680" type="line" smooth="yes"/>
      <point x="211" y="680"/>
      <point x="200" y="669"/>
      <point x="200" y="644" type="curve" smooth="yes"/>
      <point x="200" y="36" type="line" smooth="yes"/>
      <point x="200" y="11"/>
      <point x="211" y="0"/>
      <point x="236" y="0" type="curve" smooth="yes"/>
    </contour>
    <contour>
      <point x="499" y="724" type="line"/>
      <point x="515" y="722" type="line" smooth="yes"/>
      <point x="595" y="710"/>
      <point x="609" y="708"/>
      <point x="672" y="727" type="curve"/>
      <point x="695" y="736"/>
      <point x="708" y="743"/>
      <point x="708" y="768" type="curve" smooth="yes"/>
      <point x="708" y="869" type="line" smooth="yes"/>
      <point x="708" y="894"/>
      <point x="696" y="902"/>
      <point x="672" y="895" type="curve" smooth="yes"/>
      <point x="613" y="877"/>
      <point x="609" y="874"/>
      <point x="521" y="887" type="curve" smooth="yes"/>
      <point x="499" y="890" type="line"/>
      <point x="482" y="892" type="line" smooth="yes"/>
      <point x="402" y="904"/>
      <point x="389" y="906"/>
      <point x="326" y="887" type="curve"/>
      <point x="303" y="878"/>
      <point x="290" y="871"/>
      <point x="290" y="846" type="curve" smooth="yes"/>
      <point x="290" y="745" type="line" smooth="yes"/>
      <point x="290" y="720"/>
      <point x="302" y="712"/>
      <point x="326" y="719" type="curve" smooth="yes"/>
      <point x="379" y="735"/>
      <point x="395" y="739"/>
      <point x="471" y="728" type="curve" smooth="yes"/>
    </contour>
  </outline>
</glyph>
<glyph name="Ograve" format="1">
  <advance width="1000"/>
  <unicode hex="00D2"/>
  <outline>
    <contour>
      <point x="804" y="189" type="curve" smooth="yes"/>
      <point x="804" y="490" type="line" smooth="yes"/>
      <point x="804" y="612"/>
      <point x="745" y="695"/>
      <point x="500" y="695" type="curve" smooth="yes"/>
      <point x="255" y="695"/>
      <point x="196" y="612"/>
      <point x="196" y="490" type="curve" smooth="yes"/>
      <point x="196" y="189" type="line" smooth="yes"/>
      <point x="196" y="67"/>
      <point x="255" y="-15"/>
      <point x="500" y="-15" type="curve" smooth="yes"/>
      <point x="745" y="-15"/>
      <point x="804" y="67"/>
    </contour>
    <contour>
      <point x="423" y="225" type="curve" smooth="yes"/>
      <point x="423" y="454" type="line" smooth="yes"/>
      <point x="423" y="480"/>
      <point x="434" y="500"/>
      <point x="500" y="500" type="curve" smooth="yes"/>
      <point x="567" y="500"/>
      <point x="578" y="480"/>
      <point x="578" y="454" type="curve" smooth="yes"/>
      <point x="578" y="225" type="line" smooth="yes"/>
      <point x="578" y="198"/>
      <point x="567" y="178"/>
      <point x="500" y="178" type="curve" smooth="yes"/>
      <point x="434" y="178"/>
      <point x="423" y="198"/>
    </contour>
    <contour>
      <point x="675" y="713" type="line" smooth="yes"/>
      <point x="698" y="710"/>
      <point x="709" y="723"/>
      <point x="709" y="746" type="curve" smooth="yes"/>
      <point x="709" y="842" type="line" smooth="yes"/>
      <point x="709" y="867"/>
      <point x="698" y="875"/>
      <point x="673" y="878" type="curve" smooth="yes"/>
      <point x="324" y="921" type="line" smooth="yes"/>
      <point x="301" y="924"/>
      <point x="290" y="911"/>
      <point x="290" y="888" type="curve" smooth="yes"/>
      <point x="290" y="792" type="line" smooth="yes"/>
      <point x="290" y="767"/>
      <point x="301" y="759"/>
      <point x="326" y="756" type="curve" smooth="yes"/>
    </contour>
  </outline>
</glyph>
<glyph name="Oacute" format="1">
  <advance width="1000"/>
  <unicode hex="00D3"/>
  <outline>
    <contour>
      <point x="804" y="189" type="curve" smooth="yes"/>
      <point x="804" y="490" type="line" smooth="yes"/>
      <point x="804" y="612"/>
      <point x="745" y="695"/>
      <point x="500" y="695" type="curve" smooth="yes"/>
      <point x="255" y="695"/>
      <point x="196" y="612"/>
      <point x="196" y="490" type="curve" smooth="yes"/>
      <point x="196" y="189" type="line" smooth="yes"/>
      <point x="196" y="67"/>
      <point x="255" y="-15"/>
      <point x="500" y="-15" type="curve" smooth="yes"/>
      <point x="745" y="-15"/>
      <point x="804" y="67"/>
    </contour>
    <contour>
      <point x="423" y="225" type="curve" smooth="yes"/>
      <point x="423" y="454" type="line" smooth="yes"/>
      <point x="423" y="480"/>
      <point x="434" y="500"/>
      <point x="500" y="500" type="curve" smooth="yes"/>
      <point x="567" y="500"/>
      <point x="578" y="480"/>
      <point x="578" y="454" type="curve" smooth="yes"/>
      <point x="578" y="225" type="line" smooth="yes"/>
      <point x="578" y="198"/>
      <point x="567" y="178"/>
      <point x="500" y="178" type="curve" smooth="yes"/>
      <point x="434" y="178"/>
      <point x="423" y="198"/>
    </contour>
    <contour>
      <point x="673" y="756" type="line" smooth="yes"/>
      <point x="698" y="759"/>
      <point x="709" y="767"/>
      <point x="709" y="792" type="curve" smooth="yes"/>
      <point x="709" y="888" type="line" smooth="yes"/>
      <point x="709" y="911"/>
      <point x="698" y="924"/>
      <point x="675" y="921" type="curve"/>
      <point x="326" y="878" type="line" smooth="yes"/>
      <point x="301" y="875"/>
      <point x="290" y="867"/>
      <point x="290" y="842" type="curve" smooth="yes"/>
      <point x="290" y="746" type="line" smooth="yes"/>
      <point x="290" y="723"/>
      <point x="301" y="710"/>
      <point x="324" y="713" type="curve" smooth="yes"/>
    </contour>
  </outline>
</glyph>
<glyph name="Ocircumflex" format="1">
  <advance width="1000"/>
  <unicode hex="00D4"/>
  <outline>
    <contour>
      <point x="804" y="189" type="curve" smooth="yes"/>
      <point x="804" y="490" type="line" smooth="yes"/>
      <point x="804" y="612"/>
      <point x="745" y="695"/>
      <point x="500" y="695" type="curve" smooth="yes"/>
      <point x="255" y="695"/>
      <point x="196" y="612"/>
      <point x="196" y="490" type="curve" smooth="yes"/>
      <point x="196" y="189" type="line" smooth="yes"/>
      <point x="196" y="67"/>
      <point x="255" y="-15"/>
      <point x="500" y="-15" type="curve" smooth="yes"/>
      <point x="745" y="-15"/>
      <point x="804" y="67"/>
    </contour>
    <contour>
      <point x="423" y="225" type="curve" smooth="yes"/>
      <point x="423" y="454" type="line" smooth="yes"/>
      <point x="423" y="480"/>
      <point x="434" y="500"/>
      <point x="500" y="500" type="curve" smooth="yes"/>
      <point x="567" y="500"/>
      <point x="578" y="480"/>
      <point x="578" y="454" type="curve" smooth="yes"/>
      <point x="578" y="225" type="line" smooth="yes"/>
      <point x="578" y="198"/>
      <point x="567" y="178"/>
      <point x="500" y="178" type="curve" smooth="yes"/>
      <point x="434" y="178"/>
      <point x="423" y="198"/>
    </contour>
    <contour>
      <point x="468" y="757" type="line"/>
      <point x="491" y="763"/>
      <point x="507" y="763"/>
      <point x="530" y="757" type="curve"/>
      <point x="667" y="717" type="line" smooth="yes"/>
      <point x="702" y="706"/>
      <point x="709" y="712"/>
      <point x="709" y="748" type="curve" smooth="yes"/>
      <point x="709" y="829" type="line" smooth="yes"/>
      <point x="709" y="865"/>
      <point x="701" y="869"/>
      <point x="667" y="882" type="curve" smooth="yes"/>
      <point x="530" y="932" type="line" smooth="yes"/>
      <point x="520" y="936"/>
      <point x="510" y="937"/>
      <point x="498" y="937" type="curve" smooth="yes"/>
      <point x="486" y="936"/>
      <point x="471" y="933"/>
      <point x="459" y="928" type="curve" smooth="yes"/>
      <point x="331" y="882" type="line" smooth="yes"/>
      <point x="299" y="869"/>
      <point x="290" y="865"/>
      <point x="290" y="829" type="curve" smooth="yes"/>
      <point x="290" y="748" type="line" smooth="yes"/>
      <point x="290" y="712"/>
      <point x="297" y="706"/>
      <point x="331" y="717" type="curve" smooth="yes"/>
    </contour>
  </outline>
</glyph>
<glyph name="Otilde" format="1">
  <advance width="1000"/>
  <unicode hex="00D5"/>
  <outline>
    <contour>
      <point x="804" y="189" type="curve" smooth="yes"/>
      <point x="804" y="490" type="line" smooth="yes"/>
      <point x="804" y="612"/>
      <point x="745" y="695"/>
      <point x="500" y="695" type="curve" smooth="yes"/>
      <point x="255" y="695"/>
      <point x="196" y="612"/>
      <point x="196" y="490" type="curve" smooth="yes"/>
      <point x="196" y="189" type="line" smooth="yes"/>
      <point x="196" y="67"/>
      <point x="255" y="-15"/>
      <point x="500" y="-15" type="curve" smooth="yes"/>
      <point x="745" y="-15"/>
      <point x="804" y="67"/>
    </contour>
    <contour>
      <point x="423" y="225" type="curve" smooth="yes"/>
      <point x="423" y="454" type="line" smooth="yes"/>
      <point x="423" y="480"/>
      <point x="434" y="500"/>
      <point x="500" y="500" type="curve" smooth="yes"/>
      <point x="567" y="500"/>
      <point x="578" y="480"/>
      <point x="578" y="454" type="curve" smooth="yes"/>
      <point x="578" y="225" type="line" smooth="yes"/>
      <point x="578" y="198"/>
      <point x="567" y="178"/>
      <point x="500" y="178" type="curve" smooth="yes"/>
      <point x="434" y="178"/>
      <point x="423" y="198"/>
    </contour>
    <contour>
      <point x="499" y="724" type="line"/>
      <point x="515" y="722" type="line" smooth="yes"/>
      <point x="595" y="710"/>
      <point x="609" y="708"/>
      <point x="672" y="727" type="curve"/>
      <point x="695" y="736"/>
      <point x="708" y="743"/>
      <point x="708" y="768" type="curve" smooth="yes"/>
      <point x="708" y="869" type="line" smooth="yes"/>
      <point x="708" y="894"/>
      <point x="696" y="902"/>
      <point x="672" y="895" type="curve" smooth="yes"/>
      <point x="613" y="877"/>
      <point x="609" y="874"/>
      <point x="521" y="887" type="curve" smooth="yes"/>
      <point x="499" y="890" type="line"/>
      <point x="482" y="892" type="line" smooth="yes"/>
      <point x="402" y="904"/>
      <point x="389" y="906"/>
      <point x="326" y="887" type="curve"/>
      <point x="303" y="878"/>
      <point x="290" y="871"/>
      <point x="290" y="846" type="curve" smooth="yes"/>
      <point x="290" y="745" type="line" smooth="yes"/>
      <point x="290" y="720"/>
      <point x="302" y="712"/>
      <point x="326" y="719" type="curve" smooth="yes"/>
      <point x="379" y="735"/>
      <point x="395" y="739"/>
      <point x="471" y="728" type="curve" smooth="yes"/>
    </contour>
  </outline>
</glyph>
<glyph name="Odieresis" format="1">
  <advance width="1000"/>
  <unicode hex="00D6"/>
  <outline>
    <contour>
      <point x="804" y="189" type="curve" smooth="yes"/>
      <point x="804" y="490" type="line" smooth="yes"/>
      <point x="804" y="612"/>
      <point x="745" y="695"/>
      <point x="500" y="695" type="curve" smooth="yes"/>
      <point x="255" y="695"/>
      <point x="196" y="612"/>
      <point x="196" y="490" type="curve" smooth="yes"/>
      <point x="196" y="189" type="line" smooth="yes"/>
      <point x="196" y="67"/>
      <point x="255" y="-15"/>
      <point x="500" y="-15" type="curve" smooth="yes"/>
      <point x="745" y="-15"/>
      <point x="804" y="67"/>
    </contour>
    <contour>
      <point x="423" y="225" type="curve" smooth="yes"/>
      <point x="423" y="454" type="line" smooth="yes"/>
      <point x="423" y="480"/>
      <point x="434" y="500"/>
      <point x="500" y="500" type="curve" smooth="yes"/>
      <point x="567" y="500"/>
      <point x="578" y="480"/>
      <point x="578" y="454" type="curve" smooth="yes"/>
      <point x="578" y="225" type="line" smooth="yes"/>
      <point x="578" y="198"/>
      <point x="567" y="178"/>
      <point x="500" y="178" type="curve" smooth="yes"/>
      <point x="434" y="178"/>
      <point x="423" y="198"/>
    </contour>
    <contour>
      <point x="438" y="720" type="line" smooth="yes"/>
      <point x="461" y="720"/>
      <point x="471" y="730"/>
      <point x="471" y="753" type="curve" smooth="yes"/>
      <point x="471" y="874" type="line" smooth="yes"/>
      <point x="471" y="897"/>
      <point x="461" y="907"/>
      <point x="438" y="907" type="curve" smooth="yes"/>
      <point x="300" y="907" type="line" smooth="yes"/>
      <point x="277" y="907"/>
      <point x="266" y="897"/>
      <point x="266" y="874" type="curve" smooth="yes"/>
      <point x="266" y="753" type="line" smooth="yes"/>
      <point x="266" y="730"/>
      <point x="277" y="720"/>
      <point x="300" y="720" type="curve" smooth="yes"/>
    </contour>
    <contour>
      <point x="696" y="720" type="line" smooth="yes"/>
      <point x="719" y="720"/>
      <point x="729" y="730"/>
      <point x="729" y="753" type="curve" smooth="yes"/>
      <point x="729" y="874" type="line" smooth="yes"/>
      <point x="729" y="897"/>
      <point x="719" y="907"/>
      <point x="696" y="907" type="curve" smooth="yes"/>
      <point x="558" y="907" type="line" smooth="yes"/>
      <point x="535" y="907"/>
      <point x="525" y="897"/>
      <point x="525" y="874" type="curve" smooth="yes"/>
      <point x="525" y="753" type="line" smooth="yes"/>
      <point x="525" y="730"/>
      <point x="535" y="720"/>
      <point x="558" y="720" type="curve" smooth="yes"/>
    </contour>
  </outline>
</glyph>
<glyph name="multiply" format="1">
  <advance width="1000"/>
  <unicode hex="00D7"/>
  <outline>
    <contour>
      <point x="361.0" y="90.0" type="curve"/>
      <point x="770.0" y="499.0" type="line" smooth="yes"/>
      <point x="788.0" y="516.0"/>
      <point x="789.0" y="531.0"/>
      <point x="770.0" y="550.0" type="curve" smooth="yes"/>
      <point x="690.0" y="630.0" type="line" smooth="yes"/>
      <point x="671.0" y="649.0"/>
      <point x="656.0" y="648.0"/>
      <point x="639.0" y="630.0" type="curve" smooth="yes"/>
      <point x="230.0" y="221.0" type="line" smooth="yes"/>
      <point x="212.0" y="204.0"/>
      <point x="212.0" y="188.0"/>
      <point x="230.0" y="170.0" type="curve" smooth="yes"/>
      <point x="310.0" y="90.0" type="line" smooth="yes"/>
      <point x="329.0" y="71.0"/>
      <point x="344.0" y="72.0"/>
    </contour>
    <contour>
      <point x="230.0" y="499.0" type="curve"/>
      <point x="639.0" y="90.0" type="line" smooth="yes"/>
      <point x="656.0" y="72.0"/>
      <point x="671.0" y="71.0"/>
      <point x="690.0" y="90.0" type="curve" smooth="yes"/>
      <point x="770.0" y="170.0" type="line" smooth="yes"/>
      <point x="789.0" y="189.0"/>
      <point x="788.0" y="204.0"/>
      <point x="770.0" y="221.0" type="curve" smooth="yes"/>
      <point x="361.0" y="630.0" type="line" smooth="yes"/>
      <point x="344.0" y="648.0"/>
      <point x="328.0" y="648.0"/>
      <point x="310.0" y="630.0" type="curve" smooth="yes"/>
      <point x="230.0" y="550.0" type="line" smooth="yes"/>
      <point x="211.0" y="531.0"/>
      <point x="212.0" y="516.0"/>
    </contour>
  </outline>
</glyph>
<glyph name="Oslash" format="1">
  <advance width="1000"/>
  <unicode hex="00D8"/>
  <outline>
    <contour>
      <point x="800" y="189" type="curve"/>
      <point x="800" y="530" type="line" smooth="yes"/>
      <point x="800" y="652"/>
      <point x="740" y="735"/>
      <point x="500" y="735" type="curve" smooth="yes"/>
      <point x="260" y="735"/>
      <point x="199" y="652"/>
      <point x="199" y="530" type="curve" smooth="yes"/>
      <point x="199" y="189" type="line" smooth="yes"/>
      <point x="199" y="67"/>
      <point x="260" y="-15"/>
      <point x="500" y="-15" type="curve" smooth="yes"/>
      <point x="740" y="-15"/>
      <point x="800" y="67"/>
    </contour>
    <contour>
      <point x="406" y="225" type="curve"/>
      <point x="406" y="494" type="line" smooth="yes"/>
      <point x="406" y="526"/>
      <point x="420" y="550"/>
      <point x="500" y="550" type="curve" smooth="yes"/>
      <point x="581" y="550"/>
      <point x="594" y="526"/>
      <point x="594" y="494" type="curve" smooth="yes"/>
      <point x="594" y="225" type="line" smooth="yes"/>
      <point x="594" y="192"/>
      <point x="581" y="168"/>
      <point x="500" y="168" type="curve" smooth="yes"/>
      <point x="420" y="168"/>
      <point x="406" y="192"/>
    </contour>
    <contour>
      <point x="380" y="-70" type="line" smooth="yes"/>
      <point x="405" y="-70"/>
      <point x="414" y="-56"/>
      <point x="426" y="-34" type="curve"/>
      <point x="472" y="74" type="line"/>
      <point x="465" y="119" type="line"/>
      <point x="654" y="564" type="line"/>
      <point x="683" y="573" type="line"/>
      <point x="760" y="754" type="line"/>
      <point x="772" y="776"/>
      <point x="759" y="790"/>
      <point x="734" y="790" type="curve" smooth="yes"/>
      <point x="619" y="790" type="line" smooth="yes"/>
      <point x="594" y="790"/>
      <point x="585" y="776"/>
      <point x="573" y="754" type="curve"/>
      <point x="528" y="649" type="line"/>
      <point x="533" y="599" type="line"/>
      <point x="343" y="152" type="line"/>
      <point x="314" y="144" type="line"/>
      <point x="239" y="-34" type="line"/>
      <point x="227" y="-56"/>
      <point x="240" y="-70"/>
      <point x="265" y="-70" type="curve" smooth="yes"/>
    </contour>
  </outline>
</glyph>
<glyph name="Ugrave" format="1">
  <advance width="1000"/>
  <unicode hex="00D9"/>
  <outline>
    <contour>
      <point x="800" y="189" type="curve" smooth="yes"/>
      <point x="800" y="644" type="line" smooth="yes"/>
      <point x="800" y="669"/>
      <point x="789" y="680"/>
      <point x="764" y="680" type="curve" smooth="yes"/>
      <point x="612" y="680" type="line" smooth="yes"/>
      <point x="586" y="680"/>
      <point x="576" y="669"/>
      <point x="576" y="644" type="curve" smooth="yes"/>
      <point x="576" y="228" type="line" smooth="yes"/>
      <point x="576" y="201"/>
      <point x="564" y="181"/>
      <point x="502" y="181" type="curve" smooth="yes"/>
      <point x="441" y="181"/>
      <point x="429" y="201"/>
      <point x="429" y="228" type="curve" smooth="yes"/>
      <point x="429" y="644" type="line" smooth="yes"/>
      <point x="429" y="669"/>
      <point x="418" y="680"/>
      <point x="393" y="680" type="curve" smooth="yes"/>
      <point x="236" y="680" type="line" smooth="yes"/>
      <point x="211" y="680"/>
      <point x="200" y="669"/>
      <point x="200" y="644" type="curve" smooth="yes"/>
      <point x="200" y="189" type="line" smooth="yes"/>
      <point x="200" y="67"/>
      <point x="260" y="-15"/>
      <point x="500" y="-15" type="curve" smooth="yes"/>
      <point x="740" y="-15"/>
      <point x="800" y="67"/>
    </contour>
    <contour>
      <point x="675" y="713" type="line" smooth="yes"/>
      <point x="698" y="710"/>
      <point x="709" y="723"/>
      <point x="709" y="746" type="curve" smooth="yes"/>
      <point x="709" y="842" type="line" smooth="yes"/>
      <point x="709" y="867"/>
      <point x="698" y="875"/>
      <point x="673" y="878" type="curve" smooth="yes"/>
      <point x="324" y="921" type="line" smooth="yes"/>
      <point x="301" y="924"/>
      <point x="290" y="911"/>
      <point x="290" y="888" type="curve" smooth="yes"/>
      <point x="290" y="792" type="line" smooth="yes"/>
      <point x="290" y="767"/>
      <point x="301" y="759"/>
      <point x="326" y="756" type="curve" smooth="yes"/>
    </contour>
  </outline>
</glyph>
<glyph name="Ucircumflex" format="1">
  <advance width="1000"/>
  <unicode hex="00DB"/>
  <outline>
    <contour>
      <point x="800" y="189" type="curve" smooth="yes"/>
      <point x="800" y="644" type="line" smooth="yes"/>
      <point x="800" y="669"/>
      <point x="789" y="680"/>
      <point x="764" y="680" type="curve" smooth="yes"/>
      <point x="612" y="680" type="line" smooth="yes"/>
      <point x="586" y="680"/>
      <point x="576" y="669"/>
      <point x="576" y="644" type="curve" smooth="yes"/>
      <point x="576" y="228" type="line" smooth="yes"/>
      <point x="576" y="201"/>
      <point x="564" y="181"/>
      <point x="502" y="181" type="curve" smooth="yes"/>
      <point x="441" y="181"/>
      <point x="429" y="201"/>
      <point x="429" y="228" type="curve" smooth="yes"/>
      <point x="429" y="644" type="line" smooth="yes"/>
      <point x="429" y="669"/>
      <point x="418" y="680"/>
      <point x="393" y="680" type="curve" smooth="yes"/>
      <point x="236" y="680" type="line" smooth="yes"/>
      <point x="211" y="680"/>
      <point x="200" y="669"/>
      <point x="200" y="644" type="curve" smooth="yes"/>
      <point x="200" y="189" type="line" smooth="yes"/>
      <point x="200" y="67"/>
      <point x="260" y="-15"/>
      <point x="500" y="-15" type="curve" smooth="yes"/>
      <point x="740" y="-15"/>
      <point x="800" y="67"/>
    </contour>
    <contour>
      <point x="468" y="757" type="line"/>
      <point x="491" y="763"/>
      <point x="507" y="763"/>
      <point x="530" y="757" type="curve"/>
      <point x="667" y="717" type="line" smooth="yes"/>
      <point x="702" y="706"/>
      <point x="709" y="712"/>
      <point x="709" y="748" type="curve" smooth="yes"/>
      <point x="709" y="829" type="line" smooth="yes"/>
      <point x="709" y="865"/>
      <point x="701" y="869"/>
      <point x="667" y="882" type="curve" smooth="yes"/>
      <point x="530" y="932" type="line" smooth="yes"/>
      <point x="520" y="936"/>
      <point x="510" y="937"/>
      <point x="498" y="937" type="curve" smooth="yes"/>
      <point x="486" y="936"/>
      <point x="471" y="933"/>
      <point x="459" y="928" type="curve" smooth="yes"/>
      <point x="331" y="882" type="line" smooth="yes"/>
      <point x="299" y="869"/>
      <point x="290" y="865"/>
      <point x="290" y="829" type="curve" smooth="yes"/>
      <point x="290" y="748" type="line" smooth="yes"/>
      <point x="290" y="712"/>
      <point x="297" y="706"/>
      <point x="331" y="717" type="curve" smooth="yes"/>
    </contour>
  </outline>
</glyph>
<glyph name="Udieresis" format="1">
  <advance width="1000"/>
  <unicode hex="00DC"/>
  <outline>
    <contour>
      <point x="800" y="189" type="curve" smooth="yes"/>
      <point x="800" y="644" type="line" smooth="yes"/>
      <point x="800" y="669"/>
      <point x="789" y="680"/>
      <point x="764" y="680" type="curve" smooth="yes"/>
      <point x="612" y="680" type="line" smooth="yes"/>
      <point x="586" y="680"/>
      <point x="576" y="669"/>
      <point x="576" y="644" type="curve" smooth="yes"/>
      <point x="576" y="228" type="line" smooth="yes"/>
      <point x="576" y="201"/>
      <point x="564" y="181"/>
      <point x="502" y="181" type="curve" smooth="yes"/>
      <point x="441" y="181"/>
      <point x="429" y="201"/>
      <point x="429" y="228" type="curve" smooth="yes"/>
      <point x="429" y="644" type="line" smooth="yes"/>
      <point x="429" y="669"/>
      <point x="418" y="680"/>
      <point x="393" y="680" type="curve" smooth="yes"/>
      <point x="236" y="680" type="line" smooth="yes"/>
      <point x="211" y="680"/>
      <point x="200" y="669"/>
      <point x="200" y="644" type="curve" smooth="yes"/>
      <point x="200" y="189" type="line" smooth="yes"/>
      <point x="200" y="67"/>
      <point x="260" y="-15"/>
      <point x="500" y="-15" type="curve" smooth="yes"/>
      <point x="740" y="-15"/>
      <point x="800" y="67"/>
    </contour>
    <contour>
      <point x="438" y="720" type="line" smooth="yes"/>
      <point x="461" y="720"/>
      <point x="471" y="730"/>
      <point x="471" y="753" type="curve" smooth="yes"/>
      <point x="471" y="874" type="line" smooth="yes"/>
      <point x="471" y="897"/>
      <point x="461" y="907"/>
      <point x="438" y="907" type="curve" smooth="yes"/>
      <point x="300" y="907" type="line" smooth="yes"/>
      <point x="277" y="907"/>
      <point x="266" y="897"/>
      <point x="266" y="874" type="curve" smooth="yes"/>
      <point x="266" y="753" type="line" smooth="yes"/>
      <point x="266" y="730"/>
      <point x="277" y="720"/>
      <point x="300" y="720" type="curve" smooth="yes"/>
    </contour>
    <contour>
      <point x="696" y="720" type="line" smooth="yes"/>
      <point x="719" y="720"/>
      <point x="729" y="730"/>
      <point x="729" y="753" type="curve" smooth="yes"/>
      <point x="729" y="874" type="line" smooth="yes"/>
      <point x="729" y="897"/>
      <point x="719" y="907"/>
      <point x="696" y="907" type="curve" smooth="yes"/>
      <point x="558" y="907" type="line" smooth="yes"/>
      <point x="535" y="907"/>
      <point x="525" y="897"/>
      <point x="525" y="874" type="curve" smooth="yes"/>
      <point x="525" y="753" type="line" smooth="yes"/>
      <point x="525" y="730"/>
      <point x="535" y="720"/>
      <point x="558" y="720" type="curve" smooth="yes"/>
    </contour>
  </outline>
</glyph>
<glyph name="divide" format="1">
  <advance width="1000"/>
  <unicode hex="00F7"/>
  <outline>
    <contour>
      <point x="239" y="277" type="curve"/>
      <point x="761" y="277" type="line" smooth="yes"/>
      <point x="786" y="277"/>
      <point x="797" y="287"/>
      <point x="797" y="313" type="curve" smooth="yes"/>
      <point x="797" y="407" type="line" smooth="yes"/>
      <point x="797" y="433"/>
      <point x="786" y="443"/>
      <point x="761" y="443" type="curve" smooth="yes"/>
      <point x="239" y="443" type="line" smooth="yes"/>
      <point x="214" y="443"/>
      <point x="203" y="432"/>
      <point x="203" y="407" type="curve" smooth="yes"/>
      <point x="203" y="313" type="line" smooth="yes"/>
      <point x="203" y="287"/>
      <point x="214" y="277"/>
    </contour>
    <contour>
      <point x="581" y="483" type="line" smooth="yes"/>
      <point x="606" y="483"/>
      <point x="617" y="494"/>
      <point x="617" y="519" type="curve" smooth="yes"/>
      <point x="617" y="642" type="line" smooth="yes"/>
      <point x="617" y="668"/>
      <point x="606" y="678"/>
      <point x="581" y="678" type="curve" smooth="yes"/>
      <point x="419" y="678" type="line" smooth="yes"/>
      <point x="394" y="678"/>
      <point x="383" y="668"/>
      <point x="383" y="642" type="curve"/>
      <point x="383" y="519" type="line"/>
      <point x="383" y="494"/>
      <point x="394" y="483"/>
      <point x="419" y="483" type="curve" smooth="yes"/>
    </contour>
    <contour>
      <point x="581" y="42" type="line" smooth="yes"/>
      <point x="606" y="42"/>
      <point x="617" y="53"/>
      <point x="617" y="78" type="curve" smooth="yes"/>
      <point x="617" y="201" type="line" smooth="yes"/>
      <point x="617" y="227"/>
      <point x="606" y="237"/>
      <point x="581" y="237" type="curve" smooth="yes"/>
      <point x="419" y="237" type="line" smooth="yes"/>
      <point x="394" y="237"/>
      <point x="383" y="227"/>
      <point x="383" y="201" type="curve" smooth="yes"/>
      <point x="383" y="78" type="line" smooth="yes"/>
      <point x="383" y="53"/>
      <point x="394" y="42"/>
      <point x="419" y="42" type="curve" smooth="yes"/>
    </contour>
  </outline>
</glyph>
<glyph name="Abreve" format="1">
  <advance width="1000"/>
  <unicode hex="0102"/>
  <outline>
    <contour>
      <point x="368" y="680" type="line" smooth="yes"/>
      <point x="342" y="680"/>
      <point x="326" y="672"/>
      <point x="317" y="647" type="curve" smooth="yes"/>
      <point x="240" y="440" type="line" smooth="yes"/>
      <point x="211" y="364"/>
      <point x="201" y="349"/>
      <point x="201" y="280" type="curve" smooth="yes"/>
      <point x="201" y="36" type="line" smooth="yes"/>
      <point x="201" y="11"/>
      <point x="211" y="0"/>
      <point x="237" y="0" type="curve" smooth="yes"/>
      <point x="384" y="0" type="line" smooth="yes"/>
      <point x="409" y="0"/>
      <point x="420" y="11"/>
      <point x="420" y="36" type="curve" smooth="yes"/>
      <point x="420" y="291" type="line" smooth="yes"/>
      <point x="420" y="305"/>
      <point x="422" y="317"/>
      <point x="428" y="332" type="curve"/>
      <point x="477" y="470" type="line"/>
      <point x="483" y="483"/>
      <point x="485" y="487"/>
      <point x="496" y="487" type="curve" smooth="yes"/>
      <point x="501" y="487" type="line" smooth="yes"/>
      <point x="512" y="487"/>
      <point x="514" y="483"/>
      <point x="520" y="470" type="curve"/>
      <point x="569" y="333" type="line"/>
      <point x="575" y="318"/>
      <point x="577" y="306"/>
      <point x="577" y="292" type="curve" smooth="yes"/>
      <point x="577" y="36" type="line" smooth="yes"/>
      <point x="577" y="11"/>
      <point x="591" y="0"/>
      <point x="616" y="0" type="curve" smooth="yes"/>
      <point x="767" y="0" type="line" smooth="yes"/>
      <point x="792" y="0"/>
      <point x="803" y="11"/>
      <point x="803" y="36" type="curve" smooth="yes"/>
      <point x="803" y="280" type="line" smooth="yes"/>
      <point x="803" y="349"/>
      <point x="793" y="364"/>
      <point x="764" y="440" type="curve" smooth="yes"/>
      <point x="677" y="647" type="line" smooth="yes"/>
      <point x="668" y="672"/>
      <point x="653" y="680"/>
      <point x="627" y="680" type="curve" smooth="yes"/>
    </contour>
    <contour>
      <point x="618" y="156" type="line"/>
      <point x="618" y="338" type="line"/>
      <point x="379" y="338" type="line"/>
      <point x="379" y="156" type="line"/>
    </contour>
    <contour>
      <point x="718" y="857" type="curve"/>
      <point x="718" y="901" type="line" smooth="yes"/>
      <point x="718" y="926"/>
      <point x="707" y="937"/>
      <point x="682" y="937" type="curve"/>
      <point x="591" y="937" type="line" smooth="yes"/>
      <point x="568" y="937"/>
      <point x="561" y="930"/>
      <point x="561" y="906" type="curve" smooth="yes"/>
      <point x="561" y="885" type="line" smooth="yes"/>
      <point x="561" y="866"/>
      <point x="552" y="852"/>
      <point x="502" y="852" type="curve" smooth="yes"/>
      <point x="453" y="852"/>
      <point x="445" y="866"/>
      <point x="445" y="885" type="curve" smooth="yes"/>
      <point x="445" y="906" type="line" smooth="yes"/>
      <point x="445" y="930"/>
      <point x="437" y="937"/>
      <point x="416" y="937" type="curve" smooth="yes"/>
      <point x="320" y="937" type="line" smooth="yes"/>
      <point x="295" y="937"/>
      <point x="284" y="926"/>
      <point x="284" y="901" type="curve" smooth="yes"/>
      <point x="284" y="857" type="line" smooth="yes"/>
      <point x="284" y="772"/>
      <point x="327" y="714"/>
      <point x="501" y="714" type="curve" smooth="yes"/>
      <point x="675" y="714"/>
      <point x="718" y="772"/>
    </contour>
  </outline>
</glyph>
<glyph name="Aogonek" format="1">
  <advance width="1000"/>
  <unicode hex="0104"/>
  <outline>
    <contour>
      <point x="368" y="720" type="line" smooth="yes"/>
      <point x="342" y="720"/>
      <point x="326" y="712"/>
      <point x="317" y="687" type="curve" smooth="yes"/>
      <point x="240" y="480" type="line" smooth="yes"/>
      <point x="211" y="404"/>
      <point x="201" y="389"/>
      <point x="201" y="320" type="curve" smooth="yes"/>
      <point x="201" y="76" type="line" smooth="yes"/>
      <point x="201" y="51"/>
      <point x="211" y="40"/>
      <point x="237" y="40" type="curve" smooth="yes"/>
      <point x="384" y="40" type="line" smooth="yes"/>
      <point x="409" y="40"/>
      <point x="420" y="51"/>
      <point x="420" y="76" type="curve" smooth="yes"/>
      <point x="420" y="331" type="line" smooth="yes"/>
      <point x="420" y="345"/>
      <point x="422" y="357"/>
      <point x="428" y="372" type="curve"/>
      <point x="477" y="510" type="line"/>
      <point x="483" y="523"/>
      <point x="485" y="527"/>
      <point x="496" y="527" type="curve" smooth="yes"/>
      <point x="501" y="527" type="line" smooth="yes"/>
      <point x="512" y="527"/>
      <point x="514" y="523"/>
      <point x="520" y="510" type="curve"/>
      <point x="569" y="373" type="line"/>
      <point x="575" y="358"/>
      <point x="577" y="346"/>
      <point x="577" y="332" type="curve" smooth="yes"/>
      <point x="577" y="76" type="line" smooth="yes"/>
      <point x="577" y="51"/>
      <point x="591" y="40"/>
      <point x="616" y="40" type="curve" smooth="yes"/>
      <point x="767" y="40" type="line" smooth="yes"/>
      <point x="792" y="40"/>
      <point x="803" y="51"/>
      <point x="803" y="76" type="curve" smooth="yes"/>
      <point x="803" y="320" type="line" smooth="yes"/>
      <point x="803" y="389"/>
      <point x="793" y="404"/>
      <point x="764" y="480" type="curve" smooth="yes"/>
      <point x="677" y="687" type="line" smooth="yes"/>
      <point x="668" y="712"/>
      <point x="653" y="720"/>
      <point x="627" y="720" type="curve" smooth="yes"/>
    </contour>
    <contour>
      <point x="618" y="196" type="line"/>
      <point x="618" y="378" type="line"/>
      <point x="379" y="378" type="line"/>
      <point x="379" y="196" type="line"/>
    </contour>
    <contour>
      <point x="740" y="107" type="line"/>
      <point x="577" y="107" type="line"/>
      <point x="556" y="-11" type="line" smooth="yes"/>
      <point x="542" y="-104"/>
      <point x="571" y="-146"/>
      <point x="657" y="-146" type="curve" smooth="yes"/>
      <point x="768" y="-146" type="line" smooth="yes"/>
      <point x="794" y="-146"/>
      <point x="801" y="-138"/>
      <point x="801" y="-112" type="curve" smooth="yes"/>
      <point x="801" y="-40" type="line" smooth="yes"/>
      <point x="801" y="-14"/>
      <point x="793" y="-6"/>
      <point x="765" y="-6" type="curve" smooth="yes"/>
      <point x="724" y="-6" type="line"/>
    </contour>
  </outline>
</glyph>
<glyph name="Cacute" format="1">
  <advance width="1000"/>
  <unicode hex="0106"/>
  <outline>
    <contour>
      <point x="755" y="0" type="line" smooth="yes"/>
      <point x="780" y="0"/>
      <point x="791" y="11"/>
      <point x="791" y="36" type="curve" smooth="yes"/>
      <point x="791" y="155" type="line" smooth="yes"/>
      <point x="791" y="180"/>
      <point x="780" y="191"/>
      <point x="755" y="191" type="curve" smooth="yes"/>
      <point x="485" y="191" type="line" smooth="yes"/>
      <point x="433" y="191"/>
      <point x="424" y="211"/>
      <point x="424" y="239" type="curve" smooth="yes"/>
      <point x="424" y="437" type="line" smooth="yes"/>
      <point x="424" y="463"/>
      <point x="433" y="487"/>
      <point x="485" y="487" type="curve" smooth="yes"/>
      <point x="755" y="487" type="line" smooth="yes"/>
      <point x="780" y="487"/>
      <point x="791" y="498"/>
      <point x="791" y="523" type="curve" smooth="yes"/>
      <point x="791" y="644" type="line" smooth="yes"/>
      <point x="791" y="669"/>
      <point x="780" y="680"/>
      <point x="755" y="680" type="curve" smooth="yes"/>
      <point x="442" y="680" type="line" smooth="yes"/>
      <point x="253" y="680"/>
      <point x="196" y="597"/>
      <point x="196" y="475" type="curve" smooth="yes"/>
      <point x="196" y="204" type="line" smooth="yes"/>
      <point x="196" y="83"/>
      <point x="253" y="0"/>
      <point x="442" y="0" type="curve" smooth="yes"/>
    </contour>
    <contour>
      <point x="683" y="756" type="line" smooth="yes"/>
      <point x="708" y="759"/>
      <point x="719" y="767"/>
      <point x="719" y="792" type="curve" smooth="yes"/>
      <point x="719" y="888" type="line" smooth="yes"/>
      <point x="719" y="911"/>
      <point x="708" y="924"/>
      <point x="685" y="921" type="curve"/>
      <point x="336" y="878" type="line" smooth="yes"/>
      <point x="311" y="875"/>
      <point x="300" y="867"/>
      <point x="300" y="842" type="curve" smooth="yes"/>
      <point x="300" y="746" type="line" smooth="yes"/>
      <point x="300" y="723"/>
      <point x="311" y="710"/>
      <point x="334" y="713" type="curve" smooth="yes"/>
    </contour>
  </outline>
</glyph>
<glyph name="Ccircumflex" format="1">
  <advance width="1000"/>
  <unicode hex="0108"/>
  <outline>
    <contour>
      <point x="478" y="757" type="line"/>
      <point x="501" y="763"/>
      <point x="517" y="763"/>
      <point x="540" y="757" type="curve"/>
      <point x="677" y="717" type="line" smooth="yes"/>
      <point x="712" y="706"/>
      <point x="719" y="712"/>
      <point x="719" y="748" type="curve" smooth="yes"/>
      <point x="719" y="829" type="line" smooth="yes"/>
      <point x="719" y="865"/>
      <point x="711" y="869"/>
      <point x="677" y="882" type="curve" smooth="yes"/>
      <point x="540" y="932" type="line" smooth="yes"/>
      <point x="530" y="936"/>
      <point x="520" y="937"/>
      <point x="508" y="937" type="curve" smooth="yes"/>
      <point x="496" y="936"/>
      <point x="481" y="933"/>
      <point x="469" y="928" type="curve" smooth="yes"/>
      <point x="341" y="882" type="line" smooth="yes"/>
      <point x="309" y="869"/>
      <point x="300" y="865"/>
      <point x="300" y="829" type="curve" smooth="yes"/>
      <point x="300" y="748" type="line" smooth="yes"/>
      <point x="300" y="712"/>
      <point x="307" y="706"/>
      <point x="341" y="717" type="curve" smooth="yes"/>
    </contour>
    <contour>
      <point x="755" y="0" type="line" smooth="yes"/>
      <point x="780" y="0"/>
      <point x="791" y="11"/>
      <point x="791" y="36" type="curve" smooth="yes"/>
      <point x="791" y="155" type="line" smooth="yes"/>
      <point x="791" y="180"/>
      <point x="780" y="191"/>
      <point x="755" y="191" type="curve" smooth="yes"/>
      <point x="485" y="191" type="line" smooth="yes"/>
      <point x="433" y="191"/>
      <point x="424" y="211"/>
      <point x="424" y="239" type="curve" smooth="yes"/>
      <point x="424" y="437" type="line" smooth="yes"/>
      <point x="424" y="463"/>
      <point x="433" y="487"/>
      <point x="485" y="487" type="curve" smooth="yes"/>
      <point x="755" y="487" type="line" smooth="yes"/>
      <point x="780" y="487"/>
      <point x="791" y="498"/>
      <point x="791" y="523" type="curve" smooth="yes"/>
      <point x="791" y="644" type="line" smooth="yes"/>
      <point x="791" y="669"/>
      <point x="780" y="680"/>
      <point x="755" y="680" type="curve" smooth="yes"/>
      <point x="442" y="680" type="line" smooth="yes"/>
      <point x="253" y="680"/>
      <point x="196" y="597"/>
      <point x="196" y="475" type="curve" smooth="yes"/>
      <point x="196" y="204" type="line" smooth="yes"/>
      <point x="196" y="83"/>
      <point x="253" y="0"/>
      <point x="442" y="0" type="curve" smooth="yes"/>
    </contour>
  </outline>
</glyph>
<glyph name="Ccaron" format="1">
  <advance width="1000"/>
  <unicode hex="010C"/>
  <outline>
    <contour>
      <point x="541" y="892" type="line"/>
      <point x="518" y="886"/>
      <point x="502" y="886"/>
      <point x="479" y="892" type="curve"/>
      <point x="342" y="932" type="line" smooth="yes"/>
      <point x="307" y="943"/>
      <point x="300" y="937"/>
      <point x="300" y="901" type="curve" smooth="yes"/>
      <point x="300" y="820" type="line" smooth="yes"/>
      <point x="300" y="784"/>
      <point x="308" y="780"/>
      <point x="342" y="767" type="curve" smooth="yes"/>
      <point x="479" y="717" type="line" smooth="yes"/>
      <point x="489" y="713"/>
      <point x="499" y="712"/>
      <point x="511" y="712" type="curve" smooth="yes"/>
      <point x="523" y="713"/>
      <point x="538" y="716"/>
      <point x="550" y="721" type="curve" smooth="yes"/>
      <point x="678" y="767" type="line" smooth="yes"/>
      <point x="710" y="780"/>
      <point x="719" y="784"/>
      <point x="719" y="820" type="curve" smooth="yes"/>
      <point x="719" y="901" type="line" smooth="yes"/>
      <point x="719" y="937"/>
      <point x="712" y="943"/>
      <point x="678" y="932" type="curve" smooth="yes"/>
    </contour>
    <contour>
      <point x="755" y="0" type="line" smooth="yes"/>
      <point x="780" y="0"/>
      <point x="791" y="11"/>
      <point x="791" y="36" type="curve" smooth="yes"/>
      <point x="791" y="155" type="line" smooth="yes"/>
      <point x="791" y="180"/>
      <point x="780" y="191"/>
      <point x="755" y="191" type="curve" smooth="yes"/>
      <point x="485" y="191" type="line" smooth="yes"/>
      <point x="433" y="191"/>
      <point x="424" y="211"/>
      <point x="424" y="239" type="curve" smooth="yes"/>
      <point x="424" y="437" type="line" smooth="yes"/>
      <point x="424" y="463"/>
      <point x="433" y="487"/>
      <point x="485" y="487" type="curve" smooth="yes"/>
      <point x="755" y="487" type="line" smooth="yes"/>
      <point x="780" y="487"/>
      <point x="791" y="498"/>
      <point x="791" y="523" type="curve" smooth="yes"/>
      <point x="791" y="644" type="line" smooth="yes"/>
      <point x="791" y="669"/>
      <point x="780" y="680"/>
      <point x="755" y="680" type="curve" smooth="yes"/>
      <point x="442" y="680" type="line" smooth="yes"/>
      <point x="253" y="680"/>
      <point x="196" y="597"/>
      <point x="196" y="475" type="curve" smooth="yes"/>
      <point x="196" y="204" type="line" smooth="yes"/>
      <point x="196" y="83"/>
      <point x="253" y="0"/>
      <point x="442" y="0" type="curve" smooth="yes"/>
    </contour>
  </outline>
</glyph>
<glyph name="Dcaron" format="1">
  <advance width="1000"/>
  <unicode hex="010E"/>
  <outline>
    <contour>
      <point x="559" y="0" type="line" smooth="yes"/>
      <point x="748" y="0"/>
      <point x="805" y="83"/>
      <point x="805" y="204" type="curve" smooth="yes"/>
      <point x="805" y="476" type="line" smooth="yes"/>
      <point x="805" y="597"/>
      <point x="748" y="680"/>
      <point x="559" y="680" type="curve" smooth="yes"/>
      <point x="236" y="680" type="line" smooth="yes"/>
      <point x="211" y="680"/>
      <point x="200" y="669"/>
      <point x="200" y="644" type="curve" smooth="yes"/>
      <point x="200" y="36" type="line" smooth="yes"/>
      <point x="200" y="11"/>
      <point x="211" y="0"/>
      <point x="236" y="0" type="curve" smooth="yes"/>
    </contour>
    <contour>
      <point x="427" y="489" type="line"/>
      <point x="532" y="489" type="line" smooth="yes"/>
      <point x="572" y="489"/>
      <point x="579" y="467"/>
      <point x="579" y="441" type="curve" smooth="yes"/>
      <point x="579" y="238" type="line" smooth="yes"/>
      <point x="579" y="211"/>
      <point x="572" y="189"/>
      <point x="532" y="189" type="curve" smooth="yes"/>
      <point x="427" y="189" type="line"/>
    </contour>
    <contour>
      <point x="531" y="892" type="line"/>
      <point x="508" y="886"/>
      <point x="492" y="886"/>
      <point x="469" y="892" type="curve"/>
      <point x="332" y="932" type="line" smooth="yes"/>
      <point x="297" y="943"/>
      <point x="290" y="937"/>
      <point x="290" y="901" type="curve" smooth="yes"/>
      <point x="290" y="820" type="line" smooth="yes"/>
      <point x="290" y="784"/>
      <point x="298" y="780"/>
      <point x="332" y="767" type="curve" smooth="yes"/>
      <point x="469" y="717" type="line" smooth="yes"/>
      <point x="479" y="713"/>
      <point x="489" y="712"/>
      <point x="501" y="712" type="curve" smooth="yes"/>
      <point x="513" y="713"/>
      <point x="528" y="716"/>
      <point x="540" y="721" type="curve" smooth="yes"/>
      <point x="668" y="767" type="line" smooth="yes"/>
      <point x="700" y="780"/>
      <point x="709" y="784"/>
      <point x="709" y="820" type="curve" smooth="yes"/>
      <point x="709" y="901" type="line" smooth="yes"/>
      <point x="709" y="937"/>
      <point x="702" y="943"/>
      <point x="668" y="932" type="curve" smooth="yes"/>
    </contour>
  </outline>
</glyph>
<glyph name="Emacron" format="1">
  <advance width="1000"/>
  <unicode hex="0112"/>
  <outline>
    <contour>
      <point x="673" y="720" type="line" smooth="yes"/>
      <point x="698" y="720"/>
      <point x="709" y="731"/>
      <point x="709" y="756" type="curve" smooth="yes"/>
      <point x="709" y="849" type="line" smooth="yes"/>
      <point x="709" y="874"/>
      <point x="698" y="885"/>
      <point x="673" y="885" type="curve" smooth="yes"/>
      <point x="326" y="885" type="line" smooth="yes"/>
      <point x="301" y="885"/>
      <point x="290" y="874"/>
      <point x="290" y="849" type="curve" smooth="yes"/>
      <point x="290" y="756" type="line" smooth="yes"/>
      <point x="290" y="731"/>
      <point x="301" y="720"/>
      <point x="326" y="720" type="curve" smooth="yes"/>
    </contour>
    <contour>
      <point x="754" y="0" type="line" smooth="yes"/>
      <point x="779" y="0"/>
      <point x="790" y="11"/>
      <point x="790" y="36" type="curve" smooth="yes"/>
      <point x="790" y="149" type="line" smooth="yes"/>
      <point x="790" y="174"/>
      <point x="779" y="185"/>
      <point x="754" y="185" type="curve" smooth="yes"/>
      <point x="424" y="185" type="line"/>
      <point x="424" y="261" type="line"/>
      <point x="673" y="261" type="line" smooth="yes"/>
      <point x="698" y="261"/>
      <point x="709" y="272"/>
      <point x="709" y="297" type="curve" smooth="yes"/>
      <point x="709" y="392" type="line" smooth="yes"/>
      <point x="709" y="418"/>
      <point x="698" y="428"/>
      <point x="673" y="428" type="curve" smooth="yes"/>
      <point x="424" y="428" type="line"/>
      <point x="424" y="495" type="line"/>
      <point x="754" y="495" type="line" smooth="yes"/>
      <point x="779" y="495"/>
      <point x="790" y="506"/>
      <point x="790" y="531" type="curve" smooth="yes"/>
      <point x="790" y="644" type="line" smooth="yes"/>
      <point x="790" y="669"/>
      <point x="779" y="680"/>
      <point x="754" y="680" type="curve" smooth="yes"/>
      <point x="236" y="680" type="line" smooth="yes"/>
      <point x="211" y="680"/>
      <point x="200" y="669"/>
      <point x="200" y="644" type="curve" smooth="yes"/>
      <point x="200" y="36" type="line" smooth="yes"/>
      <point x="200" y="11"/>
      <point x="211" y="0"/>
      <point x="236" y="0" type="curve" smooth="yes"/>
    </contour>
  </outline>
</glyph>
<glyph name="Edotaccent" format="1">
  <advance width="1000"/>
  <unicode hex="0116"/>
  <outline>
    <contour>
      <point x="580" y="720" type="line" smooth="yes"/>
      <point x="605" y="720"/>
      <point x="616" y="731"/>
      <point x="616" y="756" type="curve" smooth="yes"/>
      <point x="616" y="883" type="line" smooth="yes"/>
      <point x="616" y="908"/>
      <point x="605" y="919"/>
      <point x="580" y="919" type="curve"/>
      <point x="422" y="919" type="line" smooth="yes"/>
      <point x="397" y="919"/>
      <point x="386" y="908"/>
      <point x="386" y="883" type="curve" smooth="yes"/>
      <point x="386" y="756" type="line" smooth="yes"/>
      <point x="386" y="731"/>
      <point x="397" y="720"/>
      <point x="422" y="720" type="curve" smooth="yes"/>
    </contour>
    <contour>
      <point x="754" y="0" type="line" smooth="yes"/>
      <point x="779" y="0"/>
      <point x="790" y="11"/>
      <point x="790" y="36" type="curve" smooth="yes"/>
      <point x="790" y="149" type="line" smooth="yes"/>
      <point x="790" y="174"/>
      <point x="779" y="185"/>
      <point x="754" y="185" type="curve" smooth="yes"/>
      <point x="424" y="185" type="line"/>
      <point x="424" y="261" type="line"/>
      <point x="673" y="261" type="line" smooth="yes"/>
      <point x="698" y="261"/>
      <point x="709" y="272"/>
      <point x="709" y="297" type="curve" smooth="yes"/>
      <point x="709" y="392" type="line" smooth="yes"/>
      <point x="709" y="418"/>
      <point x="698" y="428"/>
      <point x="673" y="428" type="curve" smooth="yes"/>
      <point x="424" y="428" type="line"/>
      <point x="424" y="495" type="line"/>
      <point x="754" y="495" type="line" smooth="yes"/>
      <point x="779" y="495"/>
      <point x="790" y="506"/>
      <point x="790" y="531" type="curve" smooth="yes"/>
      <point x="790" y="644" type="line" smooth="yes"/>
      <point x="790" y="669"/>
      <point x="779" y="680"/>
      <point x="754" y="680" type="curve" smooth="yes"/>
      <point x="236" y="680" type="line" smooth="yes"/>
      <point x="211" y="680"/>
      <point x="200" y="669"/>
      <point x="200" y="644" type="curve" smooth="yes"/>
      <point x="200" y="36" type="line" smooth="yes"/>
      <point x="200" y="11"/>
      <point x="211" y="0"/>
      <point x="236" y="0" type="curve" smooth="yes"/>
    </contour>
  </outline>
</glyph>
<glyph name="Ecaron" format="1">
  <advance width="1000"/>
  <unicode hex="011A"/>
  <outline>
    <contour>
      <point x="754" y="0" type="line" smooth="yes"/>
      <point x="779" y="0"/>
      <point x="790" y="11"/>
      <point x="790" y="36" type="curve" smooth="yes"/>
      <point x="790" y="149" type="line" smooth="yes"/>
      <point x="790" y="174"/>
      <point x="779" y="185"/>
      <point x="754" y="185" type="curve" smooth="yes"/>
      <point x="424" y="185" type="line"/>
      <point x="424" y="261" type="line"/>
      <point x="673" y="261" type="line" smooth="yes"/>
      <point x="698" y="261"/>
      <point x="709" y="272"/>
      <point x="709" y="297" type="curve" smooth="yes"/>
      <point x="709" y="392" type="line" smooth="yes"/>
      <point x="709" y="418"/>
      <point x="698" y="428"/>
      <point x="673" y="428" type="curve" smooth="yes"/>
      <point x="424" y="428" type="line"/>
      <point x="424" y="495" type="line"/>
      <point x="754" y="495" type="line" smooth="yes"/>
      <point x="779" y="495"/>
      <point x="790" y="506"/>
      <point x="790" y="531" type="curve" smooth="yes"/>
      <point x="790" y="644" type="line" smooth="yes"/>
      <point x="790" y="669"/>
      <point x="779" y="680"/>
      <point x="754" y="680" type="curve" smooth="yes"/>
      <point x="236" y="680" type="line" smooth="yes"/>
      <point x="211" y="680"/>
      <point x="200" y="669"/>
      <point x="200" y="644" type="curve" smooth="yes"/>
      <point x="200" y="36" type="line" smooth="yes"/>
      <point x="200" y="11"/>
      <point x="211" y="0"/>
      <point x="236" y="0" type="curve" smooth="yes"/>
    </contour>
    <contour>
      <point x="531" y="892" type="line"/>
      <point x="508" y="886"/>
      <point x="492" y="886"/>
      <point x="469" y="892" type="curve"/>
      <point x="332" y="932" type="line" smooth="yes"/>
      <point x="297" y="943"/>
      <point x="290" y="937"/>
      <point x="290" y="901" type="curve" smooth="yes"/>
      <point x="290" y="820" type="line" smooth="yes"/>
      <point x="290" y="784"/>
      <point x="298" y="780"/>
      <point x="332" y="767" type="curve" smooth="yes"/>
      <point x="469" y="717" type="line" smooth="yes"/>
      <point x="479" y="713"/>
      <point x="489" y="712"/>
      <point x="501" y="712" type="curve" smooth="yes"/>
      <point x="513" y="713"/>
      <point x="528" y="716"/>
      <point x="540" y="721" type="curve" smooth="yes"/>
      <point x="668" y="767" type="line" smooth="yes"/>
      <point x="700" y="780"/>
      <point x="709" y="784"/>
      <point x="709" y="820" type="curve" smooth="yes"/>
      <point x="709" y="901" type="line" smooth="yes"/>
      <point x="709" y="937"/>
      <point x="702" y="943"/>
      <point x="668" y="932" type="curve" smooth="yes"/>
    </contour>
  </outline>
</glyph>
<glyph name="Gcircumflex" format="1">
  <advance width="1000"/>
  <unicode hex="011C"/>
  <outline>
    <contour>
      <point x="764" y="0" type="line" smooth="yes"/>
      <point x="789" y="0"/>
      <point x="800" y="11"/>
      <point x="800" y="36" type="curve" smooth="yes"/>
      <point x="800" y="325" type="line" smooth="yes"/>
      <point x="800" y="350"/>
      <point x="789" y="361"/>
      <point x="764" y="361" type="curve" smooth="yes"/>
      <point x="609" y="361" type="line" smooth="yes"/>
      <point x="584" y="361"/>
      <point x="573" y="350"/>
      <point x="573" y="325" type="curve" smooth="yes"/>
      <point x="573" y="189" type="line"/>
      <point x="468" y="189" type="line" smooth="yes"/>
      <point x="428" y="189"/>
      <point x="422" y="211"/>
      <point x="422" y="238" type="curve" smooth="yes"/>
      <point x="422" y="437" type="line" smooth="yes"/>
      <point x="422" y="463"/>
      <point x="431" y="487"/>
      <point x="483" y="487" type="curve" smooth="yes"/>
      <point x="699" y="487" type="line" smooth="yes"/>
      <point x="724" y="487"/>
      <point x="735" y="498"/>
      <point x="735" y="523" type="curve" smooth="yes"/>
      <point x="735" y="644" type="line" smooth="yes"/>
      <point x="735" y="669"/>
      <point x="724" y="680"/>
      <point x="699" y="680" type="curve" smooth="yes"/>
      <point x="441" y="680" type="line" smooth="yes"/>
      <point x="252" y="680"/>
      <point x="195" y="597"/>
      <point x="195" y="476" type="curve" smooth="yes"/>
      <point x="195" y="204" type="line" smooth="yes"/>
      <point x="195" y="83"/>
      <point x="252" y="0"/>
      <point x="441" y="0" type="curve" smooth="yes"/>
    </contour>
    <contour>
      <point x="468" y="757" type="line"/>
      <point x="491" y="763"/>
      <point x="507" y="763"/>
      <point x="530" y="757" type="curve"/>
      <point x="667" y="717" type="line" smooth="yes"/>
      <point x="702" y="706"/>
      <point x="709" y="712"/>
      <point x="709" y="748" type="curve" smooth="yes"/>
      <point x="709" y="829" type="line" smooth="yes"/>
      <point x="709" y="865"/>
      <point x="701" y="869"/>
      <point x="667" y="882" type="curve" smooth="yes"/>
      <point x="530" y="932" type="line" smooth="yes"/>
      <point x="520" y="936"/>
      <point x="510" y="937"/>
      <point x="498" y="937" type="curve" smooth="yes"/>
      <point x="486" y="936"/>
      <point x="471" y="933"/>
      <point x="459" y="928" type="curve" smooth="yes"/>
      <point x="331" y="882" type="line" smooth="yes"/>
      <point x="299" y="869"/>
      <point x="290" y="865"/>
      <point x="290" y="829" type="curve" smooth="yes"/>
      <point x="290" y="748" type="line" smooth="yes"/>
      <point x="290" y="712"/>
      <point x="297" y="706"/>
      <point x="331" y="717" type="curve" smooth="yes"/>
    </contour>
  </outline>
</glyph>
<glyph name="Gbreve" format="1">
  <advance width="1000"/>
  <unicode hex="011E"/>
  <outline>
    <contour>
      <point x="764" y="0" type="line" smooth="yes"/>
      <point x="789" y="0"/>
      <point x="800" y="11"/>
      <point x="800" y="36" type="curve" smooth="yes"/>
      <point x="800" y="325" type="line" smooth="yes"/>
      <point x="800" y="350"/>
      <point x="789" y="361"/>
      <point x="764" y="361" type="curve" smooth="yes"/>
      <point x="609" y="361" type="line" smooth="yes"/>
      <point x="584" y="361"/>
      <point x="573" y="350"/>
      <point x="573" y="325" type="curve" smooth="yes"/>
      <point x="573" y="189" type="line"/>
      <point x="468" y="189" type="line" smooth="yes"/>
      <point x="428" y="189"/>
      <point x="422" y="211"/>
      <point x="422" y="238" type="curve" smooth="yes"/>
      <point x="422" y="437" type="line" smooth="yes"/>
      <point x="422" y="463"/>
      <point x="431" y="487"/>
      <point x="483" y="487" type="curve" smooth="yes"/>
      <point x="699" y="487" type="line" smooth="yes"/>
      <point x="724" y="487"/>
      <point x="735" y="498"/>
      <point x="735" y="523" type="curve" smooth="yes"/>
      <point x="735" y="644" type="line" smooth="yes"/>
      <point x="735" y="669"/>
      <point x="724" y="680"/>
      <point x="699" y="680" type="curve" smooth="yes"/>
      <point x="441" y="680" type="line" smooth="yes"/>
      <point x="252" y="680"/>
      <point x="195" y="597"/>
      <point x="195" y="476" type="curve" smooth="yes"/>
      <point x="195" y="204" type="line" smooth="yes"/>
      <point x="195" y="83"/>
      <point x="252" y="0"/>
      <point x="441" y="0" type="curve" smooth="yes"/>
    </contour>
    <contour>
      <point x="717" y="857" type="curve"/>
      <point x="717" y="901" type="line" smooth="yes"/>
      <point x="717" y="926"/>
      <point x="706" y="937"/>
      <point x="681" y="937" type="curve"/>
      <point x="590" y="937" type="line" smooth="yes"/>
      <point x="567" y="937"/>
      <point x="560" y="930"/>
      <point x="560" y="906" type="curve" smooth="yes"/>
      <point x="560" y="885" type="line" smooth="yes"/>
      <point x="560" y="866"/>
      <point x="551" y="852"/>
      <point x="501" y="852" type="curve" smooth="yes"/>
      <point x="452" y="852"/>
      <point x="444" y="866"/>
      <point x="444" y="885" type="curve" smooth="yes"/>
      <point x="444" y="906" type="line" smooth="yes"/>
      <point x="444" y="930"/>
      <point x="436" y="937"/>
      <point x="415" y="937" type="curve" smooth="yes"/>
      <point x="319" y="937" type="line" smooth="yes"/>
      <point x="294" y="937"/>
      <point x="283" y="926"/>
      <point x="283" y="901" type="curve" smooth="yes"/>
      <point x="283" y="857" type="line" smooth="yes"/>
      <point x="283" y="772"/>
      <point x="326" y="714"/>
      <point x="500" y="714" type="curve" smooth="yes"/>
      <point x="674" y="714"/>
      <point x="717" y="772"/>
    </contour>
  </outline>
</glyph>
<glyph name="Gdotaccent" format="1">
  <advance width="1000"/>
  <unicode hex="0120"/>
  <outline>
    <contour>
      <point x="764" y="0" type="line" smooth="yes"/>
      <point x="789" y="0"/>
      <point x="800" y="11"/>
      <point x="800" y="36" type="curve" smooth="yes"/>
      <point x="800" y="325" type="line" smooth="yes"/>
      <point x="800" y="350"/>
      <point x="789" y="361"/>
      <point x="764" y="361" type="curve" smooth="yes"/>
      <point x="609" y="361" type="line" smooth="yes"/>
      <point x="584" y="361"/>
      <point x="573" y="350"/>
      <point x="573" y="325" type="curve" smooth="yes"/>
      <point x="573" y="189" type="line"/>
      <point x="468" y="189" type="line" smooth="yes"/>
      <point x="428" y="189"/>
      <point x="422" y="211"/>
      <point x="422" y="238" type="curve" smooth="yes"/>
      <point x="422" y="437" type="line" smooth="yes"/>
      <point x="422" y="463"/>
      <point x="431" y="487"/>
      <point x="483" y="487" type="curve" smooth="yes"/>
      <point x="699" y="487" type="line" smooth="yes"/>
      <point x="724" y="487"/>
      <point x="735" y="498"/>
      <point x="735" y="523" type="curve" smooth="yes"/>
      <point x="735" y="644" type="line" smooth="yes"/>
      <point x="735" y="669"/>
      <point x="724" y="680"/>
      <point x="699" y="680" type="curve" smooth="yes"/>
      <point x="441" y="680" type="line" smooth="yes"/>
      <point x="252" y="680"/>
      <point x="195" y="597"/>
      <point x="195" y="476" type="curve" smooth="yes"/>
      <point x="195" y="204" type="line" smooth="yes"/>
      <point x="195" y="83"/>
      <point x="252" y="0"/>
      <point x="441" y="0" type="curve" smooth="yes"/>
    </contour>
    <contour>
      <point x="580" y="720" type="line" smooth="yes"/>
      <point x="605" y="720"/>
      <point x="616" y="731"/>
      <point x="616" y="756" type="curve" smooth="yes"/>
      <point x="616" y="883" type="line" smooth="yes"/>
      <point x="616" y="908"/>
      <point x="605" y="919"/>
      <point x="580" y="919" type="curve"/>
      <point x="422" y="919" type="line" smooth="yes"/>
      <point x="397" y="919"/>
      <point x="386" y="908"/>
      <point x="386" y="883" type="curve" smooth="yes"/>
      <point x="386" y="756" type="line" smooth="yes"/>
      <point x="386" y="731"/>
      <point x="397" y="720"/>
      <point x="422" y="720" type="curve" smooth="yes"/>
    </contour>
  </outline>
</glyph>
<glyph name="Gcommaaccent" format="1">
  <advance width="1000"/>
  <unicode hex="0122"/>
  <outline>
    <contour>
      <point x="764" y="40" type="line" smooth="yes"/>
      <point x="789" y="40"/>
      <point x="800" y="51"/>
      <point x="800" y="76" type="curve" smooth="yes"/>
      <point x="800" y="365" type="line" smooth="yes"/>
      <point x="800" y="390"/>
      <point x="789" y="401"/>
      <point x="764" y="401" type="curve" smooth="yes"/>
      <point x="609" y="401" type="line" smooth="yes"/>
      <point x="584" y="401"/>
      <point x="573" y="390"/>
      <point x="573" y="365" type="curve" smooth="yes"/>
      <point x="573" y="229" type="line"/>
      <point x="468" y="229" type="line" smooth="yes"/>
      <point x="428" y="229"/>
      <point x="422" y="251"/>
      <point x="422" y="278" type="curve" smooth="yes"/>
      <point x="422" y="477" type="line" smooth="yes"/>
      <point x="422" y="503"/>
      <point x="431" y="527"/>
      <point x="483" y="527" type="curve" smooth="yes"/>
      <point x="699" y="527" type="line" smooth="yes"/>
      <point x="724" y="527"/>
      <point x="735" y="538"/>
      <point x="735" y="563" type="curve" smooth="yes"/>
      <point x="735" y="684" type="line" smooth="yes"/>
      <point x="735" y="709"/>
      <point x="724" y="720"/>
      <point x="699" y="720" type="curve" smooth="yes"/>
      <point x="441" y="720" type="line" smooth="yes"/>
      <point x="252" y="720"/>
      <point x="195" y="637"/>
      <point x="195" y="516" type="curve" smooth="yes"/>
      <point x="195" y="244" type="line" smooth="yes"/>
      <point x="195" y="123"/>
      <point x="252" y="40"/>
      <point x="441" y="40" type="curve" smooth="yes"/>
    </contour>
    <contour>
      <point x="492" y="-290" type="line" smooth="yes"/>
      <point x="568" y="-290"/>
      <point x="617" y="-248"/>
      <point x="617" y="-162" type="curve" smooth="yes"/>
      <point x="617" y="-50" type="line" smooth="yes"/>
      <point x="617" y="-19"/>
      <point x="608" y="-10"/>
      <point x="580" y="-10" type="curve" smooth="yes"/>
      <point x="422" y="-10" type="line" smooth="yes"/>
      <point x="394" y="-10"/>
      <point x="385" y="-19"/>
      <point x="385" y="-50" type="curve" smooth="yes"/>
      <point x="385" y="-129" type="line" smooth="yes"/>
      <point x="385" y="-159"/>
      <point x="394" y="-168"/>
      <point x="422" y="-168" type="curve" smooth="yes"/>
      <point x="508" y="-168" type="line"/>
      <point x="508" y="-181" type="line" smooth="yes"/>
      <point x="508" y="-196"/>
      <point x="500" y="-205"/>
      <point x="485" y="-205" type="curve" smooth="yes"/>
      <point x="426" y="-205" type="line" smooth="yes"/>
      <point x="405" y="-205"/>
      <point x="396" y="-214"/>
      <point x="396" y="-235" type="curve" smooth="yes"/>
      <point x="396" y="-259" type="line" smooth="yes"/>
      <point x="396" y="-281"/>
      <point x="405" y="-290"/>
      <point x="426" y="-290" type="curve" smooth="yes"/>
    </contour>
  </outline>
</glyph>
<glyph name="Hbar" format="1">
  <advance width="1000"/>
  <unicode hex="0126"/>
  <outline>
    <contour>
      <point x="387" y="0" type="line" smooth="yes"/>
      <point x="412" y="0"/>
      <point x="423" y="11"/>
      <point x="423" y="36" type="curve" smooth="yes"/>
      <point x="423" y="148" type="line"/>
      <point x="576" y="148" type="line"/>
      <point x="576" y="36" type="line" smooth="yes"/>
      <point x="576" y="11"/>
      <point x="587" y="0"/>
      <point x="612" y="0" type="curve" smooth="yes"/>
      <point x="764" y="0" type="line" smooth="yes"/>
      <point x="789" y="0"/>
      <point x="800" y="11"/>
      <point x="800" y="36" type="curve" smooth="yes"/>
      <point x="800" y="684" type="line" smooth="yes"/>
      <point x="800" y="709"/>
      <point x="789" y="720"/>
      <point x="764" y="720" type="curve" smooth="yes"/>
      <point x="612" y="720" type="line" smooth="yes"/>
      <point x="587" y="720"/>
      <point x="576" y="709"/>
      <point x="576" y="684" type="curve" smooth="yes"/>
      <point x="576" y="347" type="line"/>
      <point x="423" y="347" type="line"/>
      <point x="423" y="684" type="line" smooth="yes"/>
      <point x="423" y="709"/>
      <point x="412" y="720"/>
      <point x="387" y="720" type="curve" smooth="yes"/>
      <point x="235" y="720" type="line" smooth="yes"/>
      <point x="210" y="720"/>
      <point x="199" y="709"/>
      <point x="199" y="684" type="curve" smooth="yes"/>
      <point x="199" y="36" type="line" smooth="yes"/>
      <point x="199" y="11"/>
      <point x="210" y="0"/>
      <point x="235" y="0" type="curve" smooth="yes"/>
    </contour>
    <contour>
      <point x="186" y="425" type="curve"/>
      <point x="813" y="425" type="line" smooth="yes"/>
      <point x="838" y="425"/>
      <point x="849" y="435"/>
      <point x="849" y="461" type="curve" smooth="yes"/>
      <point x="849" y="558" type="line" smooth="yes"/>
      <point x="849" y="584"/>
      <point x="838" y="594"/>
      <point x="813" y="594" type="curve" smooth="yes"/>
      <point x="186" y="594" type="line" smooth="yes"/>
      <point x="161" y="594"/>
      <point x="150" y="583"/>
      <point x="150" y="558" type="curve" smooth="yes"/>
      <point x="150" y="461" type="line" smooth="yes"/>
      <point x="150" y="435"/>
      <point x="161" y="425"/>
    </contour>
  </outline>
</glyph>
<glyph name="Itilde" format="1">
  <advance width="1000"/>
  <unicode hex="0128"/>
  <outline>
    <contour>
      <point x="245" y="0" type="curve" smooth="yes"/>
      <point x="755" y="0" type="line" smooth="yes"/>
      <point x="780" y="0"/>
      <point x="791" y="11"/>
      <point x="791" y="36" type="curve" smooth="yes"/>
      <point x="791" y="155" type="line" smooth="yes"/>
      <point x="791" y="180"/>
      <point x="780" y="191"/>
      <point x="755" y="191" type="curve" smooth="yes"/>
      <point x="621" y="191" type="line"/>
      <point x="621" y="487" type="line"/>
      <point x="755" y="487" type="line" smooth="yes"/>
      <point x="780" y="487"/>
      <point x="791" y="498"/>
      <point x="791" y="523" type="curve" smooth="yes"/>
      <point x="791" y="644" type="line" smooth="yes"/>
      <point x="791" y="669"/>
      <point x="780" y="680"/>
      <point x="755" y="680" type="curve" smooth="yes"/>
      <point x="245" y="680" type="line" smooth="yes"/>
      <point x="220" y="680"/>
      <point x="209" y="669"/>
      <point x="209" y="644" type="curve" smooth="yes"/>
      <point x="209" y="523" type="line" smooth="yes"/>
      <point x="209" y="498"/>
      <point x="220" y="487"/>
      <point x="245" y="487" type="curve" smooth="yes"/>
      <point x="379" y="487" type="line"/>
      <point x="379" y="191" type="line"/>
      <point x="245" y="191" type="line" smooth="yes"/>
      <point x="220" y="191"/>
      <point x="209" y="180"/>
      <point x="209" y="155" type="curve" smooth="yes"/>
      <point x="209" y="36" type="line" smooth="yes"/>
      <point x="209" y="11"/>
      <point x="220" y="0"/>
    </contour>
    <contour>
      <point x="499" y="724" type="line"/>
      <point x="515" y="722" type="line" smooth="yes"/>
      <point x="595" y="710"/>
      <point x="609" y="708"/>
      <point x="672" y="727" type="curve"/>
      <point x="695" y="736"/>
      <point x="708" y="743"/>
      <point x="708" y="768" type="curve" smooth="yes"/>
      <point x="708" y="869" type="line" smooth="yes"/>
      <point x="708" y="894"/>
      <point x="696" y="902"/>
      <point x="672" y="895" type="curve" smooth="yes"/>
      <point x="613" y="877"/>
      <point x="609" y="874"/>
      <point x="521" y="887" type="curve" smooth="yes"/>
      <point x="499" y="890" type="line"/>
      <point x="482" y="892" type="line" smooth="yes"/>
      <point x="402" y="904"/>
      <point x="389" y="906"/>
      <point x="326" y="887" type="curve"/>
      <point x="303" y="878"/>
      <point x="290" y="871"/>
      <point x="290" y="846" type="curve" smooth="yes"/>
      <point x="290" y="745" type="line" smooth="yes"/>
      <point x="290" y="720"/>
      <point x="302" y="712"/>
      <point x="326" y="719" type="curve" smooth="yes"/>
      <point x="379" y="735"/>
      <point x="395" y="739"/>
      <point x="471" y="728" type="curve" smooth="yes"/>
    </contour>
  </outline>
</glyph>
<glyph name="Imacron" format="1">
  <advance width="1000"/>
  <unicode hex="012A"/>
  <outline>
    <contour>
      <point x="245" y="0" type="curve" smooth="yes"/>
      <point x="755" y="0" type="line" smooth="yes"/>
      <point x="780" y="0"/>
      <point x="791" y="11"/>
      <point x="791" y="36" type="curve" smooth="yes"/>
      <point x="791" y="155" type="line" smooth="yes"/>
      <point x="791" y="180"/>
      <point x="780" y="191"/>
      <point x="755" y="191" type="curve" smooth="yes"/>
      <point x="621" y="191" type="line"/>
      <point x="621" y="487" type="line"/>
      <point x="755" y="487" type="line" smooth="yes"/>
      <point x="780" y="487"/>
      <point x="791" y="498"/>
      <point x="791" y="523" type="curve" smooth="yes"/>
      <point x="791" y="644" type="line" smooth="yes"/>
      <point x="791" y="669"/>
      <point x="780" y="680"/>
      <point x="755" y="680" type="curve" smooth="yes"/>
      <point x="245" y="680" type="line" smooth="yes"/>
      <point x="220" y="680"/>
      <point x="209" y="669"/>
      <point x="209" y="644" type="curve" smooth="yes"/>
      <point x="209" y="523" type="line" smooth="yes"/>
      <point x="209" y="498"/>
      <point x="220" y="487"/>
      <point x="245" y="487" type="curve" smooth="yes"/>
      <point x="379" y="487" type="line"/>
      <point x="379" y="191" type="line"/>
      <point x="245" y="191" type="line" smooth="yes"/>
      <point x="220" y="191"/>
      <point x="209" y="180"/>
      <point x="209" y="155" type="curve" smooth="yes"/>
      <point x="209" y="36" type="line" smooth="yes"/>
      <point x="209" y="11"/>
      <point x="220" y="0"/>
    </contour>
    <contour>
      <point x="673" y="720" type="line" smooth="yes"/>
      <point x="698" y="720"/>
      <point x="709" y="731"/>
      <point x="709" y="756" type="curve" smooth="yes"/>
      <point x="709" y="849" type="line" smooth="yes"/>
      <point x="709" y="874"/>
      <point x="698" y="885"/>
      <point x="673" y="885" type="curve" smooth="yes"/>
      <point x="326" y="885" type="line" smooth="yes"/>
      <point x="301" y="885"/>
      <point x="290" y="874"/>
      <point x="290" y="849" type="curve" smooth="yes"/>
      <point x="290" y="756" type="line" smooth="yes"/>
      <point x="290" y="731"/>
      <point x="301" y="720"/>
      <point x="326" y="720" type="curve" smooth="yes"/>
    </contour>
  </outline>
</glyph>
<glyph name="Ibreve" format="1">
  <advance width="1000"/>
  <unicode hex="012C"/>
  <outline>
    <contour>
      <point x="245" y="0" type="curve" smooth="yes"/>
      <point x="755" y="0" type="line" smooth="yes"/>
      <point x="780" y="0"/>
      <point x="791" y="11"/>
      <point x="791" y="36" type="curve" smooth="yes"/>
      <point x="791" y="155" type="line" smooth="yes"/>
      <point x="791" y="180"/>
      <point x="780" y="191"/>
      <point x="755" y="191" type="curve" smooth="yes"/>
      <point x="621" y="191" type="line"/>
      <point x="621" y="487" type="line"/>
      <point x="755" y="487" type="line" smooth="yes"/>
      <point x="780" y="487"/>
      <point x="791" y="498"/>
      <point x="791" y="523" type="curve" smooth="yes"/>
      <point x="791" y="644" type="line" smooth="yes"/>
      <point x="791" y="669"/>
      <point x="780" y="680"/>
      <point x="755" y="680" type="curve" smooth="yes"/>
      <point x="245" y="680" type="line" smooth="yes"/>
      <point x="220" y="680"/>
      <point x="209" y="669"/>
      <point x="209" y="644" type="curve" smooth="yes"/>
      <point x="209" y="523" type="line" smooth="yes"/>
      <point x="209" y="498"/>
      <point x="220" y="487"/>
      <point x="245" y="487" type="curve" smooth="yes"/>
      <point x="379" y="487" type="line"/>
      <point x="379" y="191" type="line"/>
      <point x="245" y="191" type="line" smooth="yes"/>
      <point x="220" y="191"/>
      <point x="209" y="180"/>
      <point x="209" y="155" type="curve" smooth="yes"/>
      <point x="209" y="36" type="line" smooth="yes"/>
      <point x="209" y="11"/>
      <point x="220" y="0"/>
    </contour>
    <contour>
      <point x="717" y="857" type="curve"/>
      <point x="717" y="901" type="line" smooth="yes"/>
      <point x="717" y="926"/>
      <point x="706" y="937"/>
      <point x="681" y="937" type="curve"/>
      <point x="590" y="937" type="line" smooth="yes"/>
      <point x="567" y="937"/>
      <point x="560" y="930"/>
      <point x="560" y="906" type="curve" smooth="yes"/>
      <point x="560" y="885" type="line" smooth="yes"/>
      <point x="560" y="866"/>
      <point x="551" y="852"/>
      <point x="501" y="852" type="curve" smooth="yes"/>
      <point x="452" y="852"/>
      <point x="444" y="866"/>
      <point x="444" y="885" type="curve" smooth="yes"/>
      <point x="444" y="906" type="line" smooth="yes"/>
      <point x="444" y="930"/>
      <point x="436" y="937"/>
      <point x="415" y="937" type="curve" smooth="yes"/>
      <point x="319" y="937" type="line" smooth="yes"/>
      <point x="294" y="937"/>
      <point x="283" y="926"/>
      <point x="283" y="901" type="curve" smooth="yes"/>
      <point x="283" y="857" type="line" smooth="yes"/>
      <point x="283" y="772"/>
      <point x="326" y="714"/>
      <point x="500" y="714" type="curve" smooth="yes"/>
      <point x="674" y="714"/>
      <point x="717" y="772"/>
    </contour>
  </outline>
</glyph>
<glyph name="Idotaccent" format="1">
  <advance width="1000"/>
  <unicode hex="0130"/>
  <outline>
    <contour>
      <point x="245" y="0" type="curve" smooth="yes"/>
      <point x="755" y="0" type="line" smooth="yes"/>
      <point x="780" y="0"/>
      <point x="791" y="11"/>
      <point x="791" y="36" type="curve" smooth="yes"/>
      <point x="791" y="155" type="line" smooth="yes"/>
      <point x="791" y="180"/>
      <point x="780" y="191"/>
      <point x="755" y="191" type="curve" smooth="yes"/>
      <point x="621" y="191" type="line"/>
      <point x="621" y="487" type="line"/>
      <point x="755" y="487" type="line" smooth="yes"/>
      <point x="780" y="487"/>
      <point x="791" y="498"/>
      <point x="791" y="523" type="curve" smooth="yes"/>
      <point x="791" y="644" type="line" smooth="yes"/>
      <point x="791" y="669"/>
      <point x="780" y="680"/>
      <point x="755" y="680" type="curve" smooth="yes"/>
      <point x="245" y="680" type="line" smooth="yes"/>
      <point x="220" y="680"/>
      <point x="209" y="669"/>
      <point x="209" y="644" type="curve" smooth="yes"/>
      <point x="209" y="523" type="line" smooth="yes"/>
      <point x="209" y="498"/>
      <point x="220" y="487"/>
      <point x="245" y="487" type="curve" smooth="yes"/>
      <point x="379" y="487" type="line"/>
      <point x="379" y="191" type="line"/>
      <point x="245" y="191" type="line" smooth="yes"/>
      <point x="220" y="191"/>
      <point x="209" y="180"/>
      <point x="209" y="155" type="curve" smooth="yes"/>
      <point x="209" y="36" type="line" smooth="yes"/>
      <point x="209" y="11"/>
      <point x="220" y="0"/>
    </contour>
    <contour>
      <point x="580" y="720" type="line" smooth="yes"/>
      <point x="605" y="720"/>
      <point x="616" y="731"/>
      <point x="616" y="756" type="curve" smooth="yes"/>
      <point x="616" y="883" type="line" smooth="yes"/>
      <point x="616" y="908"/>
      <point x="605" y="919"/>
      <point x="580" y="919" type="curve"/>
      <point x="422" y="919" type="line" smooth="yes"/>
      <point x="397" y="919"/>
      <point x="386" y="908"/>
      <point x="386" y="883" type="curve" smooth="yes"/>
      <point x="386" y="756" type="line" smooth="yes"/>
      <point x="386" y="731"/>
      <point x="397" y="720"/>
      <point x="422" y="720" type="curve" smooth="yes"/>
    </contour>
  </outline>
</glyph>
<glyph name="Jcircumflex" format="1">
  <advance width="1000"/>
  <unicode hex="0134"/>
  <outline>
    <contour>
      <point x="800" y="189" type="curve" smooth="yes"/>
      <point x="800" y="644" type="line" smooth="yes"/>
      <point x="800" y="669"/>
      <point x="789" y="680"/>
      <point x="764" y="680" type="curve" smooth="yes"/>
      <point x="607" y="680" type="line" smooth="yes"/>
      <point x="582" y="680"/>
      <point x="571" y="669"/>
      <point x="571" y="644" type="curve" smooth="yes"/>
      <point x="571" y="229" type="line" smooth="yes"/>
      <point x="571" y="202"/>
      <point x="562" y="182"/>
      <point x="495" y="182" type="curve" smooth="yes"/>
      <point x="424" y="182"/>
      <point x="417" y="202"/>
      <point x="417" y="229" type="curve" smooth="yes"/>
      <point x="417" y="351" type="line" smooth="yes"/>
      <point x="417" y="377"/>
      <point x="406" y="387"/>
      <point x="381" y="387" type="curve" smooth="yes"/>
      <point x="236" y="387" type="line" smooth="yes"/>
      <point x="211" y="387"/>
      <point x="200" y="377"/>
      <point x="200" y="351" type="curve" smooth="yes"/>
      <point x="200" y="189" type="line" smooth="yes"/>
      <point x="200" y="67"/>
      <point x="256" y="-15"/>
      <point x="497" y="-15" type="curve" smooth="yes"/>
      <point x="740" y="-15"/>
      <point x="800" y="67"/>
    </contour>
    <contour>
      <point x="558" y="757" type="line"/>
      <point x="581" y="763"/>
      <point x="597" y="763"/>
      <point x="620" y="757" type="curve"/>
      <point x="757" y="717" type="line" smooth="yes"/>
      <point x="792" y="706"/>
      <point x="799" y="712"/>
      <point x="799" y="748" type="curve" smooth="yes"/>
      <point x="799" y="829" type="line" smooth="yes"/>
      <point x="799" y="865"/>
      <point x="791" y="869"/>
      <point x="757" y="882" type="curve" smooth="yes"/>
      <point x="620" y="932" type="line" smooth="yes"/>
      <point x="610" y="936"/>
      <point x="600" y="937"/>
      <point x="588" y="937" type="curve" smooth="yes"/>
      <point x="576" y="936"/>
      <point x="561" y="933"/>
      <point x="549" y="928" type="curve" smooth="yes"/>
      <point x="421" y="882" type="line" smooth="yes"/>
      <point x="389" y="869"/>
      <point x="380" y="865"/>
      <point x="380" y="829" type="curve" smooth="yes"/>
      <point x="380" y="748" type="line" smooth="yes"/>
      <point x="380" y="712"/>
      <point x="387" y="706"/>
      <point x="421" y="717" type="curve" smooth="yes"/>
    </contour>
  </outline>
</glyph>
<glyph name="Kcommaaccent" format="1">
  <advance width="1000"/>
  <unicode hex="0136"/>
  <outline>
    <contour>
      <point x="391" y="40" type="line" smooth="yes"/>
      <point x="416" y="40"/>
      <point x="427" y="51"/>
      <point x="427" y="76" type="curve" smooth="yes"/>
      <point x="427" y="285" type="line"/>
      <point x="542" y="285" type="line" smooth="yes"/>
      <point x="563" y="285"/>
      <point x="574" y="273"/>
      <point x="574" y="251" type="curve" smooth="yes"/>
      <point x="574" y="76" type="line" smooth="yes"/>
      <point x="574" y="51"/>
      <point x="585" y="40"/>
      <point x="610" y="40" type="curve" smooth="yes"/>
      <point x="764" y="40" type="line" smooth="yes"/>
      <point x="789" y="40"/>
      <point x="800" y="51"/>
      <point x="800" y="76" type="curve" smooth="yes"/>
      <point x="800" y="338" type="line" smooth="yes"/>
      <point x="800" y="418"/>
      <point x="752" y="470"/>
      <point x="677" y="474" type="curve"/>
      <point x="779" y="687" type="line" smooth="yes"/>
      <point x="788" y="708"/>
      <point x="780" y="720"/>
      <point x="757" y="720" type="curve" smooth="yes"/>
      <point x="603" y="720" type="line" smooth="yes"/>
      <point x="577" y="720"/>
      <point x="563" y="711"/>
      <point x="553" y="687" type="curve" smooth="yes"/>
      <point x="450" y="474" type="line"/>
      <point x="427" y="474" type="line"/>
      <point x="427" y="684" type="line" smooth="yes"/>
      <point x="427" y="709"/>
      <point x="416" y="720"/>
      <point x="391" y="720" type="curve" smooth="yes"/>
      <point x="236" y="720" type="line" smooth="yes"/>
      <point x="211" y="720"/>
      <point x="200" y="709"/>
      <point x="200" y="684" type="curve" smooth="yes"/>
      <point x="200" y="76" type="line" smooth="yes"/>
      <point x="200" y="51"/>
      <point x="211" y="40"/>
      <point x="236" y="40" type="curve" smooth="yes"/>
    </contour>
    <contour>
      <point x="492" y="-290" type="line" smooth="yes"/>
      <point x="568" y="-290"/>
      <point x="617" y="-248"/>
      <point x="617" y="-162" type="curve" smooth="yes"/>
      <point x="617" y="-50" type="line" smooth="yes"/>
      <point x="617" y="-19"/>
      <point x="608" y="-10"/>
      <point x="580" y="-10" type="curve" smooth="yes"/>
      <point x="422" y="-10" type="line" smooth="yes"/>
      <point x="394" y="-10"/>
      <point x="385" y="-19"/>
      <point x="385" y="-50" type="curve" smooth="yes"/>
      <point x="385" y="-129" type="line" smooth="yes"/>
      <point x="385" y="-159"/>
      <point x="394" y="-168"/>
      <point x="422" y="-168" type="curve" smooth="yes"/>
      <point x="508" y="-168" type="line"/>
      <point x="508" y="-181" type="line" smooth="yes"/>
      <point x="508" y="-196"/>
      <point x="500" y="-205"/>
      <point x="485" y="-205" type="curve" smooth="yes"/>
      <point x="426" y="-205" type="line" smooth="yes"/>
      <point x="405" y="-205"/>
      <point x="396" y="-214"/>
      <point x="396" y="-235" type="curve" smooth="yes"/>
      <point x="396" y="-259" type="line" smooth="yes"/>
      <point x="396" y="-281"/>
      <point x="405" y="-290"/>
      <point x="426" y="-290" type="curve" smooth="yes"/>
    </contour>
  </outline>
</glyph>
<glyph name="Lacute" format="1">
  <advance width="1000"/>
  <unicode hex="0139"/>
  <outline>
    <contour>
      <point x="764" y="0" type="line" smooth="yes"/>
      <point x="789" y="0"/>
      <point x="800" y="11"/>
      <point x="800" y="36" type="curve" smooth="yes"/>
      <point x="800" y="341" type="line" smooth="yes"/>
      <point x="800" y="366"/>
      <point x="789" y="377"/>
      <point x="764" y="377" type="curve" smooth="yes"/>
      <point x="619" y="377" type="line" smooth="yes"/>
      <point x="594" y="377"/>
      <point x="583" y="366"/>
      <point x="583" y="341" type="curve" smooth="yes"/>
      <point x="583" y="189" type="line"/>
      <point x="427" y="189" type="line"/>
      <point x="427" y="644" type="line" smooth="yes"/>
      <point x="427" y="669"/>
      <point x="416" y="680"/>
      <point x="391" y="680" type="curve" smooth="yes"/>
      <point x="236" y="680" type="line" smooth="yes"/>
      <point x="211" y="680"/>
      <point x="200" y="669"/>
      <point x="200" y="644" type="curve" smooth="yes"/>
      <point x="200" y="36" type="line" smooth="yes"/>
      <point x="200" y="11"/>
      <point x="211" y="0"/>
      <point x="236" y="0" type="curve" smooth="yes"/>
    </contour>
    <contour>
      <point x="583" y="756" type="line" smooth="yes"/>
      <point x="608" y="759"/>
      <point x="619" y="767"/>
      <point x="619" y="792" type="curve" smooth="yes"/>
      <point x="619" y="888" type="line" smooth="yes"/>
      <point x="619" y="911"/>
      <point x="608" y="924"/>
      <point x="585" y="921" type="curve"/>
      <point x="236" y="878" type="line" smooth="yes"/>
      <point x="211" y="875"/>
      <point x="200" y="867"/>
      <point x="200" y="842" type="curve" smooth="yes"/>
      <point x="200" y="746" type="line" smooth="yes"/>
      <point x="200" y="723"/>
      <point x="211" y="710"/>
      <point x="234" y="713" type="curve" smooth="yes"/>
    </contour>
  </outline>
</glyph>
<glyph name="Lcaron" format="1">
  <advance width="1000"/>
  <unicode hex="013D"/>
  <outline>
    <contour>
      <point x="765" y="0" type="line" smooth="yes"/>
      <point x="790" y="0"/>
      <point x="801" y="11"/>
      <point x="801" y="36" type="curve" smooth="yes"/>
      <point x="801" y="351" type="line" smooth="yes"/>
      <point x="801" y="376"/>
      <point x="790" y="387"/>
      <point x="765" y="387" type="curve" smooth="yes"/>
      <point x="620" y="387" type="line" smooth="yes"/>
      <point x="595" y="387"/>
      <point x="584" y="376"/>
      <point x="584" y="351" type="curve" smooth="yes"/>
      <point x="584" y="189" type="line"/>
      <point x="428" y="189" type="line"/>
      <point x="428" y="684" type="line" smooth="yes"/>
      <point x="428" y="709"/>
      <point x="417" y="720"/>
      <point x="392" y="720" type="curve" smooth="yes"/>
      <point x="237" y="720" type="line" smooth="yes"/>
      <point x="212" y="720"/>
      <point x="201" y="709"/>
      <point x="201" y="684" type="curve"/>
      <point x="201" y="36" type="line"/>
      <point x="201" y="11"/>
      <point x="212" y="0"/>
      <point x="237" y="0" type="curve" smooth="yes"/>
    </contour>
    <contour>
      <point x="735" y="452" type="line" smooth="yes"/>
      <point x="760" y="452"/>
      <point x="765" y="464"/>
      <point x="771" y="488" type="curve"/>
      <point x="818" y="684" type="line" smooth="yes"/>
      <point x="824" y="708"/>
      <point x="807" y="720"/>
      <point x="782" y="720" type="curve" smooth="yes"/>
      <point x="644" y="720" type="line" smooth="yes"/>
      <point x="619" y="720"/>
      <point x="612" y="709"/>
      <point x="608" y="684" type="curve" smooth="yes"/>
      <point x="575" y="488" type="line" smooth="yes"/>
      <point x="571" y="463"/>
      <point x="586" y="452"/>
      <point x="611" y="452" type="curve" smooth="yes"/>
    </contour>
  </outline>
</glyph>
<glyph name="Nacute" format="1">
  <advance width="1000"/>
  <unicode hex="0143"/>
  <outline>
    <contour>
      <point x="386" y="0" type="line" smooth="yes"/>
      <point x="411" y="0"/>
      <point x="422" y="11"/>
      <point x="422" y="36" type="curve" smooth="yes"/>
      <point x="422" y="326" type="line"/>
      <point x="579" y="139" type="line"/>
      <point x="579" y="36" type="line" smooth="yes"/>
      <point x="579" y="11"/>
      <point x="590" y="0"/>
      <point x="615" y="0" type="curve" smooth="yes"/>
      <point x="765" y="0" type="line" smooth="yes"/>
      <point x="790" y="0"/>
      <point x="801" y="11"/>
      <point x="801" y="36" type="curve" smooth="yes"/>
      <point x="801" y="644" type="line" smooth="yes"/>
      <point x="801" y="669"/>
      <point x="790" y="680"/>
      <point x="765" y="680" type="curve" smooth="yes"/>
      <point x="615" y="680" type="line" smooth="yes"/>
      <point x="590" y="680"/>
      <point x="579" y="669"/>
      <point x="579" y="644" type="curve" smooth="yes"/>
      <point x="579" y="451" type="line"/>
      <point x="399" y="653" type="line" smooth="yes"/>
      <point x="382" y="673"/>
      <point x="366" y="680"/>
      <point x="340" y="680" type="curve" smooth="yes"/>
      <point x="236" y="680" type="line" smooth="yes"/>
      <point x="211" y="680"/>
      <point x="200" y="669"/>
      <point x="200" y="644" type="curve" smooth="yes"/>
      <point x="200" y="36" type="line" smooth="yes"/>
      <point x="200" y="11"/>
      <point x="211" y="0"/>
      <point x="236" y="0" type="curve" smooth="yes"/>
    </contour>
    <contour>
      <point x="673" y="756" type="line" smooth="yes"/>
      <point x="698" y="759"/>
      <point x="709" y="767"/>
      <point x="709" y="792" type="curve" smooth="yes"/>
      <point x="709" y="888" type="line" smooth="yes"/>
      <point x="709" y="911"/>
      <point x="698" y="924"/>
      <point x="675" y="921" type="curve"/>
      <point x="326" y="878" type="line" smooth="yes"/>
      <point x="301" y="875"/>
      <point x="290" y="867"/>
      <point x="290" y="842" type="curve" smooth="yes"/>
      <point x="290" y="746" type="line" smooth="yes"/>
      <point x="290" y="723"/>
      <point x="301" y="710"/>
      <point x="324" y="713" type="curve" smooth="yes"/>
    </contour>
  </outline>
</glyph>
<glyph name="Ncommaaccent" format="1">
  <advance width="1000"/>
  <unicode hex="0145"/>
  <outline>
    <contour>
      <point x="386" y="40" type="line" smooth="yes"/>
      <point x="411" y="40"/>
      <point x="422" y="51"/>
      <point x="422" y="76" type="curve" smooth="yes"/>
      <point x="422" y="366" type="line"/>
      <point x="579" y="179" type="line"/>
      <point x="579" y="76" type="line" smooth="yes"/>
      <point x="579" y="51"/>
      <point x="590" y="40"/>
      <point x="615" y="40" type="curve" smooth="yes"/>
      <point x="765" y="40" type="line" smooth="yes"/>
      <point x="790" y="40"/>
      <point x="801" y="51"/>
      <point x="801" y="76" type="curve" smooth="yes"/>
      <point x="801" y="684" type="line" smooth="yes"/>
      <point x="801" y="709"/>
      <point x="790" y="720"/>
      <point x="765" y="720" type="curve" smooth="yes"/>
      <point x="615" y="720" type="line" smooth="yes"/>
      <point x="590" y="720"/>
      <point x="579" y="709"/>
      <point x="579" y="684" type="curve" smooth="yes"/>
      <point x="579" y="491" type="line"/>
      <point x="399" y="693" type="line" smooth="yes"/>
      <point x="382" y="713"/>
      <point x="366" y="720"/>
      <point x="340" y="720" type="curve" smooth="yes"/>
      <point x="236" y="720" type="line" smooth="yes"/>
      <point x="211" y="720"/>
      <point x="200" y="709"/>
      <point x="200" y="684" type="curve" smooth="yes"/>
      <point x="200" y="76" type="line" smooth="yes"/>
      <point x="200" y="51"/>
      <point x="211" y="40"/>
      <point x="236" y="40" type="curve" smooth="yes"/>
    </contour>
    <contour>
      <point x="492" y="-290" type="line" smooth="yes"/>
      <point x="568" y="-290"/>
      <point x="617" y="-248"/>
      <point x="617" y="-162" type="curve" smooth="yes"/>
      <point x="617" y="-50" type="line" smooth="yes"/>
      <point x="617" y="-19"/>
      <point x="608" y="-10"/>
      <point x="580" y="-10" type="curve" smooth="yes"/>
      <point x="422" y="-10" type="line" smooth="yes"/>
      <point x="394" y="-10"/>
      <point x="385" y="-19"/>
      <point x="385" y="-50" type="curve" smooth="yes"/>
      <point x="385" y="-129" type="line" smooth="yes"/>
      <point x="385" y="-159"/>
      <point x="394" y="-168"/>
      <point x="422" y="-168" type="curve" smooth="yes"/>
      <point x="508" y="-168" type="line"/>
      <point x="508" y="-181" type="line" smooth="yes"/>
      <point x="508" y="-196"/>
      <point x="500" y="-205"/>
      <point x="485" y="-205" type="curve" smooth="yes"/>
      <point x="426" y="-205" type="line" smooth="yes"/>
      <point x="405" y="-205"/>
      <point x="396" y="-214"/>
      <point x="396" y="-235" type="curve" smooth="yes"/>
      <point x="396" y="-259" type="line" smooth="yes"/>
      <point x="396" y="-281"/>
      <point x="405" y="-290"/>
      <point x="426" y="-290" type="curve" smooth="yes"/>
    </contour>
  </outline>
</glyph>
<glyph name="Ncaron" format="1">
  <advance width="1000"/>
  <unicode hex="0147"/>
  <outline>
    <contour>
      <point x="386" y="0" type="line" smooth="yes"/>
      <point x="411" y="0"/>
      <point x="422" y="11"/>
      <point x="422" y="36" type="curve" smooth="yes"/>
      <point x="422" y="326" type="line"/>
      <point x="579" y="139" type="line"/>
      <point x="579" y="36" type="line" smooth="yes"/>
      <point x="579" y="11"/>
      <point x="590" y="0"/>
      <point x="615" y="0" type="curve" smooth="yes"/>
      <point x="765" y="0" type="line" smooth="yes"/>
      <point x="790" y="0"/>
      <point x="801" y="11"/>
      <point x="801" y="36" type="curve" smooth="yes"/>
      <point x="801" y="644" type="line" smooth="yes"/>
      <point x="801" y="669"/>
      <point x="790" y="680"/>
      <point x="765" y="680" type="curve" smooth="yes"/>
      <point x="615" y="680" type="line" smooth="yes"/>
      <point x="590" y="680"/>
      <point x="579" y="669"/>
      <point x="579" y="644" type="curve" smooth="yes"/>
      <point x="579" y="451" type="line"/>
      <point x="399" y="653" type="line" smooth="yes"/>
      <point x="382" y="673"/>
      <point x="366" y="680"/>
      <point x="340" y="680" type="curve" smooth="yes"/>
      <point x="236" y="680" type="line" smooth="yes"/>
      <point x="211" y="680"/>
      <point x="200" y="669"/>
      <point x="200" y="644" type="curve" smooth="yes"/>
      <point x="200" y="36" type="line" smooth="yes"/>
      <point x="200" y="11"/>
      <point x="211" y="0"/>
      <point x="236" y="0" type="curve" smooth="yes"/>
    </contour>
    <contour>
      <point x="531" y="892" type="line"/>
      <point x="508" y="886"/>
      <point x="492" y="886"/>
      <point x="469" y="892" type="curve"/>
      <point x="332" y="932" type="line" smooth="yes"/>
      <point x="297" y="943"/>
      <point x="290" y="937"/>
      <point x="290" y="901" type="curve" smooth="yes"/>
      <point x="290" y="820" type="line" smooth="yes"/>
      <point x="290" y="784"/>
      <point x="298" y="780"/>
      <point x="332" y="767" type="curve" smooth="yes"/>
      <point x="469" y="717" type="line" smooth="yes"/>
      <point x="479" y="713"/>
      <point x="489" y="712"/>
      <point x="501" y="712" type="curve" smooth="yes"/>
      <point x="513" y="713"/>
      <point x="528" y="716"/>
      <point x="540" y="721" type="curve" smooth="yes"/>
      <point x="668" y="767" type="line" smooth="yes"/>
      <point x="700" y="780"/>
      <point x="709" y="784"/>
      <point x="709" y="820" type="curve" smooth="yes"/>
      <point x="709" y="901" type="line" smooth="yes"/>
      <point x="709" y="937"/>
      <point x="702" y="943"/>
      <point x="668" y="932" type="curve" smooth="yes"/>
    </contour>
  </outline>
</glyph>
<glyph name="Omacron" format="1">
  <advance width="1000"/>
  <unicode hex="014C"/>
  <outline>
    <contour>
      <point x="804" y="189" type="curve" smooth="yes"/>
      <point x="804" y="490" type="line" smooth="yes"/>
      <point x="804" y="612"/>
      <point x="745" y="695"/>
      <point x="500" y="695" type="curve" smooth="yes"/>
      <point x="255" y="695"/>
      <point x="196" y="612"/>
      <point x="196" y="490" type="curve" smooth="yes"/>
      <point x="196" y="189" type="line" smooth="yes"/>
      <point x="196" y="67"/>
      <point x="255" y="-15"/>
      <point x="500" y="-15" type="curve" smooth="yes"/>
      <point x="745" y="-15"/>
      <point x="804" y="67"/>
    </contour>
    <contour>
      <point x="423" y="225" type="curve" smooth="yes"/>
      <point x="423" y="454" type="line" smooth="yes"/>
      <point x="423" y="480"/>
      <point x="434" y="500"/>
      <point x="500" y="500" type="curve" smooth="yes"/>
      <point x="567" y="500"/>
      <point x="578" y="480"/>
      <point x="578" y="454" type="curve" smooth="yes"/>
      <point x="578" y="225" type="line" smooth="yes"/>
      <point x="578" y="198"/>
      <point x="567" y="178"/>
      <point x="500" y="178" type="curve" smooth="yes"/>
      <point x="434" y="178"/>
      <point x="423" y="198"/>
    </contour>
    <contour>
      <point x="673" y="720" type="line" smooth="yes"/>
      <point x="698" y="720"/>
      <point x="709" y="731"/>
      <point x="709" y="756" type="curve" smooth="yes"/>
      <point x="709" y="849" type="line" smooth="yes"/>
      <point x="709" y="874"/>
      <point x="698" y="885"/>
      <point x="673" y="885" type="curve" smooth="yes"/>
      <point x="326" y="885" type="line" smooth="yes"/>
      <point x="301" y="885"/>
      <point x="290" y="874"/>
      <point x="290" y="849" type="curve" smooth="yes"/>
      <point x="290" y="756" type="line" smooth="yes"/>
      <point x="290" y="731"/>
      <point x="301" y="720"/>
      <point x="326" y="720" type="curve" smooth="yes"/>
    </contour>
  </outline>
</glyph>
<glyph name="Obreve" format="1">
  <advance width="1000"/>
  <unicode hex="014E"/>
  <outline>
    <contour>
      <point x="804" y="189" type="curve" smooth="yes"/>
      <point x="804" y="490" type="line" smooth="yes"/>
      <point x="804" y="612"/>
      <point x="745" y="695"/>
      <point x="500" y="695" type="curve" smooth="yes"/>
      <point x="255" y="695"/>
      <point x="196" y="612"/>
      <point x="196" y="490" type="curve" smooth="yes"/>
      <point x="196" y="189" type="line" smooth="yes"/>
      <point x="196" y="67"/>
      <point x="255" y="-15"/>
      <point x="500" y="-15" type="curve" smooth="yes"/>
      <point x="745" y="-15"/>
      <point x="804" y="67"/>
    </contour>
    <contour>
      <point x="423" y="225" type="curve" smooth="yes"/>
      <point x="423" y="454" type="line" smooth="yes"/>
      <point x="423" y="480"/>
      <point x="434" y="500"/>
      <point x="500" y="500" type="curve" smooth="yes"/>
      <point x="567" y="500"/>
      <point x="578" y="480"/>
      <point x="578" y="454" type="curve" smooth="yes"/>
      <point x="578" y="225" type="line" smooth="yes"/>
      <point x="578" y="198"/>
      <point x="567" y="178"/>
      <point x="500" y="178" type="curve" smooth="yes"/>
      <point x="434" y="178"/>
      <point x="423" y="198"/>
    </contour>
    <contour>
      <point x="717" y="857" type="curve"/>
      <point x="717" y="901" type="line" smooth="yes"/>
      <point x="717" y="926"/>
      <point x="706" y="937"/>
      <point x="681" y="937" type="curve"/>
      <point x="590" y="937" type="line" smooth="yes"/>
      <point x="567" y="937"/>
      <point x="560" y="930"/>
      <point x="560" y="906" type="curve" smooth="yes"/>
      <point x="560" y="885" type="line" smooth="yes"/>
      <point x="560" y="866"/>
      <point x="551" y="852"/>
      <point x="501" y="852" type="curve" smooth="yes"/>
      <point x="452" y="852"/>
      <point x="444" y="866"/>
      <point x="444" y="885" type="curve" smooth="yes"/>
      <point x="444" y="906" type="line" smooth="yes"/>
      <point x="444" y="930"/>
      <point x="436" y="937"/>
      <point x="415" y="937" type="curve" smooth="yes"/>
      <point x="319" y="937" type="line" smooth="yes"/>
      <point x="294" y="937"/>
      <point x="283" y="926"/>
      <point x="283" y="901" type="curve" smooth="yes"/>
      <point x="283" y="857" type="line" smooth="yes"/>
      <point x="283" y="772"/>
      <point x="326" y="714"/>
      <point x="500" y="714" type="curve" smooth="yes"/>
      <point x="674" y="714"/>
      <point x="717" y="772"/>
    </contour>
  </outline>
</glyph>
<glyph name="Ohungarumlaut" format="1">
  <advance width="1000"/>
  <unicode hex="0150"/>
  <outline>
    <contour>
      <point x="804" y="189" type="curve" smooth="yes"/>
      <point x="804" y="490" type="line" smooth="yes"/>
      <point x="804" y="612"/>
      <point x="745" y="695"/>
      <point x="500" y="695" type="curve" smooth="yes"/>
      <point x="255" y="695"/>
      <point x="196" y="612"/>
      <point x="196" y="490" type="curve" smooth="yes"/>
      <point x="196" y="189" type="line" smooth="yes"/>
      <point x="196" y="67"/>
      <point x="255" y="-15"/>
      <point x="500" y="-15" type="curve" smooth="yes"/>
      <point x="745" y="-15"/>
      <point x="804" y="67"/>
    </contour>
    <contour>
      <point x="423" y="225" type="curve" smooth="yes"/>
      <point x="423" y="454" type="line" smooth="yes"/>
      <point x="423" y="480"/>
      <point x="434" y="500"/>
      <point x="500" y="500" type="curve" smooth="yes"/>
      <point x="567" y="500"/>
      <point x="578" y="480"/>
      <point x="578" y="454" type="curve" smooth="yes"/>
      <point x="578" y="225" type="line" smooth="yes"/>
      <point x="578" y="198"/>
      <point x="567" y="178"/>
      <point x="500" y="178" type="curve" smooth="yes"/>
      <point x="434" y="178"/>
      <point x="423" y="198"/>
    </contour>
    <contour>
      <point x="283" y="754" type="line" smooth="yes"/>
      <point x="277" y="732"/>
      <point x="293" y="720"/>
      <point x="316" y="720" type="curve" smooth="yes"/>
      <point x="422" y="720" type="line" smooth="yes"/>
      <point x="447" y="720"/>
      <point x="452" y="732"/>
      <point x="458" y="756" type="curve" smooth="yes"/>
      <point x="511" y="963" type="line" smooth="yes"/>
      <point x="517" y="985"/>
      <point x="501" y="997"/>
      <point x="478" y="997" type="curve" smooth="yes"/>
      <point x="372" y="997" type="line" smooth="yes"/>
      <point x="347" y="997"/>
      <point x="342" y="985"/>
      <point x="336" y="961" type="curve" smooth="yes"/>
    </contour>
    <contour>
      <point x="543" y="754" type="line" smooth="yes"/>
      <point x="537" y="732"/>
      <point x="553" y="720"/>
      <point x="576" y="720" type="curve" smooth="yes"/>
      <point x="682" y="720" type="line" smooth="yes"/>
      <point x="707" y="720"/>
      <point x="712" y="732"/>
      <point x="718" y="756" type="curve" smooth="yes"/>
      <point x="771" y="963" type="line" smooth="yes"/>
      <point x="777" y="985"/>
      <point x="761" y="997"/>
      <point x="738" y="997" type="curve" smooth="yes"/>
      <point x="632" y="997" type="line" smooth="yes"/>
      <point x="607" y="997"/>
      <point x="602" y="985"/>
      <point x="596" y="961" type="curve" smooth="yes"/>
    </contour>
  </outline>
</glyph>
<glyph name="Racute" format="1">
  <advance width="1000"/>
  <unicode hex="0154"/>
  <outline>
    <contour>
      <point x="390" y="0" type="line" smooth="yes"/>
      <point x="415" y="0"/>
      <point x="426" y="11"/>
      <point x="426" y="36" type="curve" smooth="yes"/>
      <point x="426" y="202" type="line"/>
      <point x="545" y="202" type="line" smooth="yes"/>
      <point x="573" y="202"/>
      <point x="583" y="189"/>
      <point x="583" y="159" type="curve" smooth="yes"/>
      <point x="583" y="36" type="line" smooth="yes"/>
      <point x="583" y="11"/>
      <point x="594" y="0"/>
      <point x="619" y="0" type="curve" smooth="yes"/>
      <point x="774" y="0" type="line" smooth="yes"/>
      <point x="799" y="0"/>
      <point x="810" y="11"/>
      <point x="810" y="36" type="curve" smooth="yes"/>
      <point x="810" y="218" type="line" smooth="yes"/>
      <point x="810" y="302"/>
      <point x="760" y="355"/>
      <point x="699" y="363" type="curve"/>
      <point x="741" y="381"/>
      <point x="755" y="421"/>
      <point x="755" y="477" type="curve" smooth="yes"/>
      <point x="755" y="513" type="line" smooth="yes"/>
      <point x="755" y="612"/>
      <point x="708" y="680"/>
      <point x="558" y="680" type="curve" smooth="yes"/>
      <point x="236" y="680" type="line" smooth="yes"/>
      <point x="211" y="680"/>
      <point x="200" y="669"/>
      <point x="200" y="644" type="curve" smooth="yes"/>
      <point x="200" y="36" type="line" smooth="yes"/>
      <point x="200" y="11"/>
      <point x="211" y="0"/>
      <point x="236" y="0" type="curve" smooth="yes"/>
    </contour>
    <contour>
      <point x="426" y="500" type="line"/>
      <point x="490" y="500" type="line" smooth="yes"/>
      <point x="525" y="500"/>
      <point x="534" y="480"/>
      <point x="534" y="453" type="curve" smooth="yes"/>
      <point x="534" y="429" type="line" smooth="yes"/>
      <point x="534" y="402"/>
      <point x="525" y="382"/>
      <point x="490" y="382" type="curve" smooth="yes"/>
      <point x="426" y="382" type="line"/>
    </contour>
    <contour>
      <point x="655" y="756" type="line" smooth="yes"/>
      <point x="680" y="759"/>
      <point x="691" y="767"/>
      <point x="691" y="792" type="curve" smooth="yes"/>
      <point x="691" y="888" type="line" smooth="yes"/>
      <point x="691" y="911"/>
      <point x="680" y="924"/>
      <point x="657" y="921" type="curve"/>
      <point x="308" y="878" type="line" smooth="yes"/>
      <point x="283" y="875"/>
      <point x="272" y="867"/>
      <point x="272" y="842" type="curve" smooth="yes"/>
      <point x="272" y="746" type="line" smooth="yes"/>
      <point x="272" y="723"/>
      <point x="283" y="710"/>
      <point x="306" y="713" type="curve" smooth="yes"/>
    </contour>
  </outline>
</glyph>
<glyph name="Rcommaaccent" format="1">
  <advance width="1000"/>
  <unicode hex="0156"/>
  <outline>
    <contour>
      <point x="390" y="40" type="line" smooth="yes"/>
      <point x="415" y="40"/>
      <point x="426" y="51"/>
      <point x="426" y="76" type="curve" smooth="yes"/>
      <point x="426" y="242" type="line"/>
      <point x="545" y="242" type="line" smooth="yes"/>
      <point x="573" y="242"/>
      <point x="583" y="229"/>
      <point x="583" y="199" type="curve" smooth="yes"/>
      <point x="583" y="76" type="line" smooth="yes"/>
      <point x="583" y="51"/>
      <point x="594" y="40"/>
      <point x="619" y="40" type="curve" smooth="yes"/>
      <point x="774" y="40" type="line" smooth="yes"/>
      <point x="799" y="40"/>
      <point x="810" y="51"/>
      <point x="810" y="76" type="curve" smooth="yes"/>
      <point x="810" y="258" type="line" smooth="yes"/>
      <point x="810" y="342"/>
      <point x="760" y="395"/>
      <point x="699" y="403" type="curve"/>
      <point x="741" y="421"/>
      <point x="755" y="461"/>
      <point x="755" y="517" type="curve" smooth="yes"/>
      <point x="755" y="553" type="line" smooth="yes"/>
      <point x="755" y="652"/>
      <point x="708" y="720"/>
      <point x="558" y="720" type="curve" smooth="yes"/>
      <point x="236" y="720" type="line" smooth="yes"/>
      <point x="211" y="720"/>
      <point x="200" y="709"/>
      <point x="200" y="684" type="curve" smooth="yes"/>
      <point x="200" y="76" type="line" smooth="yes"/>
      <point x="200" y="51"/>
      <point x="211" y="40"/>
      <point x="236" y="40" type="curve" smooth="yes"/>
    </contour>
    <contour>
      <point x="426" y="540" type="line"/>
      <point x="490" y="540" type="line" smooth="yes"/>
      <point x="525" y="540"/>
      <point x="534" y="520"/>
      <point x="534" y="493" type="curve" smooth="yes"/>
      <point x="534" y="469" type="line" smooth="yes"/>
      <point x="534" y="442"/>
      <point x="525" y="422"/>
      <point x="490" y="422" type="curve" smooth="yes"/>
      <point x="426" y="422" type="line"/>
    </contour>
    <contour>
      <point x="492" y="-290" type="line" smooth="yes"/>
      <point x="568" y="-290"/>
      <point x="617" y="-248"/>
      <point x="617" y="-162" type="curve" smooth="yes"/>
      <point x="617" y="-50" type="line" smooth="yes"/>
      <point x="617" y="-19"/>
      <point x="608" y="-10"/>
      <point x="580" y="-10" type="curve" smooth="yes"/>
      <point x="422" y="-10" type="line" smooth="yes"/>
      <point x="394" y="-10"/>
      <point x="385" y="-19"/>
      <point x="385" y="-50" type="curve" smooth="yes"/>
      <point x="385" y="-129" type="line" smooth="yes"/>
      <point x="385" y="-159"/>
      <point x="394" y="-168"/>
      <point x="422" y="-168" type="curve" smooth="yes"/>
      <point x="508" y="-168" type="line"/>
      <point x="508" y="-181" type="line" smooth="yes"/>
      <point x="508" y="-196"/>
      <point x="500" y="-205"/>
      <point x="485" y="-205" type="curve" smooth="yes"/>
      <point x="426" y="-205" type="line" smooth="yes"/>
      <point x="405" y="-205"/>
      <point x="396" y="-214"/>
      <point x="396" y="-235" type="curve" smooth="yes"/>
      <point x="396" y="-259" type="line" smooth="yes"/>
      <point x="396" y="-281"/>
      <point x="405" y="-290"/>
      <point x="426" y="-290" type="curve" smooth="yes"/>
    </contour>
  </outline>
</glyph>
<glyph name="Rcaron" format="1">
  <advance width="1000"/>
  <unicode hex="0158"/>
  <outline>
    <contour>
      <point x="390" y="0" type="line" smooth="yes"/>
      <point x="415" y="0"/>
      <point x="426" y="11"/>
      <point x="426" y="36" type="curve" smooth="yes"/>
      <point x="426" y="202" type="line"/>
      <point x="545" y="202" type="line" smooth="yes"/>
      <point x="573" y="202"/>
      <point x="583" y="189"/>
      <point x="583" y="159" type="curve" smooth="yes"/>
      <point x="583" y="36" type="line" smooth="yes"/>
      <point x="583" y="11"/>
      <point x="594" y="0"/>
      <point x="619" y="0" type="curve" smooth="yes"/>
      <point x="774" y="0" type="line" smooth="yes"/>
      <point x="799" y="0"/>
      <point x="810" y="11"/>
      <point x="810" y="36" type="curve" smooth="yes"/>
      <point x="810" y="218" type="line" smooth="yes"/>
      <point x="810" y="302"/>
      <point x="760" y="355"/>
      <point x="699" y="363" type="curve"/>
      <point x="741" y="381"/>
      <point x="755" y="421"/>
      <point x="755" y="477" type="curve" smooth="yes"/>
      <point x="755" y="513" type="line" smooth="yes"/>
      <point x="755" y="612"/>
      <point x="708" y="680"/>
      <point x="558" y="680" type="curve" smooth="yes"/>
      <point x="236" y="680" type="line" smooth="yes"/>
      <point x="211" y="680"/>
      <point x="200" y="669"/>
      <point x="200" y="644" type="curve" smooth="yes"/>
      <point x="200" y="36" type="line" smooth="yes"/>
      <point x="200" y="11"/>
      <point x="211" y="0"/>
      <point x="236" y="0" type="curve" smooth="yes"/>
    </contour>
    <contour>
      <point x="426" y="500" type="line"/>
      <point x="490" y="500" type="line" smooth="yes"/>
      <point x="525" y="500"/>
      <point x="534" y="480"/>
      <point x="534" y="453" type="curve" smooth="yes"/>
      <point x="534" y="429" type="line" smooth="yes"/>
      <point x="534" y="402"/>
      <point x="525" y="382"/>
      <point x="490" y="382" type="curve" smooth="yes"/>
      <point x="426" y="382" type="line"/>
    </contour>
    <contour>
      <point x="531" y="892" type="line"/>
      <point x="508" y="886"/>
      <point x="492" y="886"/>
      <point x="469" y="892" type="curve"/>
      <point x="332" y="932" type="line" smooth="yes"/>
      <point x="297" y="943"/>
      <point x="290" y="937"/>
      <point x="290" y="901" type="curve" smooth="yes"/>
      <point x="290" y="820" type="line" smooth="yes"/>
      <point x="290" y="784"/>
      <point x="298" y="780"/>
      <point x="332" y="767" type="curve" smooth="yes"/>
      <point x="469" y="717" type="line" smooth="yes"/>
      <point x="479" y="713"/>
      <point x="489" y="712"/>
      <point x="501" y="712" type="curve" smooth="yes"/>
      <point x="513" y="713"/>
      <point x="528" y="716"/>
      <point x="540" y="721" type="curve" smooth="yes"/>
      <point x="668" y="767" type="line" smooth="yes"/>
      <point x="700" y="780"/>
      <point x="709" y="784"/>
      <point x="709" y="820" type="curve" smooth="yes"/>
      <point x="709" y="901" type="line" smooth="yes"/>
      <point x="709" y="937"/>
      <point x="702" y="943"/>
      <point x="668" y="932" type="curve" smooth="yes"/>
    </contour>
  </outline>
</glyph>
<glyph name="Scaron" format="1">
  <advance width="1000"/>
  <unicode hex="0160"/>
  <outline>
    <contour>
      <point x="594" y="0" type="line" smooth="yes"/>
      <point x="723" y="0"/>
      <point x="801" y="62"/>
      <point x="801" y="176" type="curve" smooth="yes"/>
      <point x="801" y="271" type="line" smooth="yes"/>
      <point x="801" y="383"/>
      <point x="739" y="418"/>
      <point x="645" y="432" type="curve" smooth="yes"/>
      <point x="454" y="442" type="line" smooth="yes"/>
      <point x="437" y="444"/>
      <point x="427" y="451"/>
      <point x="427" y="469" type="curve" smooth="yes"/>
      <point x="427" y="487"/>
      <point x="437" y="499"/>
      <point x="454" y="499" type="curve" smooth="yes"/>
      <point x="739" y="499" type="line" smooth="yes"/>
      <point x="764" y="499"/>
      <point x="775" y="510"/>
      <point x="775" y="535" type="curve" smooth="yes"/>
      <point x="775" y="644" type="line" smooth="yes"/>
      <point x="775" y="669"/>
      <point x="764" y="680"/>
      <point x="739" y="680" type="curve" smooth="yes"/>
      <point x="407" y="680" type="line" smooth="yes"/>
      <point x="277" y="680"/>
      <point x="200" y="618"/>
      <point x="200" y="504" type="curve" smooth="yes"/>
      <point x="200" y="409" type="line" smooth="yes"/>
      <point x="200" y="297"/>
      <point x="261" y="262"/>
      <point x="355" y="248" type="curve" smooth="yes"/>
      <point x="547" y="237" type="line" smooth="yes"/>
      <point x="564" y="235"/>
      <point x="573" y="231"/>
      <point x="573" y="208" type="curve" smooth="yes"/>
      <point x="573" y="192"/>
      <point x="564" y="179"/>
      <point x="547" y="179" type="curve" smooth="yes"/>
      <point x="236" y="179" type="line" smooth="yes"/>
      <point x="211" y="179"/>
      <point x="200" y="168"/>
      <point x="200" y="143" type="curve" smooth="yes"/>
      <point x="200" y="36" type="line" smooth="yes"/>
      <point x="200" y="11"/>
      <point x="211" y="0"/>
      <point x="236" y="0" type="curve" smooth="yes"/>
    </contour>
    <contour>
      <point x="531" y="892" type="line"/>
      <point x="508" y="886"/>
      <point x="492" y="886"/>
      <point x="469" y="892" type="curve"/>
      <point x="332" y="932" type="line" smooth="yes"/>
      <point x="297" y="943"/>
      <point x="290" y="937"/>
      <point x="290" y="901" type="curve" smooth="yes"/>
      <point x="290" y="820" type="line" smooth="yes"/>
      <point x="290" y="784"/>
      <point x="298" y="780"/>
      <point x="332" y="767" type="curve" smooth="yes"/>
      <point x="469" y="717" type="line" smooth="yes"/>
      <point x="479" y="713"/>
      <point x="489" y="712"/>
      <point x="501" y="712" type="curve" smooth="yes"/>
      <point x="513" y="713"/>
      <point x="528" y="716"/>
      <point x="540" y="721" type="curve" smooth="yes"/>
      <point x="668" y="767" type="line" smooth="yes"/>
      <point x="700" y="780"/>
      <point x="709" y="784"/>
      <point x="709" y="820" type="curve" smooth="yes"/>
      <point x="709" y="901" type="line" smooth="yes"/>
      <point x="709" y="937"/>
      <point x="702" y="943"/>
      <point x="668" y="932" type="curve" smooth="yes"/>
    </contour>
  </outline>
</glyph>
<glyph name="Tcommaaccent" format="1">
  <advance width="1000"/>
  <unicode hex="0162"/>
  <unicode hex="021A"/>
  <outline>
    <contour>
      <point x="584" y="120" type="line" smooth="yes"/>
      <point x="609" y="120"/>
      <point x="620" y="131"/>
      <point x="620" y="156" type="curve" smooth="yes"/>
      <point x="620" y="527" type="line"/>
      <point x="764" y="527" type="line" smooth="yes"/>
      <point x="789" y="527"/>
      <point x="800" y="538"/>
      <point x="800" y="563" type="curve" smooth="yes"/>
      <point x="800" y="684" type="line" smooth="yes"/>
      <point x="800" y="709"/>
      <point x="789" y="720"/>
      <point x="764" y="720" type="curve" smooth="yes"/>
      <point x="236" y="720" type="line" smooth="yes"/>
      <point x="211" y="720"/>
      <point x="200" y="709"/>
      <point x="200" y="684" type="curve" smooth="yes"/>
      <point x="200" y="563" type="line" smooth="yes"/>
      <point x="200" y="538"/>
      <point x="211" y="527"/>
      <point x="236" y="527" type="curve" smooth="yes"/>
      <point x="380" y="527" type="line"/>
      <point x="380" y="156" type="line" smooth="yes"/>
      <point x="380" y="131"/>
      <point x="391" y="120"/>
      <point x="416" y="120" type="curve" smooth="yes"/>
    </contour>
    <contour>
      <point x="491" y="-190" type="line" smooth="yes"/>
      <point x="567" y="-190"/>
      <point x="616" y="-148"/>
      <point x="616" y="-62" type="curve" smooth="yes"/>
      <point x="616" y="50" type="line" smooth="yes"/>
      <point x="616" y="81"/>
      <point x="607" y="90"/>
      <point x="579" y="90" type="curve" smooth="yes"/>
      <point x="421" y="90" type="line" smooth="yes"/>
      <point x="393" y="90"/>
      <point x="384" y="81"/>
      <point x="384" y="50" type="curve" smooth="yes"/>
      <point x="384" y="-29" type="line" smooth="yes"/>
      <point x="384" y="-59"/>
      <point x="393" y="-68"/>
      <point x="421" y="-68" type="curve" smooth="yes"/>
      <point x="507" y="-68" type="line"/>
      <point x="507" y="-81" type="line" smooth="yes"/>
      <point x="507" y="-96"/>
      <point x="499" y="-105"/>
      <point x="484" y="-105" type="curve" smooth="yes"/>
      <point x="425" y="-105" type="line" smooth="yes"/>
      <point x="404" y="-105"/>
      <point x="395" y="-114"/>
      <point x="395" y="-135" type="curve" smooth="yes"/>
      <point x="395" y="-159" type="line" smooth="yes"/>
      <point x="395" y="-181"/>
      <point x="404" y="-190"/>
      <point x="425" y="-190" type="curve" smooth="yes"/>
    </contour>
  </outline>
</glyph>
<glyph name="Tcaron" format="1">
  <advance width="1000"/>
  <unicode hex="0164"/>
  <outline>
    <contour>
      <point x="584" y="0" type="line" smooth="yes"/>
      <point x="609" y="0"/>
      <point x="620" y="11"/>
      <point x="620" y="36" type="curve" smooth="yes"/>
      <point x="620" y="487" type="line"/>
      <point x="764" y="487" type="line" smooth="yes"/>
      <point x="789" y="487"/>
      <point x="800" y="498"/>
      <point x="800" y="523" type="curve" smooth="yes"/>
      <point x="800" y="644" type="line" smooth="yes"/>
      <point x="800" y="669"/>
      <point x="789" y="680"/>
      <point x="764" y="680" type="curve" smooth="yes"/>
      <point x="236" y="680" type="line" smooth="yes"/>
      <point x="211" y="680"/>
      <point x="200" y="669"/>
      <point x="200" y="644" type="curve" smooth="yes"/>
      <point x="200" y="523" type="line" smooth="yes"/>
      <point x="200" y="498"/>
      <point x="211" y="487"/>
      <point x="236" y="487" type="curve" smooth="yes"/>
      <point x="380" y="487" type="line"/>
      <point x="380" y="36" type="line" smooth="yes"/>
      <point x="380" y="11"/>
      <point x="391" y="0"/>
      <point x="416" y="0" type="curve" smooth="yes"/>
    </contour>
    <contour>
      <point x="531" y="892" type="line"/>
      <point x="508" y="886"/>
      <point x="492" y="886"/>
      <point x="469" y="892" type="curve"/>
      <point x="332" y="932" type="line" smooth="yes"/>
      <point x="297" y="943"/>
      <point x="290" y="937"/>
      <point x="290" y="901" type="curve" smooth="yes"/>
      <point x="290" y="820" type="line" smooth="yes"/>
      <point x="290" y="784"/>
      <point x="298" y="780"/>
      <point x="332" y="767" type="curve" smooth="yes"/>
      <point x="469" y="717" type="line" smooth="yes"/>
      <point x="479" y="713"/>
      <point x="489" y="712"/>
      <point x="501" y="712" type="curve" smooth="yes"/>
      <point x="513" y="713"/>
      <point x="528" y="716"/>
      <point x="540" y="721" type="curve" smooth="yes"/>
      <point x="668" y="767" type="line" smooth="yes"/>
      <point x="700" y="780"/>
      <point x="709" y="784"/>
      <point x="709" y="820" type="curve" smooth="yes"/>
      <point x="709" y="901" type="line" smooth="yes"/>
      <point x="709" y="937"/>
      <point x="702" y="943"/>
      <point x="668" y="932" type="curve" smooth="yes"/>
    </contour>
  </outline>
</glyph>
<glyph name="Utilde" format="1">
  <advance width="1000"/>
  <unicode hex="0168"/>
  <outline>
    <contour>
      <point x="499" y="724" type="line"/>
      <point x="515" y="722" type="line" smooth="yes"/>
      <point x="595" y="710"/>
      <point x="609" y="708"/>
      <point x="672" y="727" type="curve"/>
      <point x="695" y="736"/>
      <point x="708" y="743"/>
      <point x="708" y="768" type="curve" smooth="yes"/>
      <point x="708" y="869" type="line" smooth="yes"/>
      <point x="708" y="894"/>
      <point x="696" y="902"/>
      <point x="672" y="895" type="curve" smooth="yes"/>
      <point x="613" y="877"/>
      <point x="609" y="874"/>
      <point x="521" y="887" type="curve" smooth="yes"/>
      <point x="499" y="890" type="line"/>
      <point x="482" y="892" type="line" smooth="yes"/>
      <point x="402" y="904"/>
      <point x="389" y="906"/>
      <point x="326" y="887" type="curve"/>
      <point x="303" y="878"/>
      <point x="290" y="871"/>
      <point x="290" y="846" type="curve" smooth="yes"/>
      <point x="290" y="745" type="line" smooth="yes"/>
      <point x="290" y="720"/>
      <point x="302" y="712"/>
      <point x="326" y="719" type="curve" smooth="yes"/>
      <point x="379" y="735"/>
      <point x="395" y="739"/>
      <point x="471" y="728" type="curve" smooth="yes"/>
    </contour>
    <contour>
      <point x="800" y="189" type="curve" smooth="yes"/>
      <point x="800" y="644" type="line" smooth="yes"/>
      <point x="800" y="669"/>
      <point x="789" y="680"/>
      <point x="764" y="680" type="curve" smooth="yes"/>
      <point x="612" y="680" type="line" smooth="yes"/>
      <point x="586" y="680"/>
      <point x="576" y="669"/>
      <point x="576" y="644" type="curve" smooth="yes"/>
      <point x="576" y="228" type="line" smooth="yes"/>
      <point x="576" y="201"/>
      <point x="564" y="181"/>
      <point x="502" y="181" type="curve" smooth="yes"/>
      <point x="441" y="181"/>
      <point x="429" y="201"/>
      <point x="429" y="228" type="curve" smooth="yes"/>
      <point x="429" y="644" type="line" smooth="yes"/>
      <point x="429" y="669"/>
      <point x="418" y="680"/>
      <point x="393" y="680" type="curve" smooth="yes"/>
      <point x="236" y="680" type="line" smooth="yes"/>
      <point x="211" y="680"/>
      <point x="200" y="669"/>
      <point x="200" y="644" type="curve" smooth="yes"/>
      <point x="200" y="189" type="line" smooth="yes"/>
      <point x="200" y="67"/>
      <point x="260" y="-15"/>
      <point x="500" y="-15" type="curve" smooth="yes"/>
      <point x="740" y="-15"/>
      <point x="800" y="67"/>
    </contour>
  </outline>
</glyph>
<glyph name="Ubreve" format="1">
  <advance width="1000"/>
  <unicode hex="016C"/>
  <outline>
    <contour>
      <point x="800" y="189" type="curve" smooth="yes"/>
      <point x="800" y="644" type="line" smooth="yes"/>
      <point x="800" y="669"/>
      <point x="789" y="680"/>
      <point x="764" y="680" type="curve" smooth="yes"/>
      <point x="612" y="680" type="line" smooth="yes"/>
      <point x="586" y="680"/>
      <point x="576" y="669"/>
      <point x="576" y="644" type="curve" smooth="yes"/>
      <point x="576" y="228" type="line" smooth="yes"/>
      <point x="576" y="201"/>
      <point x="564" y="181"/>
      <point x="502" y="181" type="curve" smooth="yes"/>
      <point x="441" y="181"/>
      <point x="429" y="201"/>
      <point x="429" y="228" type="curve" smooth="yes"/>
      <point x="429" y="644" type="line" smooth="yes"/>
      <point x="429" y="669"/>
      <point x="418" y="680"/>
      <point x="393" y="680" type="curve" smooth="yes"/>
      <point x="236" y="680" type="line" smooth="yes"/>
      <point x="211" y="680"/>
      <point x="200" y="669"/>
      <point x="200" y="644" type="curve" smooth="yes"/>
      <point x="200" y="189" type="line" smooth="yes"/>
      <point x="200" y="67"/>
      <point x="260" y="-15"/>
      <point x="500" y="-15" type="curve" smooth="yes"/>
      <point x="740" y="-15"/>
      <point x="800" y="67"/>
    </contour>
    <contour>
      <point x="717" y="857" type="curve"/>
      <point x="717" y="901" type="line" smooth="yes"/>
      <point x="717" y="926"/>
      <point x="706" y="937"/>
      <point x="681" y="937" type="curve"/>
      <point x="590" y="937" type="line" smooth="yes"/>
      <point x="567" y="937"/>
      <point x="560" y="930"/>
      <point x="560" y="906" type="curve" smooth="yes"/>
      <point x="560" y="885" type="line" smooth="yes"/>
      <point x="560" y="866"/>
      <point x="551" y="852"/>
      <point x="501" y="852" type="curve" smooth="yes"/>
      <point x="452" y="852"/>
      <point x="444" y="866"/>
      <point x="444" y="885" type="curve" smooth="yes"/>
      <point x="444" y="906" type="line" smooth="yes"/>
      <point x="444" y="930"/>
      <point x="436" y="937"/>
      <point x="415" y="937" type="curve" smooth="yes"/>
      <point x="319" y="937" type="line" smooth="yes"/>
      <point x="294" y="937"/>
      <point x="283" y="926"/>
      <point x="283" y="901" type="curve" smooth="yes"/>
      <point x="283" y="857" type="line" smooth="yes"/>
      <point x="283" y="772"/>
      <point x="326" y="714"/>
      <point x="500" y="714" type="curve" smooth="yes"/>
      <point x="674" y="714"/>
      <point x="717" y="772"/>
    </contour>
  </outline>
</glyph>
<glyph name="Uring" format="1">
  <advance width="1000"/>
  <unicode hex="016E"/>
  <outline>
    <contour>
      <point x="800" y="189" type="curve" smooth="yes"/>
      <point x="800" y="644" type="line" smooth="yes"/>
      <point x="800" y="669"/>
      <point x="789" y="680"/>
      <point x="764" y="680" type="curve" smooth="yes"/>
      <point x="612" y="680" type="line" smooth="yes"/>
      <point x="586" y="680"/>
      <point x="576" y="669"/>
      <point x="576" y="644" type="curve" smooth="yes"/>
      <point x="576" y="228" type="line" smooth="yes"/>
      <point x="576" y="201"/>
      <point x="564" y="181"/>
      <point x="502" y="181" type="curve" smooth="yes"/>
      <point x="441" y="181"/>
      <point x="429" y="201"/>
      <point x="429" y="228" type="curve" smooth="yes"/>
      <point x="429" y="644" type="line" smooth="yes"/>
      <point x="429" y="669"/>
      <point x="418" y="680"/>
      <point x="393" y="680" type="curve" smooth="yes"/>
      <point x="236" y="680" type="line" smooth="yes"/>
      <point x="211" y="680"/>
      <point x="200" y="669"/>
      <point x="200" y="644" type="curve" smooth="yes"/>
      <point x="200" y="189" type="line" smooth="yes"/>
      <point x="200" y="67"/>
      <point x="260" y="-15"/>
      <point x="500" y="-15" type="curve" smooth="yes"/>
      <point x="740" y="-15"/>
      <point x="800" y="67"/>
    </contour>
    <contour>
      <point x="717" y="955" type="line" smooth="yes"/>
      <point x="717" y="1040"/>
      <point x="674" y="1098"/>
      <point x="500" y="1098" type="curve" smooth="yes"/>
      <point x="326" y="1098"/>
      <point x="283" y="1040"/>
      <point x="283" y="955" type="curve" smooth="yes"/>
      <point x="283" y="857" type="line" smooth="yes"/>
      <point x="283" y="772"/>
      <point x="326" y="714"/>
      <point x="500" y="714" type="curve" smooth="yes"/>
      <point x="674" y="714"/>
      <point x="717" y="772"/>
      <point x="717" y="857" type="curve" smooth="yes"/>
    </contour>
    <contour>
      <point x="560" y="890" type="line" smooth="yes"/>
      <point x="560" y="861"/>
      <point x="551" y="847"/>
      <point x="501" y="847" type="curve" smooth="yes"/>
      <point x="452" y="847"/>
      <point x="444" y="861"/>
      <point x="444" y="890" type="curve" smooth="yes"/>
      <point x="444" y="925" type="line" smooth="yes"/>
      <point x="444" y="951"/>
      <point x="452" y="965"/>
      <point x="501" y="965" type="curve" smooth="yes"/>
      <point x="551" y="965"/>
      <point x="560" y="951"/>
      <point x="560" y="925" type="curve" smooth="yes"/>
    </contour>
  </outline>
</glyph>
<glyph name="Uhungarumlaut" format="1">
  <advance width="1000"/>
  <unicode hex="0170"/>
  <outline>
    <contour>
      <point x="800" y="189" type="curve" smooth="yes"/>
      <point x="800" y="644" type="line" smooth="yes"/>
      <point x="800" y="669"/>
      <point x="789" y="680"/>
      <point x="764" y="680" type="curve" smooth="yes"/>
      <point x="612" y="680" type="line" smooth="yes"/>
      <point x="586" y="680"/>
      <point x="576" y="669"/>
      <point x="576" y="644" type="curve" smooth="yes"/>
      <point x="576" y="228" type="line" smooth="yes"/>
      <point x="576" y="201"/>
      <point x="564" y="181"/>
      <point x="502" y="181" type="curve" smooth="yes"/>
      <point x="441" y="181"/>
      <point x="429" y="201"/>
      <point x="429" y="228" type="curve" smooth="yes"/>
      <point x="429" y="644" type="line" smooth="yes"/>
      <point x="429" y="669"/>
      <point x="418" y="680"/>
      <point x="393" y="680" type="curve" smooth="yes"/>
      <point x="236" y="680" type="line" smooth="yes"/>
      <point x="211" y="680"/>
      <point x="200" y="669"/>
      <point x="200" y="644" type="curve" smooth="yes"/>
      <point x="200" y="189" type="line" smooth="yes"/>
      <point x="200" y="67"/>
      <point x="260" y="-15"/>
      <point x="500" y="-15" type="curve" smooth="yes"/>
      <point x="740" y="-15"/>
      <point x="800" y="67"/>
    </contour>
    <contour>
      <point x="285" y="754" type="line" smooth="yes"/>
      <point x="279" y="732"/>
      <point x="295" y="720"/>
      <point x="318" y="720" type="curve" smooth="yes"/>
      <point x="424" y="720" type="line" smooth="yes"/>
      <point x="449" y="720"/>
      <point x="454" y="732"/>
      <point x="460" y="756" type="curve" smooth="yes"/>
      <point x="513" y="963" type="line" smooth="yes"/>
      <point x="519" y="985"/>
      <point x="503" y="997"/>
      <point x="480" y="997" type="curve" smooth="yes"/>
      <point x="374" y="997" type="line" smooth="yes"/>
      <point x="349" y="997"/>
      <point x="344" y="985"/>
      <point x="338" y="961" type="curve" smooth="yes"/>
    </contour>
    <contour>
      <point x="545" y="754" type="line" smooth="yes"/>
      <point x="539" y="732"/>
      <point x="555" y="720"/>
      <point x="578" y="720" type="curve" smooth="yes"/>
      <point x="684" y="720" type="line" smooth="yes"/>
      <point x="709" y="720"/>
      <point x="714" y="732"/>
      <point x="720" y="756" type="curve" smooth="yes"/>
      <point x="773" y="963" type="line" smooth="yes"/>
      <point x="779" y="985"/>
      <point x="763" y="997"/>
      <point x="740" y="997" type="curve" smooth="yes"/>
      <point x="634" y="997" type="line" smooth="yes"/>
      <point x="609" y="997"/>
      <point x="604" y="985"/>
      <point x="598" y="961" type="curve" smooth="yes"/>
    </contour>
  </outline>
</glyph>
<glyph name="Uogonek" format="1">
  <advance width="1000"/>
  <unicode hex="0172"/>
  <outline>
    <contour>
      <point x="800" y="229" type="curve" smooth="yes"/>
      <point x="800" y="684" type="line" smooth="yes"/>
      <point x="800" y="709"/>
      <point x="789" y="720"/>
      <point x="764" y="720" type="curve" smooth="yes"/>
      <point x="612" y="720" type="line" smooth="yes"/>
      <point x="586" y="720"/>
      <point x="576" y="709"/>
      <point x="576" y="684" type="curve" smooth="yes"/>
      <point x="576" y="268" type="line" smooth="yes"/>
      <point x="576" y="241"/>
      <point x="564" y="221"/>
      <point x="502" y="221" type="curve" smooth="yes"/>
      <point x="441" y="221"/>
      <point x="429" y="241"/>
      <point x="429" y="268" type="curve" smooth="yes"/>
      <point x="429" y="684" type="line" smooth="yes"/>
      <point x="429" y="709"/>
      <point x="418" y="720"/>
      <point x="393" y="720" type="curve" smooth="yes"/>
      <point x="236" y="720" type="line" smooth="yes"/>
      <point x="211" y="720"/>
      <point x="200" y="709"/>
      <point x="200" y="684" type="curve" smooth="yes"/>
      <point x="200" y="229" type="line" smooth="yes"/>
      <point x="200" y="107"/>
      <point x="260" y="25"/>
      <point x="500" y="25" type="curve" smooth="yes"/>
      <point x="740" y="25"/>
      <point x="800" y="107"/>
    </contour>
    <contour>
      <point x="579" y="103" type="line"/>
      <point x="416" y="103" type="line"/>
      <point x="395" y="-15" type="line" smooth="yes"/>
      <point x="381" y="-108"/>
      <point x="410" y="-150"/>
      <point x="496" y="-150" type="curve" smooth="yes"/>
      <point x="607" y="-150" type="line" smooth="yes"/>
      <point x="633" y="-150"/>
      <point x="640" y="-142"/>
      <point x="640" y="-116" type="curve" smooth="yes"/>
      <point x="640" y="-44" type="line" smooth="yes"/>
      <point x="640" y="-18"/>
      <point x="632" y="-10"/>
      <point x="604" y="-10" type="curve" smooth="yes"/>
      <point x="563" y="-10" type="line"/>
    </contour>
  </outline>
</glyph>
